<?xml version="1.0" standalone="no"?>
<!DOCTYPE svg PUBLIC "-//W3C//DTD SVG 1.1//EN" "http://www.w3.org/Graphics/SVG/1.1/DTD/svg11.dtd" >
<svg xmlns="http://www.w3.org/2000/svg">
<metadata></metadata>
<defs>
<font id="goudytrajanregular" horiz-adv-x="1290" >
<font-face units-per-em="2048" ascent="1638" descent="-410" />
<missing-glyph horiz-adv-x="655" />
<glyph horiz-adv-x="2048" />
<glyph horiz-adv-x="2048" />
<glyph unicode="&#xd;" horiz-adv-x="0" />
<glyph unicode=" "  horiz-adv-x="655" />
<glyph unicode="&#x09;" horiz-adv-x="655" />
<glyph unicode="&#xa0;" horiz-adv-x="655" />
<glyph unicode="!" horiz-adv-x="440" d="M123 104q0 45 27.5 76t70.5 31q96 0 96 -98q0 -47 -26.5 -80t-71.5 -33q-43 0 -69.5 30.5t-26.5 73.5zM129 1438q57 -4 92 -4t92 4l-10 -84l-27 -314l-32 -581q-2 -53 -23 -53q-20 0 -22 57l-27 571l-33 320q-2 29 -10 84z" />
<glyph unicode="&#x22;" horiz-adv-x="577" d="M82 1366q0 14 45 57t66 43q14 0 35.5 -49t21.5 -67q0 -49 -53 -148q-43 -82 -86 -135q-4 -8 -19 -16q-4 2 -4 6q0 -2 29.5 60.5t29.5 107.5q0 53 -32.5 95t-32.5 46zM328 1366q0 23 45 61.5t65 38.5q14 0 36 -49t22 -67q0 -49 -54 -148q-43 -82 -86 -135q-4 -8 -18 -16 q-4 2 -4 6q0 -2 29.5 60.5t29.5 107.5q0 53 -32.5 95t-32.5 46z" />
<glyph unicode="#" horiz-adv-x="1222" d="M0 53q0 31 14 31q4 0 38 -11.5t83 -11.5q84 0 129 27t96 100q43 61 43 172q0 41 -28 41q-8 0 -33 -10t-29 -10q-39 0 -66.5 34t-27.5 64q0 12 5 63.5t5 82.5q0 127 -137 127q-6 0 -19.5 -3.5t-19.5 -3.5q-23 0 -22 13q0 29 65 28q137 0 240 -133q94 -123 94 -256 q0 -143 -59 -252q-6 -12 10 -12t68 66q45 55 94 153q57 104 71 170q8 35 -16 35q-6 0 -19.5 -5t-19.5 -5q-31 0 -62.5 24.5t-39.5 46.5q-16 57 -49 166q-16 49 -70.5 81t-106.5 32q-2 0 -34.5 -7t-46.5 -7q-12 0 -13 6q0 18 40 43.5t81 25.5q29 0 83 -18t52 -18 q14 0 26.5 20.5t31.5 20.5q27 0 55 -52q25 -43 29 -77q8 -59 8 -119q0 -10 12 -20.5t20 -10.5q14 0 27.5 17.5t13.5 31.5q0 84 -20 176q-20 51 -43 105q-41 100 -41 114q0 66 45 66q6 0 18.5 -6t18.5 -6q16 0 24 30q4 23 11 45q20 57 95 117t124 60q23 0 22 -13 q0 -2 -28 -16q-35 -16 -54 -43q-29 -41 -28 -107q0 -88 24 -110l50 -4q39 -4 38 -29q0 4 -26 -70q-23 -61 -105 -157q-63 -74 -63 -154q0 -43 31 -43q16 0 33.5 23.5t19.5 40.5q10 53 60 108t83 55q2 0 10.5 -21.5t28.5 -21.5q4 0 14.5 4.5t28.5 4.5q51 0 91 -28t40 -56 q0 -10 -8 -11q-4 0 -32.5 16.5t-47.5 16.5q-72 0 -148.5 -141t-152.5 -141q-14 0 -34.5 14t-28.5 14q-18 0 -33 -55q-37 -154 -176 -348q-10 -14 8 -15q18 0 125 86q139 113 188 146q125 82 209 82q104 0 176 -58q60 -47 60 -92q0 -10 -13 -10q2 0 -42 42t-87 42 q-47 0 -140 -105.5t-161 -105.5q-25 0 -60.5 41t-43.5 41q-16 0 -49 -27q-193 -162 -363 -209q-78 -20 -158 -20t-93 11.5t-13 41.5z" />
<glyph unicode="$" horiz-adv-x="923" d="M82 242q0 82 12 82q4 0 6 -5q0 -25 21 -86q74 -137 299 -139v592l-103 59q-209 121 -208 336q0 82 44 157t117 114q51 27 150 41v73h69v-67h19q63 0 164 -15q86 -12 92 -12q16 0 27.5 5t15.5 5q6 0 6 -8t-5 -22.5t-5 -22.5q0 -14 2 -44t2 -44q0 -90 -16 -90l-15 51 q-12 43 -55 78q-80 66 -232 68v-533q201 -117 238 -147q115 -99 115 -240q0 -139 -105.5 -249.5t-247.5 -133.5v-78h-69v72h-21q-160 0 -286 45q-29 10 -29 22v68q-2 45 -2 68zM209 1135q0 -158 209 -279h2v487q-90 -14 -148 -65q-63 -57 -63 -143zM489 98q70 10 117 39 q55 35 94 98.5t39 126.5q0 94 -84 173q-51 49 -166 110v-547z" />
<glyph unicode="%" horiz-adv-x="1777" d="M166 954q0 184 76 318q90 164 260 164q174 0 268 -144q82 -121 82 -305q0 -188 -88 -313q-98 -145 -279 -146q-158 0 -245 140q-74 121 -74 286zM276 1063q0 -166 50 -297q70 -180 206 -180q92 0 154 106q55 93 55 191q0 180 -49 311q-70 186 -219 186q-92 0 -149 -118 q-47 -96 -48 -199zM492 -12l796 1454h82l-797 -1454h-81zM1010 426q0 182 75 317q92 164 263 164q174 0 268 -143q80 -121 80 -305q0 -188 -88 -314q-98 -145 -279 -145q-158 0 -246 139q-74 121 -73 287zM1120 535q0 -166 49 -297q70 -180 207 -181q92 0 156 107 q55 90 55 188q0 178 -51 312q-70 186 -219 186q-92 0 -150 -117q-47 -96 -47 -198z" />
<glyph unicode="&#x26;" horiz-adv-x="1611" d="M82 498q0 188 166 340q45 41 82 61q20 12 20 16t-16 15q-117 72 -117 213q0 154 105 241q96 82 253 82q94 0 234 -49q98 -35 113 -35q6 0 18 3.5t18 3.5q8 0 9 -13q0 -14 -2 -41.5t-2 -42.5q0 -27 4 -77t4 -76q0 -27 -10 -27q-8 0 -8.5 26.5t-34.5 78.5 q-129 188 -371 188q-92 0 -152.5 -57.5t-60.5 -147.5q0 -109 77.5 -195.5t184.5 -86.5q55 0 55 -21q0 -23 -57 -23q-162 0 -261.5 -96t-99.5 -256q0 -209 154 -351t365 -142q190 0 325 86q160 100 160 280q0 156 -66 262q-117 18 -215 19q-80 0 -143 -31q-82 -37 -82 -108 q0 -78 25 -101q2 -2 22.5 -14t20.5 -14q0 -14 -19 -15q-47 0 -78 53q-27 45 -26 97q0 246 272 245q150 0 242 -10q168 -18 174 -18q154 0 154 78q0 43 -27 55q-12 2 -23 6q-16 4 -16 12q0 14 29 15q41 0 67 -54q25 -43 25 -88q0 -100 -70 -129q-39 -18 -155 -18 q23 -61 22 -129q0 -121 -49 -221q-158 -319 -594 -320q-279 0 -451 123q-195 139 -194 408z" />
<glyph unicode="'" horiz-adv-x="331" d="M82 1366q0 12 47 56t64 44q14 0 35.5 -49t21.5 -67q0 -49 -53 -148q-45 -84 -86 -135q-4 -8 -19 -16q-4 2 -4 6q0 -2 29.5 60.5t29.5 107.5q0 53 -32.5 95t-32.5 46z" />
<glyph unicode="(" horiz-adv-x="598" d="M123 680q0 369 260 694q74 92 131 133q6 6 16 11q7 -3 7 -7t-13 -16q-127 -135 -205 -371q-70 -215 -69 -419q0 -408 172 -685q27 -43 100 -137q6 -8 13 -20l-7 -4q-172 98 -292 362q-113 242 -113 459z" />
<glyph unicode=")" horiz-adv-x="598" d="M61 -135q0 4 13 16q129 137 205 371q70 215 69 420q0 254 -59 438q-63 197 -213 385q-6 8 -13 16q0 6 7 7q174 -102 292 -361q113 -240 113 -457q0 -406 -299 -745q-47 -53 -92 -86q-14 -10 -16 -10q-6 2 -7 6z" />
<glyph unicode="*" horiz-adv-x="946" d="M82 1171l80 132q127 -109 289 -234q0 113 -56 365h162q-31 -127 -68 -365q100 57 285 234l76 -121q-152 -57 -344 -146q94 -47 358 -129l-86 -129q-123 106 -289 230q0 -117 66 -365h-162q57 307 58 365q-102 -59 -279 -232l-76 131q150 51 340 129q-76 53 -354 135z" />
<glyph unicode="+" horiz-adv-x="989" d="M41 721v67q0 16 5 19.5t36 3.5h358v365q0 23 4.5 27.5t24.5 4.5h57q18 0 21.5 -4t3.5 -28v-365h358q29 0 34 -3t5 -24v-55q0 -23 -4 -26t-31 -3h-362v-366q0 -23 -3 -28t-22 -5h-61q-18 0 -21.5 4t-3.5 29v366h-354q-33 0 -39 3.5t-6 17.5z" />
<glyph unicode="," horiz-adv-x="413" d="M109 137q0 25 38.5 70t63.5 45q18 0 62 -48t44 -81q0 -104 -157 -297q-10 -12 -21 -12q-4 2 -4 6q0 -2 35 84t35 131q0 29 -48 61.5t-48 40.5z" />
<glyph unicode="-" horiz-adv-x="567" d="M61 666q0 14 27 26l346 172q49 25 64 25q8 0 8 -27q0 -49 -33 -65l-346 -176q-12 -6 -39 -7q-10 0 -18.5 19.5t-8.5 32.5z" />
<glyph unicode="." horiz-adv-x="440" d="M123 104q0 45 27.5 76t70.5 31q96 0 96 -98q0 -47 -26.5 -80t-71.5 -33q-43 0 -69.5 30.5t-26.5 73.5z" />
<glyph unicode="/" horiz-adv-x="575" d="M0 -303l463 1829h112l-464 -1829h-111z" />
<glyph unicode="0" horiz-adv-x="1402" d="M102 629q0 418 193 643q164 195 412 194q266 0 440 -252q153 -223 153 -485q0 -319 -161 -534q-172 -227 -457 -228q-248 0 -420 207q-160 197 -160 455zM256 829q0 -383 126 -591.5t368 -208.5q164 0 274.5 143t110.5 381q0 352 -105 580q-125 272 -366 272 q-166 0 -287 -168t-121 -408z" />
<glyph unicode="1" horiz-adv-x="759" d="M61 1286q0 14 29 25q70 20 225 75q51 23 95 60q37 33 39 33q10 0 10 -19q0 -68 -6.5 -287t-6.5 -288v-523q0 -256 37 -299q49 -57 160 -57q35 0 35 -12q0 -18 -35 -19q-31 0 -122 12.5t-124 12.5q-45 0 -192 -14q-63 -6 -101 -6q-35 0 -34 12q0 14 30 18q41 2 111 15 q72 23 92 141q12 68 12 258v686q0 94 -4 123q-14 80 -65 80q-14 0 -81 -20.5t-83 -20.5q-20 0 -21 14z" />
<glyph unicode="2" horiz-adv-x="1054" d="M41 -2q0 8 68 82q43 43 86 88l223 246q332 377 332 608q0 152 -88 260q-98 123 -259 123q-119 0 -206.5 -82t-87.5 -168q0 -10 -9 -12q-20 0 -20 51v57q2 37 2 56q0 -14 -10 71q0 8 6 8q8 0 18 -3t19 -1q12 2 139 48q104 37 201 36q186 0 323 -131t137 -303 q0 -137 -79 -274q-61 -104 -187 -238q-104 -109 -209 -215l-174 -180q-10 -10 -10 -27q0 -20 25 -20h378q129 0 193 51q23 18 51 78q14 33 23 33q6 -1 6 -9t-31 -114q-4 -37 -8 -72q-8 -53 -31 -53h-24q-18 2 -27 2q-51 0 -153.5 3t-153.5 3q-272 0 -445 -20q-18 -2 -18 18z " />
<glyph unicode="3" horiz-adv-x="989" d="M82 229q0 25 8 25q10 0 19 -27q4 -16 10 -34q35 -80 133 -125q86 -39 188 -39q156 0 240 98q74 84 74 203q0 379 -359 415h-92q-23 0 -22 23q0 25 55 25q145 0 231 38q166 76 166 295q0 119 -94 199t-217 80q-147 0 -248 -123q-16 -20 -35 -80q-8 -25 -10 -24q-8 0 -8 12 q0 27 2 76t2 73v29q-2 18 -2 27q0 10 6 12t17.5 -1t15.5 -3t139 37q98 27 162 26q156 0 280 -90q135 -100 136 -250q0 -125 -101 -221q-72 -68 -164 -102q-10 -4 -10 -10t8 -9q96 -14 187 -110q108 -117 108 -281q0 -205 -147 -319q-133 -106 -336 -107q-125 0 -313 49 q-16 4 -21 33q-2 18 -2 66q0 20 -3 58t-3 56z" />
<glyph unicode="4" horiz-adv-x="1212" d="M41 473q0 2 45 68q33 41 98 121q158 201 478 602q25 31 129 170q23 31 24 30q18 0 19 -24q0 -39 -2.5 -118t-2.5 -120v-614q0 -53 27 -53h133q8 0 54.5 11t50.5 11q16 0 16 -8q0 -2 -10 -21.5t-15 -38.5q-20 -98 -24 -98l-19 25q-18 26 -49 26h-137q-27 0 -27 -24v-205 q0 -197 148 -197q45 0 45 -12q0 -16 -39 -16q-33 0 -117 6t-116 6q-37 0 -111 -5t-111 -5q-35 0 -34 12q0 10 22 12h29q63 10 86 23q68 41 67 143v232q0 31 -26 30h-613q-18 0 -18 31zM176 547q0 -12 17 -12h477q28 0 28 47v592q0 31 -8 30q-8 0 -14 -12q-45 -51 -213 -264 q-63 -80 -182 -230q-35 -41 -86 -108q-18 -31 -19 -43z" />
<glyph unicode="5" horiz-adv-x="1060" d="M102 231q0 41 13 41q14 0 28 -45q18 -66 33 -88q27 -43 117 -76.5t194 -33.5q135 0 227.5 97t92.5 259q0 397 -643 481q-20 2 -21 15q0 16 7 47l67 338q8 55 23 137q6 31 65 31h404q31 0 92 5t92 5q8 0 8 -6l-16 -90q-6 -35 -6 -60.5t-13 -25.5l-10 26q-20 55 -223 55 h-279q-33 0 -45 -7t-18 -38l-55 -307q-2 -12 16 -14q53 -6 162 -23q219 -43 372 -168q172 -141 172 -325q0 -252 -167 -383q-141 -111 -349 -111q-37 0 -252 33q-55 8 -59 10q-25 10 -25 45q0 29 -2 88.5t-2 87.5z" />
<glyph unicode="6" horiz-adv-x="1265" d="M102 600q0 438 242 678q188 188 420 188q139 0 276 -28q20 -4 21 -21q0 -6 -2 -20v-21q0 -20 6 -64t6 -65q0 -18 -10 -18q-2 0 -8 22q-20 68 -88 109q-76 47 -185 47q-184 0 -321 -137q-186 -186 -187 -580q0 -301 134 -485q127 -176 313 -176q293 0 293 383 q0 193 -82 325q-90 145 -242 146q-47 0 -85 -17.5t-77 -36.5q-6 -4 -14 -4t-8 9q0 8 22 24q76 51 191 51q180 0 313 -126t133 -302q0 -240 -123 -375q-129 -139 -368 -139q-244 0 -416 217q-154 195 -154 416z" />
<glyph unicode="7" horiz-adv-x="1013" d="M41 1223q0 35 16.5 102.5t16.5 99.5q0 16 12 17q39 0 114.5 -4t114.5 -4h631q27 -1 27 -21q0 -14 -158 -350q-170 -360 -188 -414q-162 -453 -207 -704q-25 6 -103 37q-43 20 -69 47q49 186 180 499q37 90 154 308q119 225 213 378q49 80 49 119q0 10 -23 10h-542 q-158 0 -195 -67q-6 -10 -14 -49q-6 -29 -15 -29q-14 0 -14 25z" />
<glyph unicode="8" horiz-adv-x="1132" d="M102 358q0 217 226 344q47 20 110 58q-33 18 -84 49q-193 121 -192 303q0 354 405 354q156 0 279 -88q129 -96 129 -237q0 -109 -49 -174q-39 -53 -146 -115q-18 -10 -63 -31q-33 -14 -33 -18q0 -2 12 -8q162 -76 240 -166q94 -111 94 -271q0 -182 -139 -290 q-129 -98 -313 -99q-197 0 -326 90q-150 102 -150 299zM223 401q0 -154 103 -260q106 -113 274 -112q121 0 217 71q107 78 107 199q0 127 -105 229q-70 66 -217 146q-98 53 -108 53t-48 -20q-111 -59 -159 -117q-63 -78 -64 -189zM274 1180q0 -117 103 -207q63 -55 207 -123 q25 -12 32 -12q16 0 46 16q109 61 145 98q57 57 57 135q0 123 -101 220.5t-239 97.5q-100 0 -172 -62q-78 -63 -78 -163z" />
<glyph unicode="9" horiz-adv-x="1265" d="M102 952q0 238 137.5 376t362.5 138q231 0 402 -204q159 -192 159 -428q0 -442 -233 -678q-188 -188 -438 -189q-158 0 -302 37q-2 0 -8 55q-4 41 -4 181q0 18 10 18q16 0 27 -33l29 -82q14 -35 94 -71q90 -41 188 -41q180 0 303 139q172 190 172 598q0 264 -129 450.5 t-294 186.5q-324 0 -324 -383q0 -190 82 -324q90 -147 242 -147q76 0 155 53q10 6 19 6q10 0 10 -10q0 -4 -10 -14q-76 -61 -199 -62q-182 0 -316.5 126t-134.5 302z" />
<glyph unicode=":" horiz-adv-x="440" d="M123 158q0 41 27.5 69.5t70.5 28.5q96 0 96 -92q0 -45 -26.5 -75t-71.5 -30q-43 0 -69.5 28t-26.5 71zM123 817q0 41 28.5 69.5t69.5 28.5q96 0 96 -92q0 -45 -26.5 -75.5t-71.5 -30.5q-96 0 -96 100z" />
<glyph unicode=";" horiz-adv-x="440" d="M123 817q0 41 28.5 69.5t69.5 28.5q96 0 96 -92q0 -45 -27.5 -75.5t-70.5 -30.5t-69.5 28.5t-26.5 71.5zM147 129q0 20 43 59t66 39q12 0 35.5 -47t23.5 -65q0 -45 -53 -146q-47 -88 -86 -131q-14 -16 -18 -16q-6 2 -6 6q0 -6 29.5 55.5t29.5 108.5q0 51 -32 93t-32 44z " />
<glyph unicode="&#x3c;" horiz-adv-x="1402" d="M0 457q0 23 27 22q8 0 17 -4t17 -4q12 0 41 27q37 37 43 41q39 27 113 32q61 0 121 2q96 2 115 37q55 109 168 109q115 0 190.5 -78t81.5 -213q2 -29 43 -29q31 0 35 5.5t4 37.5q0 123 61 222q70 109 180 124q18 2 19 17q0 27 -92 88t-92 100t57 39q92 0 178 -131 q74 -117 74 -199q0 -152 -88 -231q-78 -70 -242 -98q-12 -2 -12 -37q0 -61 28 -148q41 -119 109 -118q39 0 39 32q0 4 -8 33t-8 35q0 80 81 80q47 0 75 -33t28 -80q0 -68 -55 -106q-45 -31 -103 -31q-104 0 -166 119q-49 92 -61 229q-2 18 -37 19q-47 0 -51 -13 q-74 -246 -264 -245q-154 0 -195 127q-12 39 -129 59q-147 27 -184 47q-16 10 -51 52t-46 42q-12 0 -20 -2t-14 -2q-27 0 -27 25zM539 254q0 -41 57 -41q80 0 135 76q49 67 49 139q0 61 -56 127t-114 66q-47 0 -47 -35q0 -14 47 -52t47 -102q0 -59 -30 -96q-14 -16 -58 -45 q-31 -20 -30 -37zM1051 451q0 -43 14 -43q109 6 192 67q93 70 93 170q0 109 -52 109q-119 0 -186 -97q-61 -86 -61 -206z" />
<glyph unicode="=" horiz-adv-x="1032" d="M0 156q0 104 119 168q92 49 229 61q18 2 19 35q0 47 -13 51q-246 74 -245 266q0 152 127 193q39 12 59 131q27 147 47 184q10 16 53 53q41 31 41 41q0 12 -2 20.5t-2 14.5q0 29 25 29q23 0 22 -27q0 -8 -4 -18t-4 -19q0 -12 27 -39q37 -37 41 -43q27 -39 32 -112 q0 -61 2 -123q2 -96 37 -115q109 -55 109 -166q0 -115 -78 -190.5t-213 -81.5q-29 -2 -29 -43q0 -31 5.5 -35t37.5 -4q123 0 222 -61q109 -70 124 -181q2 -18 17 -18q27 0 88 91t100 91t39 -55q0 -92 -131 -178q-117 -74 -199 -74q-152 0 -231 88q-70 78 -98 242 q-2 10 -37 10q-61 0 -148 -29q-119 -39 -118 -106q0 -41 32 -41q4 0 33 9t35 9q80 0 80 -82q0 -47 -33 -74.5t-80 -27.5q-68 0 -106 55q-31 45 -31 101zM213 805q0 -80 76 -135q68 -49 139 -49q61 0 127 56.5t66 113.5q0 47 -35 47q-14 0 -52 -46.5t-102 -46.5q-59 0 -96 31 q-16 14 -45 55q-20 31 -37 31q-41 0 -41 -57zM408 336q6 -109 67 -193q70 -92 170 -92q109 0 109 51q0 119 -97 187q-86 61 -206 61q-43 0 -43 -14z" />
<glyph unicode="&#x3e;" horiz-adv-x="1402" d="M0 137q0 47 27.5 80t74.5 33q82 0 82 -80q0 -6 -9 -35t-9 -33q0 -33 41 -32q68 0 106 118q29 86 29 148q0 35 -10 37q-164 29 -242 98q-88 80 -88 231q0 82 74 199q86 131 178 131q55 0 55 -39t-91 -100.5t-91 -87.5q0 -14 18 -17q111 -16 181 -124q61 -98 61 -222 q0 -33 4 -38t35 -5q41 0 43 29q6 135 82 213t190 78q111 0 166 -109q16 -31 88 -37h109q109 -2 153 -34q6 -4 43 -41q27 -27 39 -27q8 0 18.5 4t18.5 4q27 1 27 -22q0 -25 -29 -25q-6 0 -14 2t-21 2q-10 0 -41 -41q-37 -43 -53 -53q-37 -20 -184 -47q-119 -20 -131 -59 q-41 -127 -193 -127q-193 0 -266 245q-4 12 -51 13q-33 0 -35 -19q-12 -137 -61 -229q-63 -119 -168 -119q-55 0 -101 31q-55 39 -55 106zM51 645q0 -100 92 -170q84 -61 193 -67q14 0 14 43q0 121 -61 206q-68 96 -187 97q-51 0 -51 -109zM621 428q0 -72 49 -139 q55 -76 135 -76q57 0 57 41q0 16 -31 37q-41 29 -55 45q-31 37 -31 96q0 63 46.5 101t46.5 53q0 35 -47 35q-57 0 -113.5 -66t-56.5 -127z" />
<glyph unicode="?" horiz-adv-x="694" d="M61 1327q0 23 17 47q61 92 221 92q111 0 191.5 -74.5t80.5 -185.5q0 -113 -90 -235q-82 -100 -164 -201q-90 -119 -90 -219q0 -29 31 -56.5t31 -37.5q0 -33 -27 -33q-39 0 -61 63q-20 51 -21 97q0 86 120 286.5t120 323.5q0 211 -201 211q-29 0 -61.5 -19.5t-42.5 -46.5 q-14 -35 -35 -34q-18 0 -19 22zM176 104q0 45 27.5 76t70.5 31q97 0 97 -98q0 -47 -27 -80t-72 -33q-43 0 -69.5 30.5t-26.5 73.5z" />
<glyph unicode="@" horiz-adv-x="1644" d="M0 729q0 41 28.5 85t67.5 44q41 0 41 -39q0 -12 -12 -19t-12 -16q0 -88 104 -202q88 -94 191.5 -155.5t209.5 -184.5q88 -100 107 -101q10 0 16 31q-8 29 -6 88q8 27 35 66q43 61 43 63l-115 864q0 49 45 115t88 66q39 0 80 -52q51 -63 52 -157q0 -35 -63.5 -355.5 t-63.5 -363.5l-7 -139l15 -15q14 0 22 15q100 246 127 323q84 240 84 393q0 88 -36.5 125t-36.5 47q0 12 33.5 30t49.5 18q86 0 142 -82q49 -72 49 -156q0 -121 -107 -305q-66 -113 -194 -287q-106 -139 -107 -154q12 -18 29 -65q2 -14 -9 -47t-11 -41q0 -25 12 -37 q123 127 229 197q98 49 287 174q141 119 141 233q0 16 -8 32.5t-8 27.5q0 10 33 10t56.5 -36t23.5 -83q0 -160 -138 -254q-78 -53 -254 -104q-137 -41 -137 -70q0 -8 18.5 -21.5t26.5 -25.5q-4 -8 -35.5 -18.5t-38.5 -16.5q-94 -121 -112 -135q-39 -39 -96 -39 q-23 0 -46.5 17.5t-27.5 17.5q-10 0 -30.5 -17.5t-31.5 -17.5q-63 0 -104 37q-25 23 -61.5 84t-65.5 84q-23 8 -61 22q14 16 45 29q23 8 22 20q0 10 -22 25q-231 90 -318 148q-178 119 -178 280zM145 993q0 80 37 144q41 74 109 73q16 0 35.5 -10t19.5 -24q0 2 -24.5 -40 t-24.5 -118q0 -186 158 -422q32 -51 245 -315q-43 23 -98 69q-78 68 -92 78q-365 270 -365 565zM399 1116q0 82 43 146q47 72 123 71q29 0 64 -28.5t35 -44.5q0 -8 -25 -25q-31 -20 -45 -51q-25 -47 -25 -131q0 -123 47 -289q31 -111 86 -248q45 -115 46 -119v-53 q-139 186 -234 383q-115 236 -115 389zM924 266q6 43 53 82q147 119 262 305q121 197 121 338q0 88 -20.5 126t-20.5 46q0 14 57 15q53 0 99 -76q41 -68 41 -125q0 -131 -95 -277q-66 -102 -192 -206q-137 -109 -273 -220q-10 -4 -32 -8z" />
<glyph unicode="A" d="M-41 6q0 6 25.5 12t38.5 15q49 37 92 143q74 195 229 582q113 268 250 635q10 29 33 86q12 26 21 26h1q10 0 27 -37q2 -2 96 -249q127 -346 385 -1035q23 -61 51 -110q23 -41 66 -56q57 -18 57 -16q0 -10 -14 -10q-33 0 -98.5 4t-98.5 4q-27 0 -82 -3t-82 -3q-37 0 -36 6 q0 6 26 12q18 2 37 6q45 14 45 72q0 43 -24 111l-84 229q-25 68 -31 74q-16 18 -76 18h-410q-47 0 -60 -8t-30 -51l-86 -234q-33 -88 -32 -133q0 -51 38 -73q2 0 29 -9q20 -4 21 -10q0 -10 -21 -10q-20 0 -71.5 3t-71.5 3q-25 0 -66 -3t-65 -3q-29 0 -29 12zM375 610 q0 -12 26 -12h398q51 0 51 18q0 4 -109 302q-31 88 -100 262q-12 28 -22 28h-1q-8 0 -18 -22q-27 -53 -106 -260q-119 -305 -119 -316z" />
<glyph unicode="B" horiz-adv-x="1187" d="M133 4q0 8 33 10q18 2 39 4q43 8 63 52q27 55 27 342v856q0 151 -89 151h-1q-6 0 -19 -2h-18q-14 0 -14 10q0 14 51 15q27 0 81 -4t81 -4q33 0 100.5 4t99.5 4q150 0 257.5 -90t107.5 -236q0 -244 -168 -340q-25 -14 -25 -20q0 -4 43 -19q139 -47 224 -143 q90 -105 90 -244q0 -133 -82 -215q-149 -149 -382 -149h-3q-49 0 -133 7t-134 7q-31 0 -103.5 -3t-102.5 -3q-23 0 -23 10zM426 303q0 -174 25 -211q43 -63 180 -63q152 0 239 67q99 74 99 221q0 193 -158 297q-135 92 -336 93q-49 0 -49 -39v-365zM426 838q0 -37 16 -45 q39 -18 164 -19h47q82 0 129 77.5t47 186.5q0 135 -99 236.5t-234 101.5q-51 0 -62 -20q-8 -12 -8 -68v-450z" />
<glyph unicode="C" horiz-adv-x="1413" d="M82 731q0 150 53 293q164 442 651 442q172 0 322 -30q6 -2 92 -25q66 -16 86 -16q6 0 12.5 5t10.5 5q6 0 6 -23q0 -14 -3 -41.5t-3 -42.5q0 -20 3 -59t3 -59q0 -31 -8 -31q-6 0 -23 41q0 2 -16 33q-12 25 -47 55q-143 127 -478 127q-252 0 -389 -188q-121 -166 -121 -431 q0 -309 177 -526q190 -233 493 -233q176 0 303 92q59 43 78 86q23 51 25 51q8 0 8 -25q0 -27 -12 -81q-16 -78 -19 -84q-4 -23 -6 -27t-18 -10q-162 -61 -418 -62q-358 0 -560 202t-202 562z" />
<glyph unicode="D" horiz-adv-x="1615" d="M137 4q0 4 43 12q68 12 86 47q29 53 29 252v942q0 158 -129 158q-20 0 -21 12q0 14 52 15q27 0 79 -4t78 -4q74 0 220.5 7t220.5 7q250 0 401 -84q160 -88 248 -262q82 -164 82 -354q0 -350 -193 -553q-199 -211 -549 -211q-70 0 -211 8t-211 8q-33 0 -98 -4t-98 -4 q-29 0 -29 12zM426 469q0 -322 31 -350q6 -6 39 -23q115 -57 317 -57q578 0 578 651q0 190 -88 359q-92 176 -254 264q-141 78 -349 78q-104 0 -151 -2q-80 -4 -92 -11q-31 -14 -31 -78v-831z" />
<glyph unicode="E" horiz-adv-x="1110" d="M133 4q0 8 33 12q20 2 41 4q47 12 61 50q27 70 27 514v694q0 147 -125 147q-18 0 -18 9q0 10 20 10q29 0 88 -5t88 -5q80 0 241 5t240 5q18 0 52 2t53 2q8 0 8 -18v-17q-2 -10 -2 -14q0 -18 2 -53.5t2 -53.5q0 -12 -8 -12t-16 14q-18 33 -33 43q-8 4 -52 16.5t-116 12.5 h-248q-29 0 -37 -5t-8 -34v-483q0 -27 5 -34t30 -7h233q94 0 119 22q18 16 27 39q14 43 16 43q10 0 10 -39q0 -16 -3 -45.5t-3 -46.5q0 -25 2 -73t2 -72q0 -20 -8 -21q-6 0 -8 17q-2 10 -6 24.5t-19 32.5q-23 29 -102 29h-264q-31 0 -31 -37v-479q0 -53 29 -80 q41 -39 200 -39q182 0 236 74q6 10 20 30h4q8 0 9 -8q0 -20 -22.5 -87t-37 -80t-51.5 -13q-70 0 -208 3t-208 3q-37 0 -112.5 -3t-112.5 -3q-39 0 -39 10z" />
<glyph unicode="F" horiz-adv-x="1067" d="M141 1434q0 10 27 10q39 0 114.5 -5t114.5 -5q289 0 434 8q12 0 44 4t49 4q4 0 4 -14q0 -6 -2 -21v-20q0 -20 6 -60.5t6 -60.5q0 -18 -10 -19q-8 0 -8 23q0 45 -95 70q-68 16 -135 16h-219q-33 0 -39 -12.5t-6 -32.5v-510q0 -27 41 -27h149q147 0 191 43q10 10 24 56 q10 37 19 37q6 0 6 -21q0 -25 -6 -71t-6 -70q0 -33 5 -98.5t5 -98.5q0 -29 -8 -29q-10 0 -15 48q-2 55 -22 75q-45 45 -180 45h-170q-33 0 -33 -28v-373q0 -199 35 -248q20 -29 76 -35q31 -4 30 -10q0 -10 -28 -10q-29 0 -84.5 3t-83.5 3q-33 0 -96.5 -5t-96.5 -5 q-25 0 -24 14q0 4 28.5 11.5t30.5 7.5q27 12 48.5 54t25.5 171q8 340 8 622v387q0 131 -84 158q-18 2 -39 6q-31 4 -31 13z" />
<glyph unicode="G" horiz-adv-x="1511" d="M82 745q0 213 111 396q115 193 303 272q125 53 335 53q160 0 291 -30q4 -2 90 -27q59 -18 86 -18q33 0 49.5 11t18.5 11q8 2 8 -2q0 -16 -6 -61l-8 -60v-20q0 -53 -8 -144q-2 -16 -9 -16q-18 0 -18 27q0 49 -51 106q-70 78 -211 123q-121 37 -242 37q-184 0 -307 -57 q-143 -68 -217 -220q-63 -133 -64 -307q0 -434 261 -647q178 -145 407 -145q156 0 242 63q59 43 59 279v168q0 84 -28 108q-16 14 -48 29q-16 6 -32 10q-25 8 -25 16q0 12 25 13q37 0 111.5 -7.5t111.5 -7.5q23 0 65.5 3.5t65.5 3.5q16 -1 16 -11q0 -4 -32.5 -14t-38.5 -14 q-45 -29 -54 -187v-200q0 -33 2 -101v-98q0 -14 -18 -27q-51 -37 -205 -63q-129 -23 -219 -23q-817 0 -817 778z" />
<glyph unicode="H" horiz-adv-x="1757" d="M166 1438q0 6 18 6q33 0 95.5 -5t95.5 -5q27 0 77 6t74 6q29 0 29 -14q0 -4 -12 -7q-39 -4 -72 -26q-20 -14 -35 -84q-10 -55 -10 -96v-388q0 -27 5 -33.5t30 -6.5h872q25 0 31 7t6 33v426q0 98 -45 138q-12 10 -48 19t-36 18q0 10 49 10q25 0 78 -4t78 -4q29 0 81 6 t81 6q27 0 26 -10q0 -6 -37.5 -17.5t-60.5 -36.5q-35 -37 -35 -198v-604q0 -418 29 -496q20 -55 100 -68q12 -2 12 -10q0 -12 -59 -12q-23 0 -66.5 3t-66.5 3q-31 0 -92.5 -3t-91.5 -3q-14 0 -15 8q0 6 25 10q33 8 47 21q27 25 35 49q12 43 12 207v375q0 39 -39 38h-868 q-37 0 -37 -38v-439q0 -145 49 -188q16 -14 41 -21q39 -6 45 -8t6 -8q0 -10 -18 -10q-25 0 -76 5t-117 5q-25 0 -74 -4t-73 -4q-18 0 -19 10q0 6 23 12l27 9q29 12 42 49t13 166v1017q0 129 -80 162q-14 4 -29 6q-20 6 -20 15z" />
<glyph unicode="I" horiz-adv-x="741" d="M143 1434q0 8 35 8q27 0 78 -4t78 -4q31 0 93 7t93 7q39 0 39 -12q0 -6 -33 -15q-41 -12 -51 -18q-49 -31 -49 -160v-956q0 -113 4 -140q12 -82 62 -116q18 -12 63 -17q37 -4 37 -12q0 -10 -17 -10q-31 0 -94 4t-96 4q-35 0 -102.5 -2t-100.5 -2q-27 0 -26 10q0 10 26 10 q47 0 74 31q39 45 39 203v999q0 123 -51 152q-10 6 -60 16q-41 8 -41 17z" />
<glyph unicode="J" horiz-adv-x="686" d="M-27 -276q0 8 17.5 35.5t19.5 29.5q10 33 21 66q16 49 32 49q14 0 15 -15q0 -4 -7.5 -17t-7.5 -19q0 -10 17 -31q61 -78 162 -78q27 0 46 27.5t19 504.5v836q0 92 -8 171t-47 110q-18 16 -68 26q-41 8 -41 13q0 10 54 10q31 0 91 -4t91 -4t95.5 4t94.5 4q25 -1 25 -15 q0 -4 -21 -8q-51 -8 -69 -18q-33 -14 -43 -53q-23 -78 -23 -336v-996q0 -25 2 -71.5t2 -71.5q0 -86 -112 -154q-100 -57 -195 -57q-27 0 -90 21q-72 23 -72 41z" />
<glyph unicode="K" horiz-adv-x="1372" d="M156 2q0 6 22 10q16 2 31 4q37 10 61.5 52.5t24.5 277.5v918q0 111 -62 145q-18 10 -55 14q-16 2 -16 7q0 12 47 12q27 0 79 -4t81 -4q27 0 82 4t81 4q29 0 29 -8t-22 -13q-14 -2 -29 -4q-70 -25 -78 -143q-6 -100 -6 -389v-123q0 -12 6 -12q8 0 180 157l322 295 q135 125 135 164q0 41 -39 49t-39 15q0 10 29 10q27 0 83 -3t83 -3q82 0 135 4t61 4q20 0 21 -6q0 -8 -29 -17q-20 -4 -41 -10q-82 -33 -217 -156l-510 -462q-20 -18 -20 -27q0 -10 24 -33l555 -526q156 -147 234 -176q25 -8 49 -13q16 0 31 -2q22 -2 22 -12q0 -14 -92 -14 q-29 0 -87 3t-87 3q-6 0 -19.5 -2t-19.5 -2q-12 0 -31 18l-602 576q-127 121 -129 121q-8 0 -8 -17v-491q0 -119 53 -158q41 -31 80 -31q27 0 27 -12q0 -10 -15 -10q-6 0 -67 6q-82 8 -133 8q-35 0 -99.5 -4t-97.5 -4q-18 0 -18 10z" />
<glyph unicode="L" horiz-adv-x="999" d="M168 4q0 8 14 10h17q47 10 65 47q31 61 31 263v927q0 96 -35 140q-16 20 -72 32q-20 6 -20 11q0 8 25 8q29 0 85 -4t84 -4q29 0 85.5 4t84.5 4q12 0 13 -10q0 -8 -27 -15q-47 -12 -65 -37q-27 -35 -27 -108v-885q0 -57 6 -165.5t68 -123.5q102 -24 218 -24h9 q127 0 170 30q25 27 72 80l4 4q10 0 10 -8q0 4 -31 -98q-6 -25 -16 -72q-4 -14 -16 -14q-90 0 -269.5 2t-269.5 2q-31 0 -92.5 -2t-91.5 -2q-29 0 -29 8z" />
<glyph unicode="M" horiz-adv-x="1855" d="M82 -2q0 4 18 8q37 6 60 23q55 41 76 225q29 295 92 885l34 295q4 33 17 32q10 0 25.5 -31.5t44.5 -93.5q68 -145 200 -434l242 -524q10 -27 35 -76q16 -29 24 -28q10 0 25 26q29 66 88 195l190 413q72 152 213 455q12 29 39 86q10 18 17 19q12 0 14 -29l33 -379 q80 -920 114 -987q20 -39 54 -55l32 -11q27 -8 27 -12q0 -10 -55 -10q-35 0 -102.5 5t-102.5 5q-25 0 -75 -2t-75 -2q-16 0 -16 8q0 4 25.5 6t60.5 23q53 31 53 174q0 27 -10 160l-51 661q-4 41 -21 41q-6 0 -16 -16q-2 -4 -53 -115l-334 -727q-25 -59 -78 -172 q-14 -29 -24 -29t-25 29l-86 194q-55 127 -170 381q-63 141 -199 418q-18 35 -28 35t-13 -35l-51 -690q-8 -111 -8 -174q0 -109 45 -137q27 -16 51 -21q33 -4 41 -7t8 -9t-30 -6q-29 0 -87.5 6t-86.5 6q-29 0 -85.5 -5t-84.5 -5q-31 0 -31 8z" />
<glyph unicode="N" horiz-adv-x="1740" d="M123 0q0 8 31 12q39 8 51 17q49 35 49 221v1081q0 125 16 125t78 -67q285 -313 492 -537l352 -383q59 -66 180 -197q23 -25 31 -24q10 0 10 53v14l-12 807q-4 223 -35 264q-25 31 -66 41q-29 6 -28 11q0 10 18 10q25 0 75 -7t75 -7t76 5t75 5q27 0 27 -8q0 -4 -29 -13 q-35 -10 -43 -16q-39 -23 -39 -272v-1106q0 -70 -12 -70q-16 0 -111 102l-811 879q-45 51 -135 150q-38 40 -60 40h-1q-8 0 -8 -43v-843q0 -162 59 -207q25 -18 54 -23l30 -6q0 -18 -39 -18q-27 0 -81 5t-81 5t-78 -3t-77 -3q-33 0 -33 6z" />
<glyph unicode="O" horiz-adv-x="1576" d="M82 705q0 131 22 221q59 236 232 385q181 155 417 155h3q172 0 276 -36q213 -76 338 -264.5t125 -417.5q0 -338 -166 -549q-184 -231 -512 -232q-330 0 -532.5 204t-202.5 534zM233 782q0 -295 150 -510q169 -243 451 -243h2q246 0 385 159q131 152 131 402 q0 313 -138 543q-164 272 -456 272q-260 0 -400 -188q-125 -166 -125 -435z" />
<glyph unicode="P" horiz-adv-x="1175" d="M188 12q47 10 74 45q33 45 33 238v967q0 117 -62 149q-8 4 -34.5 10t-26.5 11q0 10 14 10q23 0 68 -4t68 -4q14 0 153 8q70 4 172 4q125 0 205 -31q117 -45 184.5 -137t67.5 -215q0 -188 -100 -318q-109 -141 -289 -141q-27 0 -74 8q-59 8 -59 21q0 6 6 6q16 0 48 -6 t48 -6q104 0 177 73.5t87 176.5q6 41 6 92q0 365 -290 405q-53 8 -117 8q-59 0 -82 -2q-39 -4 -39 -245v-668q0 -375 33 -412q41 -47 121 -47q20 0 20 -10q0 -12 -57 -12q-33 0 -90.5 7t-90.5 7q-27 0 -90 -5t-90 -5q-28 0 -28 7q0 9 34 15z" />
<glyph unicode="Q" horiz-adv-x="1601" d="M82 705q0 129 22 221q61 246 236.5 393t415.5 147q332 0 536.5 -204.5t204.5 -538.5q0 -297 -158 -510q-29 -39 -61 -72q-14 -14 -14 -20t16 -15q68 -35 205 -106q248 -129 368 -182q244 -104 388 -105q23 0 66.5 6.5t66.5 6.5q10 -1 10 -5q0 -14 -94 -43 q-74 -23 -111 -28q-70 -12 -125 -12q-147 0 -444 151q-213 119 -426 236q-31 16 -41 16q2 0 -23 -10q-152 -63 -303 -64q-334 0 -534.5 202t-200.5 536zM231 788q0 -295 152 -514q169 -245 451 -245h2q176 0 299 84q219 149 219 483q0 309 -135 534q-166 274 -467 275 q-252 0 -394 -186q-127 -170 -127 -431z" />
<glyph unicode="R" horiz-adv-x="1497" d="M143 1430q0 12 21 12q33 0 96.5 -4t95.5 -4q43 0 131 7t131 7q186 0 304 -82q135 -96 135 -274q0 -109 -59.5 -217.5t-149.5 -174.5q-8 -14 -8 -20q0 -10 14 -29l276 -372q63 -86 140 -158q109 -100 176 -101q6 0 17.5 2.5t17.5 2.5q16 -1 16 -13q0 -16 -43 -16 q-166 0 -227 18q-106 29 -180 136l-216 305q-35 53 -69 106q-49 63 -103 64h-204q-29 0 -29 -27v-276q0 -193 33 -254q16 -29 53 -45q23 -4 68 -13q8 -2 8 -6q0 -12 -33 -12q-29 0 -88 4t-88 4t-84 -3t-84 -3q-51 0 -51 6q0 10 28 16q37 8 45 15q61 45 62 170v1071 q0 74 -35 110q-23 23 -92 39q-25 6 -25 9zM426 721q0 -31 149 -31h89q82 0 108 12q74 35 117 138q37 86 37 180q0 162 -103.5 256t-267.5 94h-61q-68 0 -68 -100v-549z" />
<glyph unicode="S" horiz-adv-x="972" d="M102 190q0 90 13 91q2 0 4 -2q4 -25 10 -60q4 -20 12 -37q72 -153 309 -153h3q109 0 180 47q57 39 95 109.5t38 138.5q0 156 -207 284l-219 137q-211 131 -211 371q0 90 44 173t120 126q92 51 239 51q59 0 166 -16q80 -12 93 -12q20 0 30 5t15 5q6 0 6 -8t-5.5 -25.5 t-5.5 -25.5q0 -16 2.5 -48t2.5 -49q0 -98 -19 -98l-14 55q-12 47 -55 86q-86 76 -248 76q-113 0 -187 -61q-82 -66 -82 -174q0 -174 211 -308l211 -133q109 -70 158 -137q59 -84 59 -201q0 -207 -180 -344q-113 -86 -266 -86q-170 0 -291 49q-29 12 -29 25v76q-2 49 -2 73z " />
<glyph unicode="T" horiz-adv-x="1218" d="M35 1298q0 12 14 56q16 51 19 57l12 49q10 0 30.5 -6t26.5 -8q72 -12 172 -12h654q37 0 109.5 4t109.5 4q6 0 6 -8v2q-2 0 -19 -93q-2 -18 -6 -55q-2 -18 -6 -18q-6 10 -16 24q-18 25 -88 39q-49 10 -211 10h-125q-27 0 -29 -36q-4 -72 -4 -185v-766q0 -248 32 -296 t81 -48q8 0 22 2h23q14 0 14 -10t-55 -10q-29 0 -87.5 3t-86.5 3q-37 0 -107.5 -5t-107.5 -5q-12 0 -13 4q0 8 45 14q76 10 92.5 56.5t16.5 302.5v923q0 53 -41 53h-365q-47 0 -71 -16q-14 -10 -21 -28.5t-10 -18.5q-10 0 -10 18z" />
<glyph unicode="U" horiz-adv-x="1644" d="M92 1427q0 14 27 15q31 0 90 -4t90 -4q35 0 102.5 5t100.5 5q16 0 16 -10q0 -4 -26 -11q-35 -8 -37 -10q-90 -39 -90 -401v-529q0 -186 59 -272q119 -170 383 -170q524 0 524 442v398q0 465 -49 499q-41 31 -119 37q-14 2 -14 4q0 20 35 21q31 0 94 -4t94 -4q29 0 84 2 t84 2q23 -1 23 -17q0 -6 -25 -6q-88 0 -111 -112q-8 -37 -8 -181v-587q0 -299 -157 -439q-150 -129 -455 -129q-582 0 -582 463v803q0 127 -20.5 147.5t-81.5 34.5q-31 8 -31 12z" />
<glyph unicode="V" horiz-adv-x="1396" d="M-61 1432q0 10 16 10q35 0 104.5 -4t104.5 -4q29 0 81 5t77 5q10 0 10 -8q0 4 -33 -19q-25 -16 -25 -49q0 -63 244 -666q66 -164 121 -292q20 -51 63 -148q12 -23 19 -22q10 0 22 26q4 8 93 215q96 225 182 432q47 111 137 332q25 63 25 109q0 37 -25 53q-2 2 -21.5 8 t-19.5 12q0 10 21 11q25 0 71.5 -2t71.5 -2t73 5t72 5q35 0 35 -12q0 -6 -18 -7q-41 -2 -72 -22q-55 -37 -121 -189l-534 -1234q-6 -16 -13 -17q-6 0 -14 17q-10 25 -33 75l-274 631q-76 184 -232 551q-14 41 -53 117q-44 71 -142 71h-3q-10 0 -10 7z" />
<glyph unicode="W" horiz-adv-x="2146" d="M-41 1427q0 18 45 19q33 0 100.5 -6t100.5 -6q27 0 78 5t75 5q47 0 48 -17q0 -4 -25 -8q-31 -6 -45 -14q-31 -18 -31 -53q0 -45 107 -308l315 -774q14 -33 25 -32q10 0 24 32l234 543q31 72 30 74q0 10 -20 59l-125 297q-20 51 -68 125q-37 33 -87 46t-50 11q0 18 29 19 q29 0 87 -5t87 -5t85 5t85 5q45 0 45 -19q0 -4 -23.5 -4t-41 -25.5t-17.5 -49.5q0 -49 68 -216l358 -876q14 -33 21 -33q2 0 18 39l354 834q76 178 76 233q0 63 -41 84q-2 2 -24.5 6t-22.5 8q0 16 29 17q20 0 63 -4t66 -4q29 0 87 4t87 4q22 0 22 -8q0 -4 -28.5 -13.5 t-32.5 -11.5q-68 -47 -146 -229l-505 -1176q-14 -35 -31 -35q-12 0 -25 29l-313 733q-12 29 -19 29q-6 0 -18 -27q-102 -246 -313 -733q-14 -33 -25 -33q-8 0 -20 29l-478 1110q-49 113 -59 133q-45 96 -72 121q-43 39 -86 53q-20 4 -55 12q-2 0 -2 2z" />
<glyph unicode="X" horiz-adv-x="1312" d="M27 -4q0 8 35.5 8t95.5 33q51 29 100 113q324 549 324 567q0 39 -215 413q-45 80 -107 179q-51 84 -113 106q-16 6 -69 6q-10 0 -10 6q0 14 24 15q37 0 113 -4t112 -4q59 0 109 4q62 5 62 6h-1q14 0 15 -10q0 -2 -4 -4q-16 -2 -47 -13q-35 -16 -35 -45q0 -49 28 -104 l201 -394q10 -20 14 -20q6 0 15 16l209 379q45 82 45 125q0 35 -35 49l-21 5q-22 4 -22 8q0 8 22 8q25 0 75 -5t75 -5q29 0 87 6t87 6q23 0 23 -10q0 -4 -5 -6q-29 -4 -84 -25q-72 -43 -131 -145l-286 -488q-2 -4 -2 -10t311 -576q96 -176 254 -176q10 0 10 -6 q0 -14 -55 -14q-39 0 -115 5t-115 5q-25 0 -74.5 -2t-74.5 -2q-18 0 -18 8q0 2 35.5 17.5t35.5 35.5q0 61 -47 150l-207 387q-10 18 -18 18q-10 0 -21 -20l-225 -418q-43 -80 -43 -121q0 -33 51 -47q10 -2 11 -6q0 -8 -21 -8q-23 0 -64.5 4t-64.5 4q-31 0 -94.5 -7t-93.5 -7 q-41 0 -41 10z" />
<glyph unicode="Y" horiz-adv-x="1318" d="M-82 1432q0 14 51 14q29 0 84.5 -6t83.5 -6q27 0 78 7t78 7q43 0 43 -8q0 -2 -33 -14.5t-33 -32.5q0 -51 43 -115l191 -283q51 -74 151 -221q10 -16 21 -16q10 0 22 16l154 215q258 360 258 395q0 39 -31 50q-2 8 17 8q14 0 42.5 -4t43.5 -4q27 0 81 7t80 7q58 0 58 -16 q0 -2 -12 -2q-31 0 -72 -17q-61 -25 -127 -110q-186 -242 -410 -560q-47 -68 -47 -118v-451q0 -80 29 -113q47 -55 119 -55q10 0 10 -6q0 -10 -41 -10q-31 0 -91.5 5t-90.5 5q-29 0 -84.5 -5t-81.5 -5q-43 0 -43 8t28 8q80 0 101 135q4 31 4 68v407q0 29 -37 82l-428 613 q-45 63 -94 88q-8 4 -88 22q-27 6 -27 11z" />
<glyph unicode="Z" horiz-adv-x="1503" d="M72 0q0 12 18 29q12 14 27 26l1016 1254q12 14 12 24q0 16 -37 17h-301l-426 -13q-111 -4 -166 -63q-25 -27 -25 -88q0 -18 -8 -19q-18 0 -18 93q0 25 8 67q10 51 11 67.5t4 30t24 13.5q61 0 186 -2t189 -2h528q43 0 127 3t127 3q25 0 25 -13q0 -6 -33 -36.5t-35 -34.5 l-252 -312l-477 -589q-256 -317 -256 -346q0 -27 211 -27q33 0 96 2h94q582 0 639 45q27 20 47.5 52t38.5 61q4 6 9 6q8 0 8 -4v-15q0 -10 -41 -100q0 -2 -47 -117q-10 -26 -26 -26h-1l-9 2t-130 6q-221 6 -393 6h-652q-16 0 -45.5 -3t-46.5 -3q-20 0 -20 6z" />
<glyph unicode="[" horiz-adv-x="428" d="M123 -78q0 2 2 37t2 76l6 772q0 209 -6 573q0 39 -2 83t-2 48q0 12 18 11q39 -6 70 -6q33 0 139 8q37 2 37 -11q0 -6 -55.5 -14t-69.5 -88q-4 -23 -4 -127v-1053v-168q12 -121 76 -129q53 -8 53 -14q0 -12 -37 -10q-106 8 -139 8q-31 0 -70 -6q-18 -2 -18 10z" />
<glyph unicode="\" horiz-adv-x="901" d="M0 485q0 31 22.5 53.5t53.5 22.5q18 0 53 -20.5t53 -20.5q2 0 8 27q41 170 117 258q14 18 39 47q16 18 16 25q0 27 -8 71.5t-16 44.5l-41 -39q-53 -51 -78 -51q-6 0 -10 12q0 6 13.5 43t15.5 43q18 76 18 340q0 27 -2 41q49 -25 125 -159q80 -145 80 -236v-10 q-63 27 -68 27q-16 0 -16 -13q0 -35 8 -76q4 -23 8 -22q-2 0 23 16q59 39 110 56q41 6 97 16q14 18 36 49q68 55 136 111q90 76 90 127q0 76 -70 75q-53 0 -53 -53q0 -12 2 -20q-2 2 -12.5 14t-10.5 21q0 25 19.5 41t44.5 16q43 0 70.5 -26.5t27.5 -63.5q0 -63 -63 -129 q-25 -25 -117 -94q-63 -49 -64 -74l27 -10q117 -43 117 -129q0 -41 -28 -72t-68 -31q-35 0 -71 40t-36 87q0 35 7 60l7 26q0 2 -41 2q-18 0 -59 -16q-68 -27 -115 -70q-10 -10 -12 -26q-8 -92 -90 -275q-23 -51 -35 -84q-14 -39 -6 -39q2 4 12 15q16 20 76 63q14 8 59 19 q37 8 37 14q0 16 -20.5 35.5t-20.5 36.5q0 6 15 4q125 0 266 -90q123 -76 123 -105q0 -2 -37 14q-61 27 -152 27q-76 0 -149 -37q-14 -8 -29.5 -20.5t-17.5 -12.5q-10 0 -10 11q0 25 18 55.5t18 34.5q0 14 -18 14q-70 0 -134.5 -74.5t-64.5 -144.5q0 -66 43 -151t97 -119 q-14 -16 -31 -27q-68 61 -109 164q-39 96 -39 192q0 84 -14 121q-23 63 -94 64q-55 0 -55 -45q0 -14 24 -17q18 -2 19 -28q0 -20 -23 -21q-16 0 -29.5 18.5t-13.5 36.5zM205 492q0 -53 12 -54q-2 0 39 94q35 78 84 197q10 29 16 74q2 12 0 14t-10 -6q-53 -53 -98 -164 q-43 -102 -43 -155zM291 1249l22 -106q6 -37 11.5 -73t15.5 -36q26 1 16 56t-20 112q-16 70 -43 94q2 -14 -2 -47zM455 526q0 -10 12 -12q10 -2 29 0q27 2 30 2q49 0 95.5 -11t42.5 -11q16 0 16 6q0 12 -57.5 25.5t-100.5 13.5q-68 0 -67 -13zM625 874q0 -37 24.5 -73.5 t61.5 -36.5q67 0 67 88q0 33 -50 63.5t-79 30.5q-25 0 -24 -72z" />
<glyph unicode="]" horiz-adv-x="428" d="M41 -80q0 6 53 14q63 8 76 129v168v1053q0 104 -4 127q-14 80 -69.5 88t-55.5 14q0 12 37 11q106 -8 139 -8q31 0 70 6q18 2 18 -11q0 -4 -2 -48t-2 -83q-6 -365 -6 -573q0 -178 6 -772q0 -41 2 -76t2 -37q0 -12 -18 -10q-39 6 -70 6q-33 0 -139 -8q-37 -2 -37 10z" />
<glyph unicode="^" horiz-adv-x="929" d="M0 848q0 10 14.5 19.5t24.5 9.5q68 0 102 -56q14 -20 39 -104q18 -55 45 -55q8 0 49 71q20 39 43 78q4 4 9 14q0 4 -7 17q-23 43 -22 100q0 53 53 162q0 10 -22 16q-12 2 -25 4q-47 23 -47 86q0 57 -4 70q-12 33 -62 33q-10 0 -32 -8q-14 -4 -15 4q0 18 20.5 33.5 t43.5 15.5q14 0 26.5 -5t16.5 -5t19.5 12t21.5 12q31 0 51 -39q18 -31 18 -55q0 -23 -18 -58.5t-18 -41.5q0 -37 34 -37q27 0 48 35q16 27 16 43t-3 39.5t-3 44.5q0 29 35.5 74.5t54.5 45.5q14 0 22.5 -15t14.5 -15q-4 0 30.5 20.5t94.5 20.5h28q8 -66 -43 -111 q14 -16 15 -31q0 -49 -189 -108q-14 0 -47 -21q-39 -23 -39 -43q0 -33 33 -33q31 0 62.5 34t74.5 34q16 0 27.5 -11t23.5 -24q20 4 52 -14.5t32 -42.5q0 -8 -4 -10q-4 0 -23.5 12t-37.5 12q-27 0 -85.5 -28.5t-72.5 -28.5q-41 0 -66.5 38t-33.5 38q-14 0 -35 -53.5 t-21 -108.5q0 -29 9.5 -58.5t19.5 -29.5q4 2 12 10q59 59 129 88q49 18 129 31q51 8 103 14q182 35 182 180q0 51 -26.5 76t-26.5 23q-2 8 8 8q25 0 48.5 -34t23.5 -83q0 -162 -193 -213q-39 -10 -170 -18q-88 -4 -149 -51q-20 -16 -21 -19q0 -2 4 -2q6 0 39 10.5t47 10.5 q6 0 18.5 2t18.5 2q76 0 139.5 -46.5t63.5 -103.5q0 -27 -25 -67q14 109 -57 108q-4 0 -14 -2t-15 -2q-18 0 -86.5 35t-121.5 35q-41 0 -41 -19q0 -4 26 -39q31 -43 52.5 -84t21.5 -82q0 -2 -2 -24q0 -4 16 -6q84 -8 117 -64q20 -37 27 -119q8 -94 20 -127q14 -41 80 -77 q-41 0 -66 12q-98 49 -108 156q-12 -2 -23 -3q-35 0 -58.5 18.5t-23.5 41.5q0 41 9 41q4 0 16 -7t27 -7q12 0 27.5 12t15.5 26q0 76 -76 76q-4 0 -14 -14q-16 -20 -27 -31q-23 -20 -53 -31q-55 -8 -152 -20q-12 -2 -16 -24.5t-4 -69.5q0 -92 49 -180.5t49 -86.5 q0 -45 -10 -106q-39 78 -78 158q-47 98 -47 184q0 119 49 276q4 12 4 21q0 2 -20.5 12.5t-42.5 18.5q-29 16 -52 43q-2 23 -12 65q-6 16 -47 32.5t-41 37.5zM215 510q0 -12 10 -12q96 0 135 12q84 27 84 113q0 55 -82 163q-8 12 -14 13q-4 0 -16 -13q-35 -33 -76 -130 t-41 -146z" />
<glyph unicode="_" horiz-adv-x="956" d="M8 -324h940v-86h-940v86z" />
<glyph unicode="`" horiz-adv-x="0" d="M770 1665q0 10 57.5 66.5t67.5 56.5q18 0 151.5 -63.5t159.5 -82.5q15 -10 15 -16q0 -10 -11 -10q-2 0 -28 8q-66 20 -201 41q-113 16 -133 16q-10 0 -33.5 -13t-34.5 -13q-10 0 -10 10z" />
<glyph unicode="a" d="M-41 6q0 6 25.5 12t38.5 15q49 37 92 143q74 195 229 582q113 268 250 635q10 29 33 86q12 26 21 26h1q10 0 27 -37q2 -2 96 -249q127 -346 385 -1035q23 -61 51 -110q23 -41 66 -56q57 -18 57 -16q0 -10 -14 -10q-33 0 -98.5 4t-98.5 4q-27 0 -82 -3t-82 -3q-37 0 -36 6 q0 6 26 12q18 2 37 6q45 14 45 72q0 43 -24 111l-84 229q-25 68 -31 74q-16 18 -76 18h-410q-47 0 -60 -8t-30 -51l-86 -234q-33 -88 -32 -133q0 -51 38 -73q2 0 29 -9q20 -4 21 -10q0 -10 -21 -10q-20 0 -71.5 3t-71.5 3q-25 0 -66 -3t-65 -3q-29 0 -29 12zM375 610 q0 -12 26 -12h398q51 0 51 18q0 4 -109 302q-31 88 -100 262q-12 28 -22 28h-1q-8 0 -18 -22q-27 -53 -106 -260q-119 -305 -119 -316z" />
<glyph unicode="b" horiz-adv-x="1187" d="M133 4q0 8 33 10q18 2 39 4q43 8 63 52q27 55 27 342v856q0 151 -89 151h-1q-6 0 -19 -2h-18q-14 0 -14 10q0 14 51 15q27 0 81 -4t81 -4q33 0 100.5 4t99.5 4q150 0 257.5 -90t107.5 -236q0 -244 -168 -340q-25 -14 -25 -20q0 -4 43 -19q139 -47 224 -143 q90 -105 90 -244q0 -133 -82 -215q-149 -149 -382 -149h-3q-49 0 -133 7t-134 7q-31 0 -103.5 -3t-102.5 -3q-23 0 -23 10zM426 303q0 -174 25 -211q43 -63 180 -63q152 0 239 67q99 74 99 221q0 193 -158 297q-135 92 -336 93q-49 0 -49 -39v-365zM426 838q0 -37 16 -45 q39 -18 164 -19h47q82 0 129 77.5t47 186.5q0 135 -99 236.5t-234 101.5q-51 0 -62 -20q-8 -12 -8 -68v-450z" />
<glyph unicode="c" horiz-adv-x="1413" d="M82 731q0 150 53 293q164 442 651 442q172 0 322 -30q6 -2 92 -25q66 -16 86 -16q6 0 12.5 5t10.5 5q6 0 6 -23q0 -14 -3 -41.5t-3 -42.5q0 -20 3 -59t3 -59q0 -31 -8 -31q-6 0 -23 41q0 2 -16 33q-12 25 -47 55q-143 127 -478 127q-252 0 -389 -188q-121 -166 -121 -431 q0 -309 177 -526q190 -233 493 -233q176 0 303 92q59 43 78 86q23 51 25 51q8 0 8 -25q0 -27 -12 -81q-16 -78 -19 -84q-4 -23 -6 -27t-18 -10q-164 -61 -418 -62q-358 0 -560 202t-202 562z" />
<glyph unicode="d" horiz-adv-x="1615" d="M137 4q0 4 43 12q68 12 86 47q29 53 29 252v942q0 158 -129 158q-20 0 -21 12q0 14 52 15q27 0 79 -4t78 -4q74 0 220.5 7t220.5 7q250 0 401 -84q160 -88 248 -262q82 -164 82 -354q0 -350 -193 -553q-199 -211 -549 -211q-70 0 -211 8t-211 8q-33 0 -98 -4t-98 -4 q-29 0 -29 12zM426 469q0 -322 31 -350q6 -6 39 -23q115 -57 317 -57q578 0 578 651q0 190 -88 359q-92 176 -254 264q-141 78 -349 78q-104 0 -151 -2q-80 -4 -92 -11q-31 -14 -31 -78v-831z" />
<glyph unicode="e" horiz-adv-x="1110" d="M133 4q0 8 33 12q20 2 41 4q47 12 61 50q27 70 27 514v694q0 147 -125 147q-18 0 -18 9q0 10 20 10q29 0 88 -5t88 -5q80 0 241 5t240 5q18 0 52 2t53 2q8 0 8 -18v-17q-2 -10 -2 -14q0 -18 2 -53.5t2 -53.5q0 -12 -8 -12t-16 14q-18 33 -33 43q-8 4 -52 16.5t-116 12.5 h-248q-29 0 -37 -5t-8 -34v-483q0 -27 5 -34t30 -7h233q94 0 119 22q18 16 27 39q14 43 16 43q10 0 10 -39q0 -16 -3 -45.5t-3 -46.5q0 -25 2 -73t2 -72q0 -20 -8 -21q-6 0 -8 17q-2 10 -6 24.5t-19 32.5q-23 29 -102 29h-264q-31 0 -31 -37v-479q0 -53 29 -80 q41 -39 200 -39q182 0 236 74q6 10 20 30h4q8 0 9 -8q0 -20 -22.5 -87t-37 -80t-51.5 -13q-70 0 -208 3t-208 3q-37 0 -112.5 -3t-112.5 -3q-39 0 -39 10z" />
<glyph unicode="f" horiz-adv-x="1067" d="M141 1434q0 10 27 10q39 0 114.5 -5t114.5 -5q289 0 434 8q12 0 44 4t49 4q4 0 4 -14q0 -6 -2 -21v-20q0 -20 6 -60.5t6 -60.5q0 -18 -10 -19q-8 0 -8 23q0 45 -95 70q-68 16 -135 16h-219q-33 0 -39 -12.5t-6 -32.5v-510q0 -27 41 -27h149q147 0 191 43q10 10 24 56 q10 37 19 37q6 0 6 -21q0 -25 -6 -71t-6 -70q0 -33 5 -98.5t5 -98.5q0 -29 -8 -29q-10 0 -15 48q-2 55 -22 75q-45 45 -180 45h-170q-33 0 -33 -28v-373q0 -199 35 -248q20 -29 76 -35q31 -4 30 -10q0 -10 -28 -10q-29 0 -84.5 3t-83.5 3q-33 0 -96.5 -5t-96.5 -5 q-25 0 -24 14q0 4 28.5 11.5t30.5 7.5q27 12 48.5 54t25.5 171q8 340 8 622v387q0 131 -84 158q-18 2 -39 6q-31 4 -31 13z" />
<glyph unicode="g" horiz-adv-x="1511" d="M82 745q0 213 111 396q115 193 303 272q125 53 335 53q160 0 291 -30q4 -2 90 -27q59 -18 86 -18q33 0 49.5 11t18.5 11q8 2 8 -2q0 -16 -6 -61l-8 -60v-20q0 -53 -8 -144q-2 -16 -9 -16q-18 0 -18 27q0 49 -51 106q-70 78 -211 123q-121 37 -242 37q-184 0 -307 -57 q-143 -68 -217 -220q-63 -133 -64 -307q0 -434 261 -647q178 -145 407 -145q156 0 242 63q59 43 59 279v168q0 84 -28 108q-16 14 -48 29q-16 6 -32 10q-25 8 -25 16q0 12 25 13q37 0 111.5 -7.5t111.5 -7.5q23 0 65.5 3.5t65.5 3.5q16 -1 16 -11q0 -4 -32.5 -14t-38.5 -14 q-45 -29 -54 -187v-200q0 -33 2 -101v-98q0 -14 -18 -27q-51 -37 -205 -63q-129 -23 -219 -23q-817 0 -817 778z" />
<glyph unicode="h" horiz-adv-x="1757" d="M166 1438q0 6 18 6q33 0 95.5 -5t95.5 -5q27 0 77 6t74 6q29 0 29 -14q0 -4 -12 -7q-39 -4 -72 -26q-20 -14 -35 -84q-10 -55 -10 -96v-388q0 -27 5 -33.5t30 -6.5h872q25 0 31 7t6 33v426q0 98 -45 138q-12 10 -48 19t-36 18q0 10 49 10q25 0 78 -4t78 -4q29 0 81 6 t81 6q27 0 26 -10q0 -6 -37.5 -17.5t-60.5 -36.5q-35 -37 -35 -198v-604q0 -418 29 -496q20 -55 100 -68q12 -2 12 -10q0 -12 -59 -12q-23 0 -66.5 3t-66.5 3q-31 0 -92.5 -3t-91.5 -3q-14 0 -15 8q0 6 25 10q33 8 47 21q27 25 35 49q12 43 12 207v375q0 39 -39 38h-868 q-37 0 -37 -38v-439q0 -145 49 -188q16 -14 41 -21q39 -6 45 -8t6 -8q0 -10 -18 -10q-25 0 -76 5t-117 5q-25 0 -74 -4t-73 -4q-18 0 -19 10q0 6 23 12l27 9q29 12 42 49t13 166v1017q0 129 -80 162q-14 4 -29 6q-20 6 -20 15z" />
<glyph unicode="i" horiz-adv-x="741" d="M143 1434q0 8 35 8q27 0 78 -4t78 -4q31 0 93 7t93 7q39 0 39 -12q0 -6 -33 -15q-41 -12 -51 -18q-49 -31 -49 -160v-956q0 -113 4 -140q12 -82 62 -116q18 -12 63 -17q37 -4 37 -12q0 -10 -17 -10q-31 0 -94 4t-96 4q-35 0 -102.5 -2t-100.5 -2q-27 0 -26 10q0 10 26 10 q47 0 74 31q39 45 39 203v999q0 123 -51 152q-10 6 -60 16q-41 8 -41 17z" />
<glyph unicode="j" horiz-adv-x="686" d="M88 -354q0 16 25 16q139 0 178 213q16 90 16 361v876q0 92 -8 171t-47 110q-18 16 -68 26q-41 8 -41 13q0 10 54 10q31 0 91 -4t91 -4t95.5 4t94.5 4q25 -1 25 -15q0 -4 -21 -8q-51 -8 -69 -18q-33 -14 -43 -53q-23 -78 -23 -336v-959q0 -162 -108 -301 q-100 -131 -195 -131q-47 0 -47 25z" />
<glyph unicode="k" horiz-adv-x="1372" d="M156 2q0 6 22 10q16 2 31 4q37 10 61.5 52.5t24.5 277.5v918q0 111 -62 145q-18 10 -55 14q-16 2 -16 7q0 12 47 12q27 0 79 -4t81 -4q27 0 82 4t81 4q29 0 29 -8t-22 -13q-14 -2 -29 -4q-70 -25 -78 -143q-6 -100 -6 -389v-123q0 -12 6 -12q8 0 180 157l322 295 q135 125 135 164q0 41 -39 49t-39 15q0 10 29 10q27 0 83 -3t83 -3q82 0 135 4t61 4q20 0 21 -6q0 -8 -29 -17q-20 -4 -41 -10q-82 -33 -217 -156l-510 -462q-20 -18 -20 -27q0 -10 24 -33l555 -526q156 -147 234 -176q25 -8 49 -13q16 0 31 -2q22 -2 22 -12q0 -14 -92 -14 q-29 0 -87 3t-87 3q-6 0 -19.5 -2t-19.5 -2q-12 0 -31 18l-602 576q-127 121 -129 121q-8 0 -8 -17v-491q0 -119 53 -158q41 -31 80 -31q27 0 27 -12q0 -10 -15 -10q-6 0 -67 6q-82 8 -133 8q-35 0 -99.5 -4t-97.5 -4q-18 0 -18 10z" />
<glyph unicode="l" horiz-adv-x="999" d="M168 4q0 8 14 10h17q47 10 65 47q31 61 31 263v927q0 96 -35 140q-16 20 -72 32q-20 6 -20 11q0 8 25 8q29 0 85 -4t84 -4q29 0 85.5 4t84.5 4q12 0 13 -10q0 -8 -27 -15q-47 -12 -65 -37q-27 -35 -27 -108v-885q0 -57 6 -165.5t68 -123.5q102 -24 218 -24h9 q127 0 170 30q25 27 72 80l4 4q10 0 10 -8q0 4 -31 -98q-6 -25 -16 -72q-4 -14 -16 -14q-90 0 -269.5 2t-269.5 2q-31 0 -92.5 -2t-91.5 -2q-29 0 -29 8z" />
<glyph unicode="m" horiz-adv-x="1855" d="M82 -2q0 4 18 8q37 6 60 23q55 41 76 225q29 295 92 885l34 295q4 33 17 32q10 0 25.5 -31.5t44.5 -93.5q68 -145 200 -434l242 -524q10 -27 35 -76q16 -29 24 -28q10 0 25 26q29 66 88 195l190 413q72 152 213 455q12 29 39 86q10 18 17 19q12 0 14 -29l33 -379 q80 -920 114 -987q20 -39 54 -55l32 -11q27 -8 27 -12q0 -10 -55 -10q-35 0 -102.5 5t-102.5 5q-25 0 -75 -2t-75 -2q-16 0 -16 8q0 4 25.5 6t60.5 23q53 31 53 174q0 27 -10 160l-51 661q-4 41 -21 41q-6 0 -16 -16q-2 -4 -53 -115l-334 -727q-25 -59 -78 -172 q-14 -29 -24 -29t-25 29l-86 194q-55 127 -170 381q-63 141 -199 418q-18 35 -28 35t-13 -35l-51 -690q-8 -111 -8 -174q0 -109 45 -137q27 -16 51 -21q33 -4 41 -7t8 -9t-30 -6q-29 0 -87.5 6t-86.5 6q-29 0 -85.5 -5t-84.5 -5q-31 0 -31 8z" />
<glyph unicode="n" horiz-adv-x="1740" d="M123 0q0 8 31 12q39 8 51 17q49 35 49 221v1081q0 125 16 125t78 -67q285 -313 492 -537l352 -383q59 -66 180 -197q23 -25 31 -24q10 0 10 53v14l-12 807q-4 223 -35 264q-25 31 -66 41q-29 6 -28 11q0 10 18 10q25 0 75 -7t75 -7t76 5t75 5q27 0 27 -8q0 -4 -29 -13 q-35 -10 -43 -16q-39 -23 -39 -272v-1106q0 -70 -12 -70q-16 0 -111 102l-811 879q-45 51 -135 150q-38 40 -60 40h-1q-8 0 -8 -43v-843q0 -162 59 -207q25 -18 54 -23l30 -6q0 -18 -39 -18q-27 0 -81 5t-81 5t-78 -3t-77 -3q-33 0 -33 6z" />
<glyph unicode="o" horiz-adv-x="1576" d="M82 705q0 131 22 221q59 238 232 385q181 155 417 155h3q172 0 276 -36q213 -76 338 -264.5t125 -417.5q0 -338 -166 -549q-184 -231 -512 -232q-330 0 -532.5 204t-202.5 534zM233 782q0 -295 150 -510q169 -243 451 -243h2q246 0 385 159q131 152 131 402 q0 313 -138 543q-164 272 -456 272q-260 0 -400 -188q-125 -166 -125 -435z" />
<glyph unicode="p" horiz-adv-x="1175" d="M188 12q47 10 74 45q33 45 33 238v967q0 117 -62 149q-8 4 -34.5 10t-26.5 11q0 10 14 10q23 0 68 -4t68 -4q14 0 153 8q70 4 172 4q125 0 205 -31q117 -45 184.5 -137t67.5 -215q0 -188 -100 -318q-109 -141 -289 -141q-27 0 -74 8q-59 8 -59 21q0 6 6 6q16 0 48 -6 t48 -6q104 0 177 73.5t87 176.5q6 41 6 92q0 365 -290 405q-53 8 -117 8q-59 0 -82 -2q-39 -4 -39 -245v-668q0 -375 33 -412q41 -47 121 -47q20 0 20 -10q0 -12 -57 -12q-33 0 -90.5 7t-90.5 7q-27 0 -90 -5t-90 -5q-28 0 -28 7q0 9 34 15z" />
<glyph unicode="q" horiz-adv-x="1601" d="M82 705q0 129 22 221q59 244 238.5 392t417.5 148q330 0 533.5 -203.5t203.5 -527.5q0 -133 -41 -274q-43 -150 -117 -250q-16 -23 -63 -70q-14 -14 -14 -20q0 -4 18 -15q68 -35 205 -106q635 -332 872 -332q180 0 379 35t189 35q10 0 10 -4q0 -27 -256 -82 q-285 -61 -529 -62q-147 0 -493 177q-236 129 -473 258q-27 14 -41 14q-2 0 -23 -8q-152 -63 -303 -64q-334 0 -534.5 202t-200.5 536zM231 786q0 -295 152 -512q169 -245 451 -245h2q176 0 299 84q217 148 217 510q0 299 -150 526q-170 256 -446 256q-254 0 -396 -188 q-129 -170 -129 -431z" />
<glyph unicode="r" horiz-adv-x="1497" d="M143 1430q0 12 21 12q33 0 96.5 -4t95.5 -4q43 0 131 7t131 7q186 0 304 -82q135 -96 135 -274q0 -109 -59.5 -217.5t-149.5 -174.5q-8 -14 -8 -20q0 -10 14 -29l276 -372q63 -86 140 -158q109 -100 176 -101q6 0 17.5 2.5t17.5 2.5q16 -1 16 -13q0 -16 -43 -16 q-166 0 -227 18q-106 29 -180 136l-216 305q-35 53 -69 106q-49 63 -103 64h-204q-29 0 -29 -27v-276q0 -193 33 -254q16 -29 53 -45q23 -4 68 -13q8 -2 8 -6q0 -12 -33 -12q-29 0 -88 4t-88 4t-84 -3t-84 -3q-51 0 -51 6q0 10 28 16q37 8 45 15q61 45 62 170v1071 q0 74 -35 110q-23 23 -92 39q-25 6 -25 9zM426 721q0 -31 149 -31h89q82 0 108 12q74 35 117 138q37 86 37 180q0 162 -103.5 256t-267.5 94h-61q-68 0 -68 -100v-549z" />
<glyph unicode="s" horiz-adv-x="972" d="M102 190q0 90 13 91q2 0 4 -2q4 -25 10 -60q4 -20 12 -37q72 -153 309 -153h3q109 0 180 47q57 39 95 109.5t38 138.5q0 156 -207 284l-219 137q-211 131 -211 371q0 90 44 173t120 126q92 51 239 51q59 0 166 -16q80 -12 93 -12q20 0 30 5t15 5q6 0 6 -8t-5.5 -25.5 t-5.5 -25.5q0 -16 2.5 -48t2.5 -49q0 -98 -19 -98l-14 55q-12 47 -55 86q-86 76 -248 76q-113 0 -187 -61q-82 -66 -82 -174q0 -174 211 -308l211 -133q109 -70 158 -137q59 -84 59 -201q0 -207 -180 -344q-113 -86 -266 -86q-170 0 -291 49q-29 12 -29 25v76q-2 49 -2 73z " />
<glyph unicode="t" horiz-adv-x="1218" d="M35 1298q0 12 14 56q16 51 19 57l12 49q10 0 30.5 -6t26.5 -8q72 -12 172 -12h654q37 0 109.5 4t109.5 4q6 0 6 -8v2q-2 0 -19 -93q-2 -18 -6 -55q-2 -18 -6 -18q-6 10 -16 24q-18 25 -88 39q-57 12 -211 13h-125q-27 0 -29 -39q-4 -72 -4 -185v-766q0 -248 32 -296 t81 -48q8 0 22 2h23q14 0 14 -10t-55 -10q-29 0 -87.5 3t-86.5 3q-37 0 -107.5 -5t-107.5 -5q-12 0 -13 4q0 8 45 14q76 10 92.5 56.5t16.5 302.5v923q0 53 -41 53h-365q-47 0 -71 -16q-14 -10 -21 -28.5t-10 -18.5q-10 0 -10 18z" />
<glyph unicode="u" horiz-adv-x="1644" d="M92 1427q0 14 27 15q31 0 90 -4t90 -4q35 0 102.5 5t100.5 5q16 0 16 -10q0 -4 -26 -11q-35 -8 -37 -10q-90 -39 -90 -401v-529q0 -186 59 -272q119 -170 383 -170q524 0 524 442v398q0 465 -49 499q-41 31 -119 37q-14 2 -14 4q0 20 35 21q31 0 94 -4t94 -4q29 0 84 2 t84 2q23 -1 23 -17q0 -6 -25 -6q-88 0 -111 -112q-8 -37 -8 -181v-587q0 -299 -157 -439q-150 -129 -455 -129q-582 0 -582 463v803q0 127 -20.5 147.5t-81.5 34.5q-31 8 -31 12z" />
<glyph unicode="v" horiz-adv-x="1396" d="M-61 1432q0 10 16 10q35 0 104.5 -4t104.5 -4q29 0 81 5t77 5q10 0 10 -8q0 4 -33 -19q-25 -16 -25 -49q0 -63 244 -666q66 -164 121 -292q20 -51 63 -148q12 -23 19 -22q10 0 22 26q4 8 93 215q96 225 182 432q47 111 137 332q25 63 25 109q0 37 -25 53q-2 2 -21.5 8 t-19.5 12q0 10 21 11q25 0 71.5 -2t71.5 -2t73 5t72 5q35 0 35 -12q0 -6 -18 -7q-41 -2 -72 -22q-55 -37 -121 -189l-534 -1234q-6 -16 -13 -17q-6 0 -14 17q-10 25 -33 75l-274 631q-76 184 -232 551q-14 41 -53 117q-44 71 -142 71h-3q-10 0 -10 7z" />
<glyph unicode="w" horiz-adv-x="2168" d="M-41 1432q0 12 16 12q35 0 105 -5t104 -5q33 0 100.5 5t100.5 5q10 0 10 -8q0 -2 -14 -9q-92 -33 -92 -71q0 -49 49 -182l324 -873q6 -18 18 -18q6 0 12 16l387 1079q20 55 35 56q12 0 39 -74l381 -1047q10 -27 20 -26q10 0 19 20l342 936q16 45 16 111q0 18 -55 53 q-2 0 -21.5 7t-19.5 13q0 10 20 11q29 0 87.5 -2t87.5 -2q25 0 72.5 5t72.5 5q35 0 35 -12q0 -6 -23 -7q-37 -2 -67 -22q-68 -47 -121 -193l-445 -1214q-10 -29 -20 -29t-18 21l-400 1085q-18 51 -29 51q-6 0 -24 -53l-391 -1075q-10 -29 -21 -29q-10 0 -22 33l-465 1233 q-12 41 -49 121q-35 57 -115 71h-31q-10 0 -10 7z" />
<glyph unicode="x" horiz-adv-x="1312" d="M27 -4q0 8 35.5 8t95.5 33q51 29 100 113q324 549 324 567q0 39 -215 413q-45 80 -107 179q-51 84 -113 106q-16 6 -69 6q-10 0 -10 6q0 14 24 15q37 0 113 -4t112 -4q59 0 109 4q62 5 62 6h-1q14 0 15 -10q0 -2 -4 -4q-16 -2 -47 -13q-35 -16 -35 -45q0 -49 28 -104 l201 -394q10 -20 14 -20q6 0 15 16l209 379q45 82 45 125q0 35 -35 49l-21 5q-22 4 -22 8q0 8 22 8q25 0 75 -5t75 -5q29 0 87 6t87 6q23 0 23 -10q0 -4 -5 -6q-29 -4 -84 -25q-72 -43 -131 -145l-286 -488q-2 -4 -2 -10t311 -576q96 -176 254 -176q10 0 10 -6 q0 -14 -55 -14q-39 0 -115 5t-115 5q-25 0 -74.5 -2t-74.5 -2q-18 0 -18 8q0 2 35.5 17.5t35.5 35.5q0 61 -47 150l-207 387q-10 18 -18 18q-10 0 -21 -20l-225 -418q-43 -80 -43 -121q0 -33 51 -47q10 -2 11 -6q0 -8 -21 -8q-23 0 -64.5 4t-64.5 4q-31 0 -94.5 -7t-93.5 -7 q-41 0 -41 10z" />
<glyph unicode="y" horiz-adv-x="1318" d="M-82 1432q0 14 51 14q29 0 84.5 -6t83.5 -6q27 0 78 7t78 7q43 0 43 -8q0 -2 -33 -14.5t-33 -32.5q0 -51 43 -115l191 -283q51 -74 151 -221q10 -16 21 -16q10 0 22 16l154 215q258 360 258 395q0 39 -31 50q-2 8 17 8q14 0 42.5 -4t43.5 -4q27 0 81 7t80 7q58 0 58 -16 q0 -2 -12 -2q-31 0 -72 -17q-61 -25 -127 -110q-186 -242 -410 -560q-47 -68 -47 -118v-451q0 -80 29 -113q47 -55 119 -55q10 0 10 -6q0 -10 -41 -10q-31 0 -91.5 5t-90.5 5q-29 0 -84.5 -5t-81.5 -5q-43 0 -43 8t28 8q80 0 101 135q4 31 4 68v407q0 29 -37 82l-428 613 q-45 63 -94 88q-8 4 -88 22q-27 6 -27 11z" />
<glyph unicode="z" horiz-adv-x="1503" d="M72 0q0 12 18 29q12 14 27 26l1016 1254q12 14 12 24q0 16 -37 17h-301l-426 -13q-111 -4 -166 -63q-25 -27 -25 -88q0 -18 -8 -19q-18 0 -18 93q0 25 8 67q10 51 11 67.5t4 30t24 13.5q61 0 186 -2t189 -2h528q43 0 127 3t127 3q25 0 25 -13q0 -6 -33 -36.5t-35 -34.5 l-252 -312l-477 -589q-256 -317 -256 -346q0 -27 211 -27q33 0 96 2h94q582 0 639 45q27 20 47.5 52t38.5 61q4 6 9 6q8 0 8 -4v-15q0 -10 -41 -100q0 -2 -47 -117q-10 -26 -26 -26h-1l-9 2t-130 6q-221 6 -393 6h-652q-16 0 -45.5 -3t-46.5 -3q-20 0 -20 6z" />
<glyph unicode="{" horiz-adv-x="608" d="M41 702q0 8 35 19q27 4 76 22q74 55 73 175v368q0 244 305 248q37 0 37 -21q0 -6 -49 -10q-168 -10 -168 -186v-342q0 -125 -18 -166q-27 -70 -129 -94q-45 -10 -45 -15l47 -10q96 -23 125 -86q20 -45 20 -174v-346q0 -96 37 -138t131 -48q49 -5 49 -11q0 -20 -37 -20 q-150 2 -217 47q-88 57 -88 203v368q0 117 -67 172q-25 20 -86 29q-31 4 -31 16z" />
<glyph unicode="|" horiz-adv-x="1122" d="M0 315q0 4 6 39t6 56q27 2 64 2q49 0 80 -19q10 -37 20 -76q20 -63 109 -63q111 0 110 29q0 4 -25.5 41.5t-25.5 58.5q0 127 82 195q76 61 207 61q14 0 33.5 -3t23.5 -3q25 0 30 5t11 38q4 23 4 63q0 74 -16 74q-18 0 -39 -22q-29 -33 -33 -35q-117 -76 -184 -76 q-20 0 -53 12q-39 14 -48 35q-33 72 -63 107q-23 27 -23 28q0 4 9 4q12 0 48 -10t40 -10q25 0 24 16q0 23 -46 29t-46 22t18.5 33t36.5 17t54.5 -22.5t42.5 -22.5t20.5 11t20.5 11q8 0 47 -14.5t47 -14.5q27 0 26 17q0 43 -126.5 96t-126.5 68q0 35 75.5 49t75.5 28 q0 27 -44 28t-44 17q0 12 10.5 26.5t10.5 27.5q0 23 -23 41t-47 18q-18 0 -31.5 -51t-62.5 -51q-78 0 -78 71q0 102 133 103q20 0 112.5 -23.5t96.5 -29.5q14 -18 18 -72q2 -43 21 -43q20 0 34.5 42t22.5 42q47 0 95 -39t48 -82q0 -2 -20 -64.5t-20 -91.5q0 -72 18 -71 q14 0 37.5 48t30.5 48q8 0 20 -36t25 -36q29 0 28 29q0 8 -16.5 48t-16.5 48q0 25 25 46.5t45 21.5q27 0 74 -76q41 -68 41 -82q0 -8 -24.5 -41t-24.5 -45q0 -18 14 -18q25 0 50 34l26 35q22 0 22 -117q0 -72 -30 -120q-39 -57 -107 -58q-72 0 -128 61.5t-62 61.5 q-16 0 -17 -22q0 -76 -14 -148q-6 -29 20 -39q250 -96 250 -346q0 -96 -51 -176q-57 -88 -141 -88q-43 0 -70 29.5t-27 66.5q0 61 64 62q49 0 49 -31q0 -8 -7 -23.5t-7 -21.5q0 -29 30 -29q37 0 66 37t29 78q0 57 -29 70q-51 8 -145 36q-12 6 -31 39t-19 45q0 29 19.5 63 t44.5 34q10 0 43 -15.5t39 -15.5q27 0 27 22q0 49 -105 107q-29 16 -45 16q-14 0 -25 -26q-18 -41 -41 -88q-53 -119 -190 -200t-268 -81q-53 0 -135 25q-90 25 -107 55q-2 4 -2 61zM403 412q0 -27 19.5 -60t54.5 -33q49 0 139 105q84 100 84 143q0 25 -49 25 q-102 0 -172 -47q-76 -49 -76 -133z" />
<glyph unicode="}" horiz-adv-x="608" d="M41 -113q0 6 49 11q94 6 131 48t37 138v346q0 129 21 174q29 63 124 86q47 10 48 10q0 4 -45 15q-102 25 -130 94q-18 41 -18 166v342q0 176 -168 186q-49 4 -49 10q0 20 37 21q305 -4 305 -248v-368q0 -119 74 -175q2 -2 75 -22q35 -11 35 -19q0 -12 -30 -16 q-61 -8 -86 -29q-68 -55 -68 -172v-368q0 -145 -88 -203q-68 -45 -217 -47q-37 0 -37 20z" />
<glyph unicode="~" horiz-adv-x="1157" d="M0 860q0 37 18 37l18 -41q19 -41 44 -59q66 -49 135 -62q23 -4 107 -4q70 0 122 -45q48 -39 48 -74q0 -49 -86 -49q-68 0 -161 46t-98 46q-6 -6 -6 -10q0 -23 72 -67q53 -35 80 -46l102 -16q66 -14 66 -67q0 -31 -32 -47.5t-64 -16.5q-102 0 -205 107q-84 88 -125 194 q-8 23 -21.5 88.5t-13.5 85.5zM365 1430q0 4 6 4q59 0 172 -101q78 -70 132 -175t54 -181q0 -129 -57 -129q-29 0 -32 31.5t-3 62.5q-2 68 -38 182.5t-60 114.5q-6 0 -7 -12q0 8 27 -92.5t27 -188.5q0 -135 -82 -135q-18 0 -27 8q-14 16 -20 21q-33 20 -39 38.5t-6 82.5 q0 18 10 100t10 192q0 51 -14 88q-2 8 -27.5 43t-25.5 46zM442 0q68 158 74 174q41 111 41 186q0 53 -41 117q-6 8 -28.5 25.5t-22.5 21.5q0 12 12 13q29 0 62 -60q27 -51 34 -98q6 -29 13 0q29 119 28 289q0 74 -8 110q-2 12 -16 49l22 19q23 -119 23 -168q0 -80 -12 -174 q-23 -166 -88 -342q-16 -45 -64 -150q-23 -12 -29 -12zM625 336v26q20 49 71.5 104.5t81.5 55.5v-20q-70 -18 -153 -166zM803 465q0 33 47 53q35 16 68 17q51 0 98 -37t49 -37q8 0 8 10q0 27 -55 71t-84 44q-31 0 -64 -8l-32 -7q-31 0 -31 33q0 23 24.5 44.5t49.5 21.5 q59 0 84 -17q53 -35 122 -161q63 -117 68 -162l2 -27q-84 72 -164 72q-4 0 -34.5 -3t-34.5 -3q-45 0 -83 26.5t-38 69.5z" />
<glyph unicode="&#xa1;" horiz-adv-x="440" d="M123 1325q0 47 26.5 80t71.5 33q43 0 69.5 -31t26.5 -74q0 -45 -27.5 -75.5t-70.5 -30.5q-96 0 -96 98zM127 0l10 84l27 313l33 582q2 53 22 53t23 -57l26 -572l33 -319q2 -29 10 -84q-57 4 -92 4t-92 -4z" />
<glyph unicode="&#xa2;" horiz-adv-x="1421" d="M0 559v21q0 88 68 139q59 49 149 49q8 0 21.5 -5t21.5 -5q18 0 40 33.5t46 33.5q43 0 124 -161.5t134 -161.5q59 0 60 33q0 14 -60 104q-74 113 -108 192q-59 131 -60 246q0 31 15 88q18 68 36 68q16 0 49 -17.5t39 -17.5q18 0 39 33q14 23 29 47q43 57 126 106.5 t151 49.5q51 0 51 -17q0 -6 -23 -14q-29 -8 -37 -14q-35 -27 -73.5 -99.5t-38.5 -115.5q0 -29 55 -29t55 -23q0 -14 -17.5 -58t-27.5 -58.5t-67 -73.5q-121 -125 -121 -273q0 -123 67 -122q59 0 60 51q0 16 -6 48t-6 48q0 74 49 145q55 80 125 80q23 0 26.5 -23.5 t22.5 -23.5q10 0 56 21.5t79 21.5q94 0 166 -47q82 -53 82 -141q0 -31 -17 -31q-2 0 -18 26.5t-19 28.5q-41 47 -112 47q-86 0 -146 -65q-25 -29 -90 -139q-20 -37 -72.5 -74t-91.5 -37q-8 0 -24 2h-25q-12 0 -12 -6q0 -10 23.5 -38t31.5 -28q4 0 41 15q63 25 135 24 q70 0 143 -54t81 -54q37 0 89 58.5t72 58.5q10 0 22.5 -36t12.5 -50q0 -23 -75 -64q-59 -29 -99 -41q-47 -14 -90 -14q-143 0 -305 100q-23 14 -29 14q-12 0 -32 -28q-76 -106 -76 -182q0 -51 30.5 -89t79.5 -38q47 0 80 29.5t33 76.5q0 37 -24.5 61.5t-61.5 24.5 q-43 0 -43 -45q0 -8 34 -11t34 -34q0 -35 -31 -35q-66 0 -66 74q0 27 21.5 49.5t48.5 22.5q49 0 82 -31t33 -80q0 -59 -41 -92t-101 -33q-57 0 -95 44t-38 101q0 68 52.5 158t52.5 82q-86 115 -103 123q-27 -31 -53 -62q-55 -59 -135 -59q-82 0 -199 120t-168 120 q-80 0 -98 -58l-6 -43q-4 -33 -10 -32q-23 0 -23 65zM864 379q0 -8 29 -23q109 -57 231 -57q29 0 29 14q0 41 -66 72q-57 29 -102 29q-23 0 -67 -11q-53 -10 -54 -24z" />
<glyph unicode="&#xa3;" horiz-adv-x="882" d="M0 238q0 41 39 67.5t82 26.5q14 0 46 -11.5t46 -11.5q10 0 10 8v11q-16 37 -35 84q-37 96 -36 161q0 4 2 13v14q0 27 -62.5 60.5t-62.5 50.5q0 10 25.5 18t25.5 31q0 18 -31 70.5t-31 70.5q0 25 60 25q12 0 32.5 -6.5t32.5 -6.5q16 0 21 33q2 23 4 45q4 10 20 33 q49 63 50 119q0 33 -24 61.5t-56 28.5q-23 0 -36 -16.5t-16 -16.5q-31 0 -30 62q0 25 25.5 44t50.5 19q41 0 75 -59q31 -49 39 -99q25 47 76 101q33 29 92 92q6 18 21 51q14 23 34 23q14 0 42 -8.5t42 -8.5q8 0 25.5 3t26.5 3q39 0 76.5 -30.5t37.5 -69.5q0 -27 -19.5 -52.5 t-43.5 -25.5q-20 0 -39 15.5t-19 35.5q0 6 23 14.5t23 32.5q0 47 -66 48q-25 0 -37 -21q-18 -27 -26.5 -32t-32 -6t-33.5 -7q-66 -37 -147 -145q-86 -117 -86 -185q0 -14 32 -51q41 -49 60 -90q33 -68 32 -154q0 -29 21 -28q14 0 27 47q8 37 8 57v29q-2 18 -2 29 q0 86 35 176q8 20 57 73.5t65 53.5q23 0 28 -51.5t30 -51.5l98 56q98 55 147 55q9 -1 9 -19q0 -45 -47.5 -123.5t-47.5 -80.5q0 -23 32 -27t32 -27t-64 -63q-55 -33 -88 -43q-70 -10 -141 -23q-106 -18 -106 -59q0 -18 59 -18q14 0 44 3t44 3q41 0 102 -11q82 -14 82 -39 q0 -16 -23.5 -34.5t-23.5 -26.5q0 -49 129 -133q0 -27 -94 -27q-61 0 -102 9q-8 -8 -8 -25q0 -8 3 -22.5t3 -22.5q0 -23 -29 -23q-43 0 -103.5 65.5t-70.5 113.5q-6 33 -14.5 68.5t-34.5 51.5q-33 -20 -58 -125q-23 -88 -22 -143q0 -162 131 -336q-6 -8 -23 -8q-37 0 -67 55 q-23 45 -46.5 86t-70.5 70t-90 29q-61 0 -61 -66q0 -18 2 -31h-9q-37 -2 -69.5 27t-32.5 68zM193 573q0 -39 12 -86q10 -39 35 -94q31 -76 51 -80v9q0 98 37 206q32 94 32 88q0 37 -65 37q-51 0 -92 -32q-10 -41 -10 -48z" />
<glyph unicode="&#xa4;" horiz-adv-x="1130" d="M141 4q0 20 129 115q59 43 281 250q307 287 307 624q0 150 -74 267q-94 145 -270 145q-127 0 -211 -76q-92 -82 -92 -219q0 -111 84 -174q61 -47 115 -47q76 0 75 -8q0 -8 -22.5 -17.5t-44.5 -9.5q-88 0 -162 59q-94 76 -94 211q0 162 121 256q117 88 299 88 q184 0 309 -135q117 -125 117 -289q0 -301 -312 -618q-68 -70 -260 -231q-86 -72 -86 -97q0 -20 25 -20h416q129 0 198.5 57.5t71.5 83.5q0 4 4 4h20q0 -23 -26 -73l-72 -138q-10 -18 -51 -18q-51 0 -150.5 3t-150.5 3q-68 0 -216.5 -5t-215.5 -5q-61 0 -62 14z" />
<glyph unicode="&#xa5;" horiz-adv-x="1318" d="M-82 1432q0 14 51 14q29 0 84.5 -6t83.5 -6q27 0 78 7t78 7q43 0 43 -8q0 -2 -33 -14.5t-33 -32.5q0 -51 43 -115l191 -283q51 -74 151 -221q10 -16 21 -16q10 0 22 16l154 215q258 360 258 395q0 39 -31 50q-2 8 17 8q14 0 42.5 -4t43.5 -4q27 0 81 7t80 7q58 0 58 -16 q0 -2 -12 -2q-31 0 -72 -17q-61 -25 -127 -110q-184 -242 -410 -560q-47 -66 -47 -116h397v-86h-397v-367q0 -80 29 -113q47 -55 119 -55q10 0 10 -6q0 -10 -41 -10q-31 0 -91.5 5t-90.5 5q-29 0 -84.5 -5t-81.5 -5q-43 0 -43 8t28 8q80 0 101 135q4 31 4 68v332h-402v86 h402q-2 20 -37 71l-428 613q-45 63 -94 88q-8 4 -88 22q-27 6 -27 11z" />
<glyph unicode="&#xa6;" horiz-adv-x="894" d="M41 1223q0 35 16.5 102.5t16.5 99.5q0 16 12 17q39 0 116 -4t113 -4h533q26 -1 26 -21q0 -14 -153 -371q-166 -383 -184 -432q-109 -305 -148 -512q-6 -43 -18 -92q-8 -10 -64 -24q-35 -8 -71 -19q-59 -20 -62 -20v2q0 41 88 293q74 217 111 303q68 162 323 673 q16 29 41 86l8 33q0 10 -22 10h-444q-158 0 -195 -67q-6 -10 -14 -49q-6 -29 -15 -29q-14 0 -14 25z" />
<glyph unicode="&#xa7;" horiz-adv-x="1107" d="M0 221q0 6 29.5 11.5t29.5 26t15 20.5q6 0 19 -2.5t20 -2.5q29 0 28 11v12q-2 6 -2 10q0 8 6 8q12 0 33 -8t27 -8t14 13.5t12 13.5q6 0 19.5 -11.5t32.5 -11.5q8 0 22 7t23 7q41 0 100 -81q6 -12 19.5 -29t37.5 -17q12 0 13 19q0 8 -19 29q-117 125 -143 254 q-2 10 -22.5 36.5t-20.5 63.5q0 8 4 23.5t4 23.5l-22 55q-20 59 -21 125q0 10 2 33v35q0 59 -49 139q-2 2 -21 25q-14 14 -14 24t8 10q18 0 58 -67q8 -25 18 -51q14 -37 29 -37q35 0 65 98q27 84 27 133q0 27 -33 135q-6 18 -31 56q-20 31 -20 49q0 23 20 22q16 0 45 -94 q14 -61 31 -121q8 -31 15 -30q4 0 65.5 86t77.5 86h10q12 0 12 -9q0 -16 -12 -24q-55 -41 -98 -109q-49 -76 -49 -135q0 -41 14 -98q18 -74 45 -74q10 0 63.5 59.5t90.5 59.5q4 0 4 -4t-8 -12q-20 -14 -60 -43q-57 -51 -63 -91q-6 -51 -27 -153q-6 -20 -29 -45 q-25 -31 -30 -43q0 -29 -6 -76q0 -4 -18.5 -22.5t-18.5 -41.5q0 -51 57 -141q47 -72 98 -121q41 -39 119 -86q88 -51 133 -51q8 0 8 6q0 -4 -28 45q-6 16 -23 45q-23 18 -63 62q-45 61 -45 92q0 6 3 19.5t3 19.5q0 8 -8.5 20.5t-8.5 18.5t10.5 24.5t10.5 28.5v31 q0 55 21.5 59t21.5 55q0 10 2 15q14 10 35 26q4 18 14 48q8 2 27 10q2 2 10 11t12 9t6 -17.5t7.5 -18.5t17.5 -13q-2 -35 4 -96q2 -6 14.5 -14.5t12.5 -12.5q0 -10 -3 -31.5t-3 -31.5q0 -23 10 -23q4 0 10 3t10 3q8 0 8 -12q0 -16 -11 -47t-11 -41q0 -6 17.5 -26.5 t17.5 -24.5q0 -14 -9.5 -24.5t-11.5 -14.5q-12 -43 -30 -64q-2 -2 -41 -24q-29 -16 -29 -31q0 -23 55 -78q27 -27 66 -26q39 0 114.5 46t79.5 46q8 0 17.5 -18.5t9.5 -28.5q0 -33 -98 -56q-78 -20 -127 -20q-86 0 -216 63.5t-139 63.5q-47 0 -63 -10q-8 -6 -53 -58 q-37 -41 -64 -41q-4 0 -20.5 13.5t-30.5 13.5q-10 0 -32.5 -10.5t-33.5 -10.5q-8 0 -19 15.5t-19 15.5q-37 0 -48 6q-2 12 -18 33q-37 10 -82 25v10q0 18 -22.5 31.5t-22.5 21.5z" />
<glyph unicode="&#xa8;" horiz-adv-x="0" d="M596 1669q0 82 82 82t82 -76q0 -88 -84 -88q-80 0 -80 82zM950 1669q0 82 82 82t82 -76q0 -88 -84 -88q-80 0 -80 82z" />
<glyph unicode="&#xa9;" horiz-adv-x="1732" d="M119 715q0 313 218 532t531 219q309 0 527.5 -220t218.5 -531q0 -309 -218 -528.5t-528 -219.5q-311 0 -530 218t-219 530zM221 717q0 -274 187.5 -472t459.5 -198q270 0 459 201q182 197 182 469q0 274 -184 471.5t-457 197.5q-272 0 -459.5 -197.5t-187.5 -471.5z M420 739q0 201 117.5 321t318.5 120q141 0 264 -35q23 -6 33 -6l2 2h2q4 4 8 4q14 0 15 -25q0 -8 -2 -24.5t-2 -24.5q0 -10 2 -30.5t2 -30.5q0 -37 -15 -37q-12 0 -24 31q-49 121 -314 120q-150 0 -225 -104q-68 -92 -67 -248q0 -184 104 -307q111 -129 291 -129 q88 0 166 51q41 27 51 57q8 25 18 25q17 0 17 -23q0 2 -21 -100q-4 -18 -5 -20t-17 -9q-86 -37 -248 -36q-223 0 -347 117.5t-124 340.5z" />
<glyph unicode="&#xaa;" horiz-adv-x="837" d="M41 748q0 12 14 14q41 8 70 74q39 94 123 282q51 109 102 232q14 41 49 118q10 20 21 21q12 0 24 -25q16 -41 52 -123q68 -168 206 -503q12 -29 25.5 -49.5t41.5 -28t28 -15.5q0 -12 -15 -12l-102 4l-94 -4q-31 -2 -31 12q0 12 29.5 15.5t29.5 27.5q0 12 -33.5 102.5 t-39.5 94.5t-21 4h-246q-16 0 -24 -22q-63 -160 -64 -174q0 -25 23.5 -31t23.5 -14q0 -14 -20 -15l-86 4l-61 -4q-25 -2 -25 15zM283 1042h233q2 1 2 5q-27 66 -57 141q-18 43 -53 127q0 4 -2 6l-4 -4q-5 -4 -56 -125q-8 -16 -63 -150z" />
<glyph unicode="&#xab;" horiz-adv-x="950" d="M82 723q0 10 37 43l196 192q164 162 179 162q16 0 16 -16q0 -12 -135 -174q-158 -188 -164 -197q25 -29 217 -219q31 -27 80 -82q-8 -16 -37 -48t-43 -38q-18 12 -98 98q-70 80 -213 234q-35 35 -35 45zM440 723q0 10 35 43q98 96 197 192q164 162 178 162q18 0 18 -16 q0 -12 -137 -174q-158 -188 -164 -197q23 -25 219 -219q31 -27 80 -82q-8 -16 -37.5 -48t-44.5 -38q-18 12 -98 98q-70 80 -213 234q-33 33 -33 45z" />
<glyph unicode="&#xac;" horiz-adv-x="1525" d="M0 934q0 147 41 280q47 158 131 220q8 2 16 -23q0 -23 -30 -47q-35 -31 -41 -45q-86 -186 -86 -375q0 -109 48 -226.5t118 -191.5q35 -37 61 -37q16 0 60 6.5t122 6.5q66 0 124.5 -39t82.5 -103q10 -33 27 -67q16 -8 47 -8q184 0 276 92q41 41 50 108q2 14 2 125 q0 139 75 201q27 20 97 43q31 10 30 25q0 100 -71 208q-61 98 -97 99q-51 0 -112 -279q-16 -78 -58.5 -124t-42.5 -50t46.5 -58t46.5 -100q0 -61 -22.5 -108t-55.5 -55q10 61 10 57q0 59 -78 72q-59 8 -121 14q-31 10 -54.5 57t-37.5 47q-4 0 -33.5 -19t-74.5 -19 q-125 0 -207 116q-76 104 -76 234q0 186 137 307q129 115 307 115q102 0 191 -27q59 -16 115 -47l47 -27q-2 0 26.5 4t59.5 4q123 0 209 -49q72 -41 71 -77q0 -10 -10 -11q4 0 -37 34t-106 34q-104 0 -105 -25q0 -2 14.5 -14t18.5 -18q76 -100 92 -132q25 -51 45 -163 q2 -10 23 -15q84 0 149.5 -67.5t65.5 -149.5q0 -61 -35 -106t-86 -45q-45 0 -77 30.5t-32 73.5q0 74 60 74q51 0 51 -45q0 -23 -21.5 -43.5t-21.5 -28.5q0 -33 35 -33q98 0 98 121q0 70 -58.5 131.5t-135.5 61.5q-16 0 -19 -23q-6 -78 -37 -158q-68 -172 -200 -280 q-143 -119 -316 -119q-57 0 -57 -6q0 -90 -41 -160q-51 -92 -152 -92q-68 0 -111.5 37t-43.5 98q0 47 28.5 82t73.5 35q35 0 64.5 -23.5t29.5 -60.5q0 -27 -19.5 -46.5t-37.5 -19.5q-12 0 -21.5 16.5t-9.5 31.5q0 10 13.5 30.5t11.5 26.5q-4 20 -39 20q-33 0 -51.5 -31.5 t-18.5 -62.5q0 -51 39 -78.5t92 -27.5q80 0 125 73q37 61 37 148q0 12 -28.5 18t-88.5 21q-209 53 -354 217q-172 193 -172 430zM242 958q0 -109 61 -198q74 -106 193 -107q29 0 56.5 15.5t27.5 33.5q0 31 -31 31q-45 -2 -43 -2q-51 25 -51 127q0 14 2 42t2 42q0 68 -64 90 q-12 4 -39 6q-16 0 -16 9q0 25 72 24q74 0 112 -22q4 -2 45 -37q35 -29 41 -29q18 0 28.5 22.5t20.5 43.5q78 113 197 176q90 49 90 55q0 20 -82 51q-96 35 -205 35q-172 0 -290 -109q-127 -115 -127 -299zM299 446q0 -23 90 -71q102 -57 213 -76q29 -4 29 14 q0 51 -59.5 106.5t-127.5 55.5q-145 0 -145 -29zM1077 586q0 -117 8 -117q16 0 60.5 64.5t68.5 128.5q37 94 37 155q0 20 -14 17q-100 -25 -133 -91q-27 -49 -27 -157z" />
<glyph unicode="&#xad;" horiz-adv-x="567" d="M61 666q0 14 27 26l346 172q49 25 64 25q8 0 8 -27q0 -49 -33 -65l-346 -176q-12 -6 -39 -7q-10 0 -18.5 19.5t-8.5 32.5z" />
<glyph unicode="&#xae;" horiz-adv-x="1732" d="M119 715q0 311 219 531t530 220q309 0 527.5 -220t218.5 -531q0 -309 -219 -528.5t-529 -219.5q-309 0 -528 219.5t-219 528.5zM221 717q0 -274 188.5 -472t462.5 -198q266 0 455 203q182 199 182 467q0 272 -182 469q-188 201 -459 200q-274 0 -460.5 -196.5 t-186.5 -472.5zM467 1149q0 23 25 22q20 0 60 -2t60 -2q29 0 84.5 4.5t83.5 4.5q119 0 197 -50q90 -57 90 -170q0 -141 -135 -235l-2 -6q2 -4 182 -230q119 -147 197 -145h14q25 0 25 -16q0 -18 -35 -19h-66q-133 0 -205 92q-55 70 -159 215q-41 61 -78 62h-129q-8 0 -8 -6 v-179q0 -121 30 -141q6 -4 39 -13t33 -16q0 -18 -31 -18q-18 0 -56 3t-56 3t-53 -3t-54 -3q-43 0 -43 16q0 10 23 17q14 6 30 10q33 14 33 90v629q0 43 -16 55q-8 6 -44 15.5t-36 15.5zM668 739q0 -4 34.5 -6t51.5 -2h55q49 0 63 6q43 18 70 76q23 49 23 102q0 94 -68 148 q-61 47 -158 47h-39q-33 0 -32 -49v-322z" />
<glyph unicode="&#xaf;" horiz-adv-x="0" d="M481 1577q8 27 25 78q4 35 20 94q6 12 17 12q12 0 12 -19.5t2 -23.5q6 -14 59 -14h322q94 0 119 25q4 4 14 28q8 18 19 19q18 -1 12 -19q-10 -29 -27 -84q-8 -31 -24 -92q-4 -16 -17 -16q-4 0 -8 10t-2 14q8 29 -39 35q-16 2 -47 2h-340q-53 0 -70 -18l-13 -24 q-13 -23 -21 -23q-14 0 -13 16z" />
<glyph unicode="&#xb0;" horiz-adv-x="1042" d="M82 381q0 254 240 362q-203 109 -203 299q0 195 117 314q109 111 264 110q195 0 321 -133q104 -111 105 -231q0 -250 -230 -338q265 -94 265 -354q0 -207 -140 -328q-129 -115 -329 -115q-184 0 -297 111.5t-113 302.5zM201 406q0 -119 86 -240q100 -137 233 -137 q156 0 230 108q55 82 55 201q0 154 -76 264q-86 127 -227 127q-156 0 -234 -96q-68 -84 -67 -227zM248 1118q0 -133 76 -229q80 -104 211 -105q268 0 268 301q0 141 -109 238q-96 82 -209 82q-119 0 -182 -88q-55 -76 -55 -199z" />
<glyph unicode="&#xb1;" horiz-adv-x="901" d="M0 51v62q0 18 29 18q6 0 58 -28.5t110 -28.5q37 0 43 20q10 39 22 77t37 73q84 125 205 164q31 8 59.5 17t28.5 36q0 55 -31 148t-57 93q-16 0 -49 -55q-43 -70 -76 -100q-57 -55 -137 -55q-84 0 -155 62t-71 146q0 55 35 103q20 31 62 61q35 25 34 29q0 8 -36 37 q-45 37 -68 67q-37 49 -37 111q0 92 84 174t186 82q176 0 224 -133q8 -23 14 -101q4 -45 33 -45q4 0 42 32t116 32q86 0 145 -90q51 -76 51 -146q0 -96 -60.5 -164.5t-154.5 -68.5q-8 0 -56 19.5t-55 19.5q-23 0 -22 -25q0 -8 16 -41q20 -39 23 -49q29 -115 26 -162 q-2 -23 29 -24q86 -4 144.5 -75t58.5 -165q0 -80 -47 -129t-121 -49q-43 0 -72 27q-35 29 -35 79q0 66 70 66q45 0 45 -37q0 -27 -30.5 -37t-30.5 -39q0 -39 61 -39q55 0 96 45.5t41 108.5q0 88 -59 156.5t-145 68.5q-4 0 -13 -34q-12 -47 -35 -91q-135 -250 -425 -249 q-47 0 -98.5 10t-51.5 16zM279 123q0 -37 32 -37q66 0 165 103.5t99 179.5q0 25 -18 24q-94 0 -190 -106q-88 -98 -88 -164z" />
<glyph unicode="&#xb2;" horiz-adv-x="1073" d="M82 547q0 264 221 561q188 252 432 344q70 27 92 27q25 0 25 -13q0 -10 -29 -20q-18 -8 -37 -14q-246 -115 -393 -363q-141 -238 -141 -588q0 -156 76 -291q92 -162 235 -161q137 0 217 106q72 98 72 240q0 311 -193 422q-68 39 -143 39q-39 0 -71.5 -15.5t-38.5 -15.5 q-4 0 -5 8q0 4 11 14q63 51 170 52q178 0 293.5 -119t115.5 -297q0 -215 -119 -352q-123 -143 -335 -144q-94 0 -185 49q-137 74 -207 226q-63 135 -63 305z" />
<glyph unicode="&#xb3;" horiz-adv-x="970" d="M94 92v127q0 55 19 55q10 0 22 -98q6 -27 21 -49q25 -41 76 -69.5t98 -28.5q393 0 393 413q0 225 -164 318q-98 55 -364 90q-20 2 -21 14q0 6 6 47q16 109 37 355q2 55 12 137q6 31 72 31h277q94 0 157 6q104 10 94 10q8 0 9 -6v-47q-2 -33 -2 -49q0 -10 4 -33t4 -35 q0 -27 -13 -27q-10 0 -10 27q-16 63 -182 63h-283q-33 0 -45 -7t-18 -38q-2 -6 -6 -90l-13 -219q0 -12 17 -14q55 -6 162 -25q415 -96 415 -452q0 -219 -156.5 -375t-375.5 -156q-43 0 -129 13q-109 14 -109 30.5t-2 43t-2 38.5z" />
<glyph unicode="&#xb4;" horiz-adv-x="0" d="M770 1626q0 6 14 16q27 18 160 82t152 64q10 0 67.5 -56.5t57.5 -66.5t-11 -10q-10 0 -33.5 13t-33.5 13q-20 0 -133 -16q-135 -20 -201 -41q-27 -8 -29 -8q-10 0 -10 10z" />
<glyph unicode="&#xb6;" horiz-adv-x="1409" d="M0 727q0 27 82 88q57 45 106 72q37 20 119 45q39 12 39 18q0 14 -5 42t-5 42q0 72 78 72q18 0 57 -4t57 -4q31 0 31 22q0 23 -14.5 65t-14.5 64q0 27 27 27q8 0 26.5 -4t26.5 -4q16 0 56.5 83t60.5 83q12 0 60.5 -86t70.5 -86q4 0 7 2t7 2q47 0 48 -41q0 -16 -17.5 -49 t-17.5 -50q0 -29 28 -28q8 0 22.5 4t22.5 4q55 0 105 -14q37 -10 37 -82v-33q-2 -23 -2 -33q0 -12 43 -22q27 -8 55 -15q102 -41 139 -67q74 -53 74 -127l-18 -11q-109 -10 -207 -198q-8 -23 -31 -66t-53.5 -67.5t-61.5 -48.5q-14 -16 -32.5 -35t-34.5 -19q-29 0 -29 35 q0 8 35 22.5t35 24.5q0 25 -49 25q-16 0 -63.5 -24.5t-51.5 -37.5q-8 -25 -6 -71.5t-4 -67.5q-8 -35 -54 -100q-49 -74 -75 -74q-20 0 -64 59q-37 51 -47 80q-4 10 -10 107q-6 74 -33 90q-74 41 -106 41q-37 0 -37 -23q0 -16 31.5 -40.5t31.5 -28.5q0 -16 -18 -17 q-45 0 -140 142q-59 92 -116 186q-18 31 -62.5 65.5t-77.5 45.5q-18 2 -34 6q-27 4 -27 14zM111 760l28 -6q39 35 102.5 63.5t110.5 28.5q10 0 17 -21q-51 -23 -103 -43q-55 -27 -90 -65v-17h29q127 66 160 66q6 0 6 -8v-6q-2 -4 -2 -7l-78 -32q-55 -25 -55 -54q0 -10 6 -14 q25 0 72.5 32t82.5 32q12 0 25 -17q-8 -6 -82 -39q-55 -23 -70 -51l17 -10q106 51 168 51q53 0 135 -46t129 -46t137 42t131 42q45 0 92 -25q41 -23 82 -45q8 0 17 25q0 29 -78 55q-43 16 -88 33q10 6 28 16q43 0 98.5 -26.5t57.5 -26.5q23 0 23 25q-74 55 -109 55 q-25 0 -25 14q0 4 5 8q43 8 43 9q35 0 75.5 -28t38.5 -28q14 0 25 31q-68 70 -178 70h-15q-10 -2 -14 -2q-18 0 -23 16q12 18 58 18q63 0 141 -39.5t72 -39.5q16 0 22 6q-12 59 -116 98q-86 33 -162 33q-63 0 -117 -21q-6 -2 -29.5 -17t-38.5 -15q-16 0 -16 8 q0 23 27.5 68.5t27.5 88.5q0 16 -12 47t-25 31q-8 0 -20 -8t-20 -8q-25 0 -25 14q0 8 5 24.5t5 24.5q0 39 -33 129q-35 102 -63 103q-14 0 -52 -83t-38 -106q0 -12 4 -35.5t4 -35.5q0 -35 -18 -35q-8 0 -28 4t-30 4q-31 0 -30 -22q0 -45 31.5 -118t31.5 -79q0 -12 -16 -12 q-4 0 -41 18t-43 21q-63 23 -140 22q-39 0 -139 -45q-106 -49 -108 -80v-14zM303 535q14 -18 23 -19q6 0 41.5 22.5t54.5 22.5q82 0 158.5 -50t138.5 -50q45 0 135 47t137 47q25 0 66 -20.5t57 -20.5q10 0 19 4l2 25q-14 23 -62.5 40t-79.5 17t-134 -46t-154 -46 q-12 0 -112.5 49t-148.5 49q-37 0 -84 -18q-57 -23 -57 -53zM362 426q0 -18 23 -18q8 0 24.5 8t24.5 8q47 0 130 -51t141 -51q49 0 148 51t116 51q12 0 34.5 -12.5t34.5 -12.5q41 0 41 27q0 18 -35.5 36.5t-58.5 18.5q-51 0 -142 -56t-138 -56q-35 0 -132.5 52t-126.5 52 q-84 0 -84 -47zM641 698q0 33 23.5 64t54.5 31t53.5 -28.5t22.5 -59.5q0 -100 -84 -101q-31 0 -50.5 31t-19.5 63z" />
<glyph unicode="&#xb7;" horiz-adv-x="1083" d="M82 905q0 227 108 387q121 174 322 174q231 0 362 -231q107 -185 107 -404q0 -397 -172 -636q-166 -231 -426 -232q-74 0 -176 27q-123 33 -123 76q0 14 12 14q4 0 43 -21q66 -35 189 -34q199 0 352 172q147 168 147 362q0 10 -8 10q-4 0 -16 -14q-14 -20 -15 -20 q-106 -98 -305 -99q-150 0 -268 121q-133 135 -133 348zM223 1049q0 -543 383 -543q217 0 217 317q0 217 -96 394q-104 188 -252 188q-119 0 -185.5 -95.5t-66.5 -260.5z" />
<glyph unicode="&#xb8;" horiz-adv-x="0" d="M639 -492q0 8 37 23q279 104 278 201q0 90 -141 90q-23 0 -22 16q0 6 40 66q51 74 66 98h59q-29 -25 -53 -62.5t-49 -72.5q215 0 215 -113q0 -92 -164 -172q-68 -33 -237 -86q-29 -8 -29 12z" />
<glyph unicode="&#xb9;" horiz-adv-x="1003" d="M94 246q0 25 8 24q12 0 37 -55q82 -186 271 -186q172 0 271 94t99 264q0 227 -192 334q-53 29 -92 35q-57 8 -88 8q-16 0 -17 29q0 8 35 14q23 4 46.5 11t68.5 34q176 106 176 315q0 90 -74 164t-164 74q-182 0 -268 -141q-12 -20 -31 -60q-8 -25 -10 -24q-8 0 -8 12 q0 27 2 76t2 73v29q-2 18 -2 27q0 10 6 12q4 2 12 0q12 -2 17 -2q4 0 108 29q113 31 201 30q129 0 229 -69q115 -78 115 -201q0 -127 -72 -215q-57 -70 -182 -139q-10 -10 -10 -11q0 -4 8 -6q127 -25 225 -123q105 -104 105 -229q0 -215 -144.5 -360.5t-359.5 -145.5 q-184 0 -295 62q-20 0 -25 37q-2 18 -2 65q0 20 -3 58t-3 57z" />
<glyph unicode="&#xba;" horiz-adv-x="858" d="M41 1094q0 162 104.5 271.5t266.5 109.5q94 0 151 -19q113 -37 183.5 -130t70.5 -212q0 -174 -99.5 -281.5t-273.5 -107.5t-284 96q-119 102 -119 273zM141 1133q0 -145 82 -248q90 -111 232 -111q123 0 194.5 70.5t71.5 193.5q0 154 -76 262q-84 125 -231 125 q-129 0 -201 -80.5t-72 -211.5z" />
<glyph unicode="&#xbb;" horiz-adv-x="950" d="M82 360q0 12 137 175q158 188 164 196q-25 29 -219 221q-31 27 -80 82q8 16 37 48t43 38q20 -14 98 -98q70 -82 213 -236q35 -35 35 -45t-37 -43q-98 -96 -197 -192q-164 -160 -178 -160q-16 0 -16 14zM440 360q0 12 135 175q158 188 164 196q-25 29 -219 221 q-31 27 -80 82q8 16 38 48t44 38q20 -14 99 -98q70 -82 213 -236q34 -35 34 -45t-37 -43l-196 -192q-164 -160 -178 -160q-16 0 -17 14z" />
<glyph unicode="&#xbc;" horiz-adv-x="1019" d="M35 8q0 8 82 90q51 47 100 97q59 61 172 184q319 360 320 657q0 141 -58 244q-70 125 -200 125q-139 0 -209 -47q-80 -53 -103 -184q0 -41 -10 -41q-14 0 -14 28q0 25 3 75t3 75q0 10 -2 31.5t-2 31.5q0 25 14 27q-2 0 33 0q-6 0 102.5 32.5t214.5 32.5q166 0 281 -106.5 t115 -269.5q0 -338 -455 -797q-59 -55 -174 -168q-10 -14 -10 -27q0 -20 24 -20h356q129 0 193 51q6 4 45 49t43 45q6 0 6 -8q0 -10 -38 -102.5t-46 -100.5q-16 -18 -51 -18q-51 0 -153.5 3t-153.5 3q-68 0 -204 -5t-206 -5q-18 0 -18 18z" />
<glyph unicode="&#xbd;" horiz-adv-x="804" d="M145 1255q0 4 111 66q119 66 207 145q12 6 10 7q10 0 10 -19q0 -68 -3 -206t-3 -208v-854q0 -174 139 -174q35 0 35 -12t-35 -12q-31 0 -94 6t-96 6t-97.5 -4t-97.5 -4q-39 0 -38 12q0 12 45 12q102 0 102 203v875q0 168 -18 186q-6 6 -25 6q-16 0 -70.5 -22.5 t-62.5 -22.5q-18 0 -19 14z" />
<glyph unicode="&#xbe;" horiz-adv-x="1161" d="M53 473q0 2 45 68q33 41 99 121q158 201 477 602q47 57 135 170q23 31 25 30q18 0 18 -24q0 -39 -2 -118t-2 -120v-614q0 -49 26 -49h127q12 0 34 19.5t28 31.5q20 45 29 45q10 0 10 -4q0 -25 -53 -172q-6 -16 -43 -17h-132q-26 1 -26 -24v-199q0 -203 102 -203 q45 0 45 -12q0 -16 -39 -16q-33 0 -97 6t-97 6q-31 0 -94.5 -5t-96.5 -5q-35 0 -34 12q0 12 51 12q61 0 94 60q29 47 29 112v226q0 31 -27 30h-612q-18 0 -19 31zM188 547q0 -12 17 -12h477q29 0 29 47v592q0 31 -9 30q-8 0 -14 -12q-45 -51 -213 -264q-63 -80 -182 -230 q-35 -41 -86 -108q-18 -31 -19 -43z" />
<glyph unicode="&#xbf;" horiz-adv-x="694" d="M123 227q0 113 90 236q82 100 164 203q90 117 90 217q0 29 -30.5 56.5t-30.5 37.5q0 33 26 33q39 0 64 -64q18 -51 18 -96q0 -84 -120 -286t-120 -324q0 -211 201 -211q53 0 88 50t51 50q19 0 19 -23q0 -20 -19 -47q-63 -92 -219 -92q-111 0 -191.5 75t-80.5 185z M324 1321q0 47 26.5 80t71.5 33q43 0 69.5 -31t26.5 -74q0 -45 -27.5 -75.5t-70.5 -30.5q-96 0 -96 98z" />
<glyph unicode="&#xc0;" d="M-41 6q0 6 25.5 12.5t38.5 14.5q49 37 92 143q74 195 229 582q113 268 250 635q10 29 33 86q12 27 22 26q10 0 27 -37q2 -2 96 -249q127 -346 385 -1035q23 -61 51 -110q23 -41 66 -56q57 -18 57 -16q0 -10 -14 -10q-33 0 -98.5 4t-98.5 4q-27 0 -82 -3t-82 -3 q-37 0 -36 6q0 6 26 12q18 2 37 6q45 14 45 72q0 43 -24 111l-84 229q-25 68 -31 74q-16 18 -76 18h-410q-47 0 -60 -8t-30 -51l-86 -234q-33 -88 -32 -133q0 -51 38 -73q2 0 29 -9q20 -4 21 -10q0 -10 -21 -10q-20 0 -71.5 3t-71.5 3q-25 0 -66 -3t-65 -3q-29 0 -29 12z M350 1665q0 10 57.5 66.5t67.5 56.5q18 0 151.5 -63.5t159.5 -82.5q15 -10 15 -16q0 -10 -11 -10q-2 0 -28 8q-66 20 -201 41q-113 16 -133 16q-10 0 -33.5 -13t-34.5 -13q-10 0 -10 10zM375 610q0 -12 26 -12h398q51 0 51 18q0 4 -109 302q-31 88 -100 262q-12 29 -23 28 q-8 0 -18 -22q-27 -53 -106 -260q-119 -305 -119 -316z" />
<glyph unicode="&#xc1;" d="M-41 6q0 6 25.5 12.5t38.5 14.5q49 37 92 143q74 195 229 582q113 268 250 635q10 29 33 86q12 27 22 26q10 0 27 -37q2 -2 96 -249q127 -346 385 -1035q23 -61 51 -110q23 -41 66 -56q57 -18 57 -16q0 -10 -14 -10q-33 0 -98.5 4t-98.5 4q-27 0 -82 -3t-82 -3 q-37 0 -36 6q0 6 26 12q18 2 37 6q45 14 45 72q0 43 -24 111l-84 229q-25 68 -31 74q-16 18 -76 18h-410q-47 0 -60 -8t-30 -51l-86 -234q-33 -88 -32 -133q0 -51 38 -73q2 0 29 -9q20 -4 21 -10q0 -10 -21 -10q-20 0 -71.5 3t-71.5 3q-25 0 -66 -3t-65 -3q-29 0 -29 12z M375 610q0 -12 26 -12h398q51 0 51 18q0 4 -109 302q-31 88 -100 262q-12 29 -23 28q-8 0 -18 -22q-27 -53 -106 -260q-119 -305 -119 -316zM465 1626q0 6 14 16q27 18 160 82t152 64q10 0 67.5 -56.5t57.5 -66.5t-11 -10q-10 0 -33.5 13t-33.5 13q-20 0 -133 -16 q-135 -20 -201 -41q-27 -8 -29 -8q-10 0 -10 10z" />
<glyph unicode="&#xc2;" d="M-41 6q0 6 25.5 12.5t38.5 14.5q49 37 92 143q74 195 229 582q113 268 250 635q10 29 33 86q12 27 22 26q10 0 27 -37q2 -2 96 -249q127 -346 385 -1035q23 -61 51 -110q23 -41 66 -56q57 -18 57 -16q0 -10 -14 -10q-33 0 -98.5 4t-98.5 4q-27 0 -82 -3t-82 -3 q-37 0 -36 6q0 6 26 12q18 2 37 6q45 14 45 72q0 43 -24 111l-84 229q-25 68 -31 74q-16 18 -76 18h-410q-47 0 -60 -8t-30 -51l-86 -234q-33 -88 -32 -133q0 -51 38 -73q2 0 29 -9q20 -4 21 -10q0 -10 -21 -10q-20 0 -71.5 3t-71.5 3q-25 0 -66 -3t-65 -3q-29 0 -29 12z M375 610q0 -12 26 -12h398q51 0 51 18q0 4 -109 302q-31 88 -100 262q-12 29 -23 28q-8 0 -18 -22q-27 -53 -106 -260q-119 -305 -119 -316zM438 1610q0 14 27 28q96 59 248 152q12 8 20 8q-2 0 31 -22q150 -104 147 -105q4 0 9.5 2t7.5 2q10 0 10 -8q0 -6 -41 -39t-51 -33 q-8 0 -96 56.5t-93 56.5q-10 0 -141 -74l-61 -35q-16 0 -17 11z" />
<glyph unicode="&#xc3;" d="M-41 6q0 6 25.5 12.5t38.5 14.5q49 37 92 143q74 195 229 582q113 268 250 635q10 29 33 86q12 27 22 26q10 0 27 -37q2 -2 96 -249q127 -346 385 -1035q23 -61 51 -110q23 -41 66 -56q57 -18 57 -16q0 -10 -14 -10q-33 0 -98.5 4t-98.5 4q-27 0 -82 -3t-82 -3 q-37 0 -36 6q0 6 26 12q18 2 37 6q45 14 45 72q0 43 -24 111l-84 229q-25 68 -31 74q-16 18 -76 18h-410q-47 0 -60 -8t-30 -51l-86 -234q-33 -88 -32 -133q0 -51 38 -73q2 0 29 -9q20 -4 21 -10q0 -10 -21 -10q-20 0 -71.5 3t-71.5 3q-25 0 -66 -3t-65 -3q-29 0 -29 12z M375 610q0 -12 26 -12h398q51 0 51 18q0 4 -109 302q-31 88 -100 262q-12 29 -23 28q-8 0 -18 -22q-27 -53 -106 -260q-119 -305 -119 -316zM419 1599q0 29 75 93.5t114 64.5q57 0 126.5 -38t86.5 -38q57 0 86 37q12 18 24 39l5 -4q0 -35 -45.5 -93t-81.5 -58 q-55 0 -124 36.5t-100 36.5q-57 0 -104 -37q-55 -43 -57 -43z" />
<glyph unicode="&#xc4;" d="M-41 6q0 6 25.5 12.5t38.5 14.5q49 37 92 143q74 195 229 582q113 268 250 635q10 29 33 86q12 27 22 26q10 0 27 -37q2 -2 96 -249q127 -346 385 -1035q23 -61 51 -110q23 -41 66 -56q57 -18 57 -16q0 -10 -14 -10q-33 0 -98.5 4t-98.5 4q-27 0 -82 -3t-82 -3 q-37 0 -36 6q0 6 26 12q18 2 37 6q45 14 45 72q0 43 -24 111l-84 229q-25 68 -31 74q-16 18 -76 18h-410q-47 0 -60 -8t-30 -51l-86 -234q-33 -88 -32 -133q0 -51 38 -73q2 0 29 -9q20 -4 21 -10q0 -10 -21 -10q-20 0 -71.5 3t-71.5 3q-25 0 -66 -3t-65 -3q-29 0 -29 12z M375 610q0 -12 26 -12h398q51 0 51 18q0 4 -109 302q-31 88 -100 262q-12 29 -23 28q-8 0 -18 -22q-27 -53 -106 -260q-119 -305 -119 -316zM403 1669q0 82 82 82t82 -76q0 -88 -84 -88q-80 0 -80 82zM757 1669q0 82 82 82t82 -76q0 -88 -84 -88q-80 0 -80 82z" />
<glyph unicode="&#xc5;" d="M-41 6q0 6 25.5 12.5t38.5 14.5q49 37 92 143q74 195 229 582q113 268 250 635q10 29 33 86q12 27 22 26q10 0 27 -37q2 -2 96 -249q127 -346 385 -1035q23 -61 51 -110q23 -41 66 -56q57 -18 57 -16q0 -10 -14 -10q-33 0 -98.5 4t-98.5 4q-27 0 -82 -3t-82 -3 q-37 0 -36 6q0 6 26 12q18 2 37 6q45 14 45 72q0 43 -24 111l-84 229q-25 68 -31 74q-16 18 -76 18h-410q-47 0 -60 -8t-30 -51l-86 -234q-33 -88 -32 -133q0 -51 38 -73q2 0 29 -9q20 -4 21 -10q0 -10 -21 -10q-20 0 -71.5 3t-71.5 3q-25 0 -66 -3t-65 -3q-29 0 -29 12z M375 610q0 -12 26 -12h398q51 0 51 18q0 4 -109 302q-31 88 -100 262q-12 29 -23 28q-8 0 -18 -22q-27 -53 -106 -260q-119 -305 -119 -316zM469 1702q0 66 57 106q51 35 121 35q68 0 123 -31q66 -39 66 -102q0 -68 -62 -108q-53 -35 -125 -35q-61 0 -116 35q-63 41 -64 100 zM543 1706q0 -43 31.5 -75t74.5 -32q49 0 81 31t32 80q0 45 -33 73.5t-80 28.5t-76.5 -29.5t-29.5 -76.5z" />
<glyph unicode="&#xc6;" horiz-adv-x="1675" d="M-106 6q2 4 4 6q18 0 67 21q61 41 131 143q127 195 385 582q162 233 389 579q-14 88 -122 88q-14 0 -15 9q0 10 17 10q29 0 88 -5t88 -5q80 0 240.5 5t240.5 5q18 0 54 2t55 2q4 0 4 -10v-17q-2 -10 -2 -16q0 -18 2 -56.5t2 -56.5q0 -12 -9 -12q-8 0 -16 14 q-16 33 -33 43q-8 4 -51 16.5t-131 12.5h-221q-37 0 -43 -2q-14 -8 -14 -37v-483q0 -31 7 -36t38 -5h215q102 0 127 22q18 16 28 54q8 29 15 28h4q6 -14 6 -35q0 -16 -3 -47.5t-3 -48.5q0 -23 2 -67.5t2 -67.5q0 -31 -8 -31q-10 0 -11 11q0 45 -34 73q-23 18 -99 19h-256 q-31 0 -30 -37v-471q0 -61 28 -88q43 -39 201 -39q100 0 162 22q51 18 75 54q8 12 19 28h4q8 0 8 -8q0 -23 -22.5 -87t-37 -78.5t-50.5 -14.5q-70 0 -208.5 3t-207.5 3q-37 0 -109.5 -3t-109.5 -3q-51 0 -51 10q0 8 34 12q23 2 45 4q47 14 62 50q25 57 26 452h-405 q-41 0 -56.5 -10t-39.5 -49l-148 -234q-74 -117 -73 -159q0 -20 24 -47q4 -4 23.5 -9.5t19.5 -9.5q0 -8 -22 -8q-20 0 -61.5 2t-61.5 2q-25 0 -76 -2t-76 -2q-27 0 -26 10zM471 606q0 -8 25 -8h376v627q-401 -602 -401 -619z" />
<glyph unicode="&#xc7;" horiz-adv-x="1413" d="M82 731q0 150 53 293q164 442 651 442q172 0 322 -30q6 -2 92 -25q66 -16 86 -16q6 0 12.5 5t10.5 5q6 0 6 -23q0 -14 -3 -41.5t-3 -42.5q0 -20 3 -59t3 -59q0 -31 -8 -31q-6 0 -23 41q0 2 -16 33q-12 25 -47 55q-143 127 -478 127q-252 0 -389 -188q-121 -166 -121 -431 q0 -309 177 -526q190 -233 493 -233q176 0 303 92q59 43 78 86q23 51 25 51q8 0 8 -25q0 -27 -12 -81q-16 -78 -19 -84q-4 -23 -6 -27t-18 -10q-137 -51 -334 -60q-18 -33 -62 -102q203 0 203 -113q0 -92 -164 -172q-68 -33 -237 -86q-29 -8 -29 12q0 8 37 23 q279 104 278 201q0 90 -141 90q-23 0 -22 16l83 129h-30q-358 -2 -560 200t-202 564z" />
<glyph unicode="&#xc8;" horiz-adv-x="1110" d="M133 4q0 8 33 12q20 2 41 4q47 12 61 50q27 70 27 514v694q0 147 -125 147q-18 0 -18 9q0 10 20 10q29 0 88 -5t88 -5q80 0 241 5t240 5q18 0 52 2t53 2q8 0 8 -18v-17q-2 -10 -2 -14q0 -18 2 -53.5t2 -53.5q0 -12 -8 -12t-16 14q-18 33 -33 43q-8 4 -52 16.5t-116 12.5 h-248q-29 0 -37 -5t-8 -34v-483q0 -27 5 -34t30 -7h233q94 0 119 22q18 16 27 39q14 43 16 43q10 0 10 -39q0 -16 -3 -45.5t-3 -46.5q0 -25 2 -73t2 -72q0 -20 -8 -21q-6 0 -8 17q-2 10 -6 24.5t-19 32.5q-23 29 -102 29h-264q-31 0 -31 -37v-479q0 -53 29 -80 q41 -39 200 -39q182 0 236 74q6 10 20 30h4q8 0 9 -8q0 -20 -22.5 -87t-37 -80t-51.5 -13q-70 0 -208 3t-208 3q-37 0 -112.5 -3t-112.5 -3q-39 0 -39 10zM330 1665q0 10 57.5 66.5t67.5 56.5q18 0 151.5 -63.5t159.5 -82.5q15 -10 15 -16q0 -10 -11 -10q-2 0 -28 8 q-66 20 -201 41q-113 16 -133 16q-10 0 -33.5 -13t-34.5 -13q-10 0 -10 10z" />
<glyph unicode="&#xc9;" horiz-adv-x="1110" d="M133 4q0 8 33 12q20 2 41 4q47 12 61 50q27 70 27 514v694q0 147 -125 147q-18 0 -18 9q0 10 20 10q29 0 88 -5t88 -5q80 0 241 5t240 5q18 0 52 2t53 2q8 0 8 -18v-17q-2 -10 -2 -14q0 -18 2 -53.5t2 -53.5q0 -12 -8 -12t-16 14q-18 33 -33 43q-8 4 -52 16.5t-116 12.5 h-248q-29 0 -37 -5t-8 -34v-483q0 -27 5 -34t30 -7h233q94 0 119 22q18 16 27 39q14 43 16 43q10 0 10 -39q0 -16 -3 -45.5t-3 -46.5q0 -25 2 -73t2 -72q0 -20 -8 -21q-6 0 -8 17q-2 10 -6 24.5t-19 32.5q-23 29 -102 29h-264q-31 0 -31 -37v-479q0 -53 29 -80 q41 -39 200 -39q182 0 236 74q6 10 20 30h4q8 0 9 -8q0 -20 -22.5 -87t-37 -80t-51.5 -13q-70 0 -208 3t-208 3q-37 0 -112.5 -3t-112.5 -3q-39 0 -39 10zM385 1626q0 6 14 16q27 18 160 82t152 64q10 0 67.5 -56.5t57.5 -66.5t-11 -10q-10 0 -33.5 13t-33.5 13 q-20 0 -133 -16q-135 -20 -201 -41q-27 -8 -29 -8q-10 0 -10 10z" />
<glyph unicode="&#xca;" horiz-adv-x="1110" d="M133 4q0 8 33 12q20 2 41 4q47 12 61 50q27 70 27 514v694q0 147 -125 147q-18 0 -18 9q0 10 20 10q29 0 88 -5t88 -5q80 0 241 5t240 5q18 0 52 2t53 2q8 0 8 -18v-17q-2 -10 -2 -14q0 -18 2 -53.5t2 -53.5q0 -12 -8 -12t-16 14q-18 33 -33 43q-8 4 -52 16.5t-116 12.5 h-248q-29 0 -37 -5t-8 -34v-483q0 -27 5 -34t30 -7h233q94 0 119 22q18 16 27 39q14 43 16 43q10 0 10 -39q0 -16 -3 -45.5t-3 -46.5q0 -25 2 -73t2 -72q0 -20 -8 -21q-6 0 -8 17q-2 10 -6 24.5t-19 32.5q-23 29 -102 29h-264q-31 0 -31 -37v-479q0 -53 29 -80 q41 -39 200 -39q182 0 236 74q6 10 20 30h4q8 0 9 -8q0 -20 -22.5 -87t-37 -80t-51.5 -13q-70 0 -208 3t-208 3q-37 0 -112.5 -3t-112.5 -3q-39 0 -39 10zM333 1610q0 14 27 28q96 59 248 152q12 8 20 8q-2 0 31 -22q150 -104 147 -105q4 0 9.5 2t7.5 2q10 0 10 -8 q0 -6 -41 -39t-51 -33q-8 0 -96 56.5t-93 56.5q-10 0 -141 -74l-61 -35q-16 0 -17 11z" />
<glyph unicode="&#xcb;" horiz-adv-x="1110" d="M133 4q0 8 33 12q20 2 41 4q47 12 61 50q27 70 27 514v694q0 147 -125 147q-18 0 -18 9q0 10 20 10q29 0 88 -5t88 -5q80 0 241 5t240 5q18 0 52 2t53 2q8 0 8 -18v-17q-2 -10 -2 -14q0 -18 2 -53.5t2 -53.5q0 -12 -8 -12t-16 14q-18 33 -33 43q-8 4 -52 16.5t-116 12.5 h-248q-29 0 -37 -5t-8 -34v-483q0 -27 5 -34t30 -7h233q94 0 119 22q18 16 27 39q14 43 16 43q10 0 10 -39q0 -16 -3 -45.5t-3 -46.5q0 -25 2 -73t2 -72q0 -20 -8 -21q-6 0 -8 17q-2 10 -6 24.5t-19 32.5q-23 29 -102 29h-264q-31 0 -31 -37v-479q0 -53 29 -80 q41 -39 200 -39q182 0 236 74q6 10 20 30h4q8 0 9 -8q0 -20 -22.5 -87t-37 -80t-51.5 -13q-70 0 -208 3t-208 3q-37 0 -112.5 -3t-112.5 -3q-39 0 -39 10zM322 1669q0 82 82 82t82 -76q0 -88 -84 -88q-80 0 -80 82zM676 1669q0 82 82 82t82 -76q0 -88 -84 -88q-80 0 -80 82z " />
<glyph unicode="&#xcc;" horiz-adv-x="741" d="M90 1665q0 10 57.5 66.5t67.5 56.5q18 0 151.5 -63.5t159.5 -82.5q15 -10 15 -16q0 -10 -11 -10q-2 0 -28 8q-66 20 -201 41q-113 16 -133 16q-10 0 -33.5 -13t-34.5 -13q-10 0 -10 10zM143 1434q0 8 35 8q27 0 78 -4t78 -4q31 0 93 7t93 7q39 0 39 -12q0 -6 -33 -15 q-41 -12 -51 -18q-49 -31 -49 -160v-956q0 -113 4 -140q12 -82 62 -116q18 -12 63 -17q37 -4 37 -12q0 -10 -17 -10q-31 0 -94 4t-96 4q-35 0 -102.5 -2t-100.5 -2q-27 0 -26 10q0 10 26 10q47 0 74 31q39 45 39 203v999q0 123 -51 152q-10 6 -60 16q-41 8 -41 17z" />
<glyph unicode="&#xcd;" horiz-adv-x="741" d="M143 1434q0 8 35 8q27 0 78 -4t78 -4q31 0 93 7t93 7q39 0 39 -12q0 -6 -33 -15q-41 -12 -51 -18q-49 -31 -49 -160v-956q0 -113 4 -140q12 -82 62 -116q18 -12 63 -17q37 -4 37 -12q0 -10 -17 -10q-31 0 -94 4t-96 4q-35 0 -102.5 -2t-100.5 -2q-27 0 -26 10q0 10 26 10 q47 0 74 31q39 45 39 203v999q0 123 -51 152q-10 6 -60 16q-41 8 -41 17zM207 1626q0 6 14 16q27 18 160 82t152 64q10 0 67.5 -56.5t57.5 -66.5t-11 -10q-10 0 -33.5 13t-33.5 13q-20 0 -133 -16q-135 -20 -201 -41q-27 -8 -29 -8q-10 0 -10 10z" />
<glyph unicode="&#xce;" horiz-adv-x="741" d="M131 1610q0 14 27 28q96 59 248 152q12 8 20 8q-2 0 31 -22q150 -104 147 -105q4 0 9.5 2t7.5 2q10 0 10 -8q0 -6 -41 -39t-51 -33q-8 0 -96 56.5t-93 56.5q-10 0 -141 -74l-61 -35q-16 0 -17 11zM143 1434q0 8 35 8q27 0 78 -4t78 -4q31 0 93 7t93 7q39 0 39 -12 q0 -6 -33 -15q-41 -12 -51 -18q-49 -31 -49 -160v-956q0 -113 4 -140q12 -82 62 -116q18 -12 63 -17q37 -4 37 -12q0 -10 -17 -10q-31 0 -94 4t-96 4q-35 0 -102.5 -2t-100.5 -2q-27 0 -26 10q0 10 26 10q47 0 74 31q39 45 39 203v999q0 123 -51 152q-10 6 -60 16 q-41 8 -41 17z" />
<glyph unicode="&#xcf;" horiz-adv-x="741" d="M119 1669q0 82 82 82t82 -76q0 -88 -84 -88q-80 0 -80 82zM143 1434q0 8 35 8q27 0 78 -4t78 -4q31 0 93 7t93 7q39 0 39 -12q0 -6 -33 -15q-41 -12 -51 -18q-49 -31 -49 -160v-956q0 -113 4 -140q12 -82 62 -116q18 -12 63 -17q37 -4 37 -12q0 -10 -17 -10q-31 0 -94 4 t-96 4q-35 0 -102.5 -2t-100.5 -2q-27 0 -26 10q0 10 26 10q47 0 74 31q39 45 39 203v999q0 123 -51 152q-10 6 -60 16q-41 8 -41 17zM473 1669q0 82 82 82t82 -76q0 -88 -84 -88q-80 0 -80 82z" />
<glyph unicode="&#xd0;" horiz-adv-x="1615" d="M78 672v86h225v499q0 158 -129 158q-16 0 -16 10q0 12 47 13q27 0 79 -2t78 -2q74 0 220.5 7t220.5 7q250 0 401 -84q160 -88 248 -262q82 -164 82 -354q0 -350 -193 -553q-199 -211 -548 -211q-70 0 -211.5 8t-210.5 8q-33 0 -98.5 -4t-98.5 -4q-31 0 -31 16q0 6 45 6 q59 0 87 51.5t28 249.5v357h-225zM434 469q0 -322 31 -350q6 -6 39 -23q115 -57 317 -57q578 0 578 651q0 190 -88 359q-92 176 -254 264q-141 78 -348 78q-238 0 -254 -17q-20 -23 -21 -74v-542h430v-86h-430v-203z" />
<glyph unicode="&#xd1;" horiz-adv-x="1740" d="M123 0q0 8 31 12q39 8 51 17q49 35 49 221v1081q0 125 16 125t78 -67q285 -313 492 -537l352 -383q59 -66 180 -197q23 -25 31 -24q10 0 10 53v14l-12 807q-4 223 -35 264q-25 31 -66 41q-29 6 -28 11q0 10 18 10q25 0 75 -7t75 -7t76 5t75 5q27 0 27 -8q0 -4 -29 -13 q-35 -10 -43 -16q-39 -23 -39 -272v-1106q0 -70 -12 -70q-16 0 -111 102l-811 879q-45 51 -135 150q-39 41 -61 40q-8 0 -8 -43v-843q0 -162 59 -207q25 -18 54 -23l30 -6q0 -18 -39 -18q-27 0 -81 5t-81 5t-78 -3t-77 -3q-33 0 -33 6zM610 1599q0 29 75 93.5t114 64.5 q57 0 126.5 -38t86.5 -38q57 0 86 37q12 18 24 39l5 -4q0 -35 -45.5 -93t-81.5 -58q-55 0 -124 36.5t-100 36.5q-57 0 -104 -37q-55 -43 -57 -43z" />
<glyph unicode="&#xd2;" horiz-adv-x="1576" d="M82 705q0 131 22 221q59 236 232 385q182 156 420 155q172 0 276 -36q213 -76 338 -264.5t125 -417.5q0 -338 -166 -549q-184 -231 -512 -232q-330 0 -532.5 204t-202.5 534zM233 782q0 -295 150 -510q170 -244 453 -243q246 0 385 159q131 152 131 402q0 313 -138 543 q-164 272 -456 272q-260 0 -400 -188q-125 -166 -125 -435zM506 1665q0 10 57.5 66.5t67.5 56.5q18 0 151.5 -63.5t159.5 -82.5q15 -10 15 -16q0 -10 -11 -10q-2 0 -28 8q-66 20 -201 41q-113 16 -133 16q-10 0 -33.5 -13t-34.5 -13q-10 0 -10 10z" />
<glyph unicode="&#xd3;" horiz-adv-x="1576" d="M82 705q0 131 22 221q59 236 232 385q182 156 420 155q172 0 276 -36q213 -76 338 -264.5t125 -417.5q0 -338 -166 -549q-184 -231 -512 -232q-330 0 -532.5 204t-202.5 534zM233 782q0 -295 150 -510q170 -244 453 -243q246 0 385 159q131 152 131 402q0 313 -138 543 q-164 272 -456 272q-260 0 -400 -188q-125 -166 -125 -435zM594 1626q0 6 14 16q27 18 160 82t152 64q10 0 67.5 -56.5t57.5 -66.5t-11 -10q-10 0 -33.5 13t-33.5 13q-20 0 -133 -16q-135 -20 -201 -41q-27 -8 -29 -8q-10 0 -10 10z" />
<glyph unicode="&#xd4;" horiz-adv-x="1576" d="M82 705q0 131 22 221q59 236 232 385q182 156 420 155q172 0 276 -36q213 -76 338 -264.5t125 -417.5q0 -338 -166 -549q-184 -231 -512 -232q-330 0 -532.5 204t-202.5 534zM233 782q0 -295 150 -510q170 -244 453 -243q246 0 385 159q131 152 131 402q0 313 -138 543 q-164 272 -456 272q-260 0 -400 -188q-125 -166 -125 -435zM526 1610q0 14 27 28q96 59 248 152q12 8 20 8q-2 0 31 -22q150 -104 147 -105q4 0 9.5 2t7.5 2q10 0 10 -8q0 -6 -41 -39t-51 -33q-8 0 -96 56.5t-93 56.5q-10 0 -141 -74l-61 -35q-16 0 -17 11z" />
<glyph unicode="&#xd5;" horiz-adv-x="1576" d="M82 705q0 131 22 221q59 236 232 385q182 156 420 155q172 0 276 -36q213 -76 338 -264.5t125 -417.5q0 -338 -166 -549q-184 -231 -512 -232q-330 0 -532.5 204t-202.5 534zM233 782q0 -295 150 -510q170 -244 453 -243q246 0 385 159q131 152 131 402q0 313 -138 543 q-164 272 -456 272q-260 0 -400 -188q-125 -166 -125 -435zM509 1599q0 29 75 93.5t114 64.5q57 0 126.5 -38t86.5 -38q57 0 86 37q12 18 24 39l5 -4q0 -35 -45.5 -93t-81.5 -58q-55 0 -124 36.5t-100 36.5q-57 0 -104 -37q-55 -43 -57 -43z" />
<glyph unicode="&#xd6;" horiz-adv-x="1576" d="M82 705q0 131 22 221q59 236 232 385q182 156 420 155q172 0 276 -36q213 -76 338 -264.5t125 -417.5q0 -338 -166 -549q-184 -231 -512 -232q-330 0 -532.5 204t-202.5 534zM233 782q0 -295 150 -510q170 -244 453 -243q246 0 385 159q131 152 131 402q0 313 -138 543 q-164 272 -456 272q-260 0 -400 -188q-125 -166 -125 -435zM510 1669q0 82 82 82t82 -76q0 -88 -84 -88q-80 0 -80 82zM864 1669q0 82 82 82t82 -76q0 -88 -84 -88q-80 0 -80 82z" />
<glyph unicode="&#xd7;" horiz-adv-x="1044" d="M82 969q0 217 106 350q115 147 326 147q94 0 184 -49q135 -74 203 -227q62 -135 62 -305q0 -270 -196 -535.5t-452 -363.5q-80 -31 -102 -31q-14 0 -14 16q0 4 30 17q18 6 35 12q47 20 107 61q209 143 327 400q98 211 99 508q0 162 -72 286q-88 150 -238 150 q-127 0 -200 -115q-66 -100 -66 -233q0 -268 172 -381q63 -41 131 -41q43 0 72 10q53 18 43 19q12 0 12 -5q0 -35 -78 -55q-55 -14 -104 -14q-164 0 -275.5 107.5t-111.5 271.5z" />
<glyph unicode="&#xd8;" horiz-adv-x="1576" d="M82 705q0 133 22 221q61 238 232 385q180 156 420 155q268 0 442 -125l84 107q2 8 8 8q16 0 64 -47q0 -2 -2 -4l-90 -113q233 -212 233 -544q0 -338 -168 -549q-182 -231 -510 -232q-291 0 -479 152q-61 -80 -131 -160q-2 0 -64 49q-2 0 -2 2t133 168q-193 205 -192 527z M217 791q0 -272 148 -498l759 956q-154 156 -366 156q-258 0 -406 -182q-135 -168 -135 -432zM418 221q168 -193 418 -192q246 0 385 159q131 152 131 402q0 356 -174 596z" />
<glyph unicode="&#xd9;" horiz-adv-x="1644" d="M92 1427q0 14 27 15q31 0 90 -4t90 -4q35 0 102.5 5t100.5 5q16 0 16 -10q0 -4 -26 -11q-35 -8 -37 -10q-90 -39 -90 -401v-529q0 -186 59 -272q119 -170 383 -170q524 0 524 442v398q0 465 -49 499q-41 31 -119 37q-14 2 -14 4q0 20 35 21q31 0 94 -4t94 -4q29 0 84 2 t84 2q23 -1 23 -17q0 -6 -25 -6q-88 0 -111 -112q-8 -37 -8 -181v-587q0 -299 -157 -439q-150 -129 -455 -129q-582 0 -582 463v803q0 127 -20.5 147.5t-81.5 34.5q-31 8 -31 12zM571 1665q0 10 57.5 66.5t67.5 56.5q18 0 151.5 -63.5t159.5 -82.5q15 -10 15 -16 q0 -10 -11 -10q-2 0 -28 8q-66 20 -201 41q-113 16 -133 16q-10 0 -33.5 -13t-34.5 -13q-10 0 -10 10z" />
<glyph unicode="&#xda;" horiz-adv-x="1644" d="M92 1427q0 14 27 15q31 0 90 -4t90 -4q35 0 102.5 5t100.5 5q16 0 16 -10q0 -4 -26 -11q-35 -8 -37 -10q-90 -39 -90 -401v-529q0 -186 59 -272q119 -170 383 -170q524 0 524 442v398q0 465 -49 499q-41 31 -119 37q-14 2 -14 4q0 20 35 21q31 0 94 -4t94 -4q29 0 84 2 t84 2q23 -1 23 -17q0 -6 -25 -6q-88 0 -111 -112q-8 -37 -8 -181v-587q0 -299 -157 -439q-150 -129 -455 -129q-582 0 -582 463v803q0 127 -20.5 147.5t-81.5 34.5q-31 8 -31 12zM602 1626q0 6 14 16q27 18 160 82t152 64q10 0 67.5 -56.5t57.5 -66.5t-11 -10 q-10 0 -33.5 13t-33.5 13q-20 0 -133 -16q-135 -20 -201 -41q-27 -8 -29 -8q-10 0 -10 10z" />
<glyph unicode="&#xdb;" horiz-adv-x="1644" d="M92 1427q0 14 27 15q31 0 90 -4t90 -4q35 0 102.5 5t100.5 5q16 0 16 -10q0 -4 -26 -11q-35 -8 -37 -10q-90 -39 -90 -401v-529q0 -186 59 -272q119 -170 383 -170q524 0 524 442v398q0 465 -49 499q-41 31 -119 37q-14 2 -14 4q0 20 35 21q31 0 94 -4t94 -4q29 0 84 2 t84 2q23 -1 23 -17q0 -6 -25 -6q-88 0 -111 -112q-8 -37 -8 -181v-587q0 -299 -157 -439q-150 -129 -455 -129q-582 0 -582 463v803q0 127 -20.5 147.5t-81.5 34.5q-31 8 -31 12zM577 1610q0 14 27 28q96 59 248 152q12 8 20 8q-2 0 31 -22q150 -104 147 -105q4 0 9.5 2 t7.5 2q10 0 10 -8q0 -6 -41 -39t-51 -33q-8 0 -96 56.5t-93 56.5q-10 0 -141 -74l-61 -35q-16 0 -17 11z" />
<glyph unicode="&#xdc;" horiz-adv-x="1644" d="M92 1427q0 14 27 15q31 0 90 -4t90 -4q35 0 102.5 5t100.5 5q16 0 16 -10q0 -4 -26 -11q-35 -8 -37 -10q-90 -39 -90 -401v-529q0 -186 59 -272q119 -170 383 -170q524 0 524 442v398q0 465 -49 499q-41 31 -119 37q-14 2 -14 4q0 20 35 21q31 0 94 -4t94 -4q29 0 84 2 t84 2q23 -1 23 -17q0 -6 -25 -6q-88 0 -111 -112q-8 -37 -8 -181v-587q0 -299 -157 -439q-150 -129 -455 -129q-582 0 -582 463v803q0 127 -20.5 147.5t-81.5 34.5q-31 8 -31 12zM576 1669q0 82 82 82t82 -76q0 -88 -84 -88q-80 0 -80 82zM930 1669q0 82 82 82t82 -76 q0 -88 -84 -88q-80 0 -80 82z" />
<glyph unicode="&#xdd;" horiz-adv-x="1318" d="M-82 1432q0 14 51 14q29 0 84.5 -6t83.5 -6q27 0 78 7t78 7q43 0 43 -8q0 -2 -33 -14.5t-33 -32.5q0 -51 43 -115l191 -283q51 -74 151 -221q10 -16 21 -16q10 0 22 16l154 215q258 360 258 395q0 39 -31 50q-2 8 17 8q14 0 42.5 -4t43.5 -4q27 0 81 7t80 7q58 0 58 -16 q0 -2 -12 -2q-31 0 -72 -17q-61 -25 -127 -110q-186 -242 -410 -560q-47 -68 -47 -118v-451q0 -80 29 -113q47 -55 119 -55q10 0 10 -6q0 -10 -41 -10q-31 0 -91.5 5t-90.5 5q-29 0 -84.5 -5t-81.5 -5q-43 0 -43 8t28 8q80 0 101 135q4 31 4 68v407q0 29 -37 82l-428 613 q-45 63 -94 88q-8 4 -88 22q-27 6 -27 11zM604 1626q0 6 14 16q27 18 160 82t152 64q10 0 67.5 -56.5t57.5 -66.5t-11 -10q-10 0 -33.5 13t-33.5 13q-20 0 -133 -16q-135 -20 -201 -41q-27 -8 -29 -8q-10 0 -10 10z" />
<glyph unicode="&#xde;" horiz-adv-x="1175" d="M154 -2q0 6 30 12q51 10 78 47q33 45 33 228v989q0 104 -62 137q-8 4 -34.5 10t-26.5 11q0 10 14 10q29 0 88.5 -4t87.5 -4q27 0 80.5 7t79.5 7q35 0 35 -14q0 -4 -4 -7q-29 -4 -88 -30q-39 -29 -39 -174q0 -51 39 -52q27 0 81 3.5t81 3.5q131 0 217 -33 q117 -45 184.5 -137t67.5 -215q0 -188 -101 -318q-109 -141 -288 -141q-27 0 -74 8q-59 8 -60 20q0 6 7 7q16 0 47.5 -6.5t48.5 -6.5q104 0 180 76q70 74 84 178q6 39 6 88q0 416 -391 416q-55 0 -92 -4t-37 -231v-412q0 -375 33 -412q41 -47 112 -47q20 0 21 -10 q0 -12 -49 -12q-33 0 -100.5 7t-100.5 7q-27 0 -80 -5t-80 -5q-29 0 -28 8z" />
<glyph unicode="&#xdf;" horiz-adv-x="1945" d="M102 190q0 90 13 91q2 0 4 -2q4 -25 10 -60q4 -20 12 -37q72 -154 312 -153q109 0 180 47q57 39 95 109.5t38 138.5q0 156 -207 284l-219 137q-211 131 -211 371q0 90 44 173t120 126q92 51 239 51q59 0 166 -16q80 -12 93 -12q20 0 30 5t15 5q6 0 6 -8t-5.5 -25.5 t-5.5 -25.5q0 -16 2.5 -48t2.5 -49q0 -98 -19 -98l-14 55q-12 47 -55 86q-86 76 -248 76q-113 0 -187 -61q-82 -66 -82 -174q0 -174 211 -308l211 -133q109 -70 158 -137q59 -84 59 -201q0 -207 -180 -344q-113 -86 -266 -86q-170 0 -291 49q-29 12 -29 25v76q-2 49 -2 73z M1075 190q0 90 12 91q2 0 5 -2q4 -25 10 -60q4 -20 12 -37q72 -154 311 -153q109 0 181 47q57 39 95 109.5t38 138.5q0 156 -207 284l-219 137q-211 131 -211 371q0 90 44 173t120 126q92 51 239 51q59 0 166 -16q80 -12 92 -12q20 0 30.5 5t14.5 5q6 0 7 -8 q0 -8 -5.5 -25.5t-5.5 -25.5q0 -16 2 -48t2 -49q0 -98 -18 -98l-14 55q-12 47 -56 86q-86 76 -247 76q-113 0 -187 -61q-82 -66 -82 -174q0 -174 211 -308l211 -133q109 -70 158 -137q59 -84 59 -201q0 -207 -180 -344q-113 -86 -266 -86q-170 0 -291 49q-29 12 -29 25v76 q-2 49 -2 73z" />
<glyph unicode="&#xe0;" d="M-41 6q0 6 25.5 12.5t38.5 14.5q49 37 92 143q74 195 229 582q113 268 250 635q10 29 33 86q12 27 22 26q10 0 27 -37q2 -2 96 -249q127 -346 385 -1035q23 -61 51 -110q23 -41 66 -56q57 -18 57 -16q0 -10 -14 -10q-33 0 -98.5 4t-98.5 4q-27 0 -82 -3t-82 -3 q-37 0 -36 6q0 6 26 12q18 2 37 6q45 14 45 72q0 43 -24 111l-84 229q-25 68 -31 74q-16 18 -76 18h-410q-47 0 -60 -8t-30 -51l-86 -234q-33 -88 -32 -133q0 -51 38 -73q2 0 29 -9q20 -4 21 -10q0 -10 -21 -10q-20 0 -71.5 3t-71.5 3q-25 0 -66 -3t-65 -3q-29 0 -29 12z M350 1665q0 10 57.5 66.5t67.5 56.5q18 0 151.5 -63.5t159.5 -82.5q15 -10 15 -16q0 -10 -11 -10q-2 0 -28 8q-66 20 -201 41q-113 16 -133 16q-10 0 -33.5 -13t-34.5 -13q-10 0 -10 10zM375 610q0 -12 26 -12h398q51 0 51 18q0 4 -109 302q-31 88 -100 262q-12 29 -23 28 q-8 0 -18 -22q-27 -53 -106 -260q-119 -305 -119 -316z" />
<glyph unicode="&#xe1;" d="M-41 6q0 6 25.5 12.5t38.5 14.5q49 37 92 143q74 195 229 582q113 268 250 635q10 29 33 86q12 27 22 26q10 0 27 -37q2 -2 96 -249q127 -346 385 -1035q23 -61 51 -110q23 -41 66 -56q57 -18 57 -16q0 -10 -14 -10q-33 0 -98.5 4t-98.5 4q-27 0 -82 -3t-82 -3 q-37 0 -36 6q0 6 26 12q18 2 37 6q45 14 45 72q0 43 -24 111l-84 229q-25 68 -31 74q-16 18 -76 18h-410q-47 0 -60 -8t-30 -51l-86 -234q-33 -88 -32 -133q0 -51 38 -73q2 0 29 -9q20 -4 21 -10q0 -10 -21 -10q-20 0 -71.5 3t-71.5 3q-25 0 -66 -3t-65 -3q-29 0 -29 12z M375 610q0 -12 26 -12h398q51 0 51 18q0 4 -109 302q-31 88 -100 262q-12 29 -23 28q-8 0 -18 -22q-27 -53 -106 -260q-119 -305 -119 -316zM465 1626q0 6 14 16q27 18 160 82t152 64q10 0 67.5 -56.5t57.5 -66.5t-11 -10q-10 0 -33.5 13t-33.5 13q-20 0 -133 -16 q-135 -20 -201 -41q-27 -8 -29 -8q-10 0 -10 10z" />
<glyph unicode="&#xe2;" d="M-41 6q0 6 25.5 12.5t38.5 14.5q49 37 92 143q74 195 229 582q113 268 250 635q10 29 33 86q12 27 22 26q10 0 27 -37q2 -2 96 -249q127 -346 385 -1035q23 -61 51 -110q23 -41 66 -56q57 -18 57 -16q0 -10 -14 -10q-33 0 -98.5 4t-98.5 4q-27 0 -82 -3t-82 -3 q-37 0 -36 6q0 6 26 12q18 2 37 6q45 14 45 72q0 43 -24 111l-84 229q-25 68 -31 74q-16 18 -76 18h-410q-47 0 -60 -8t-30 -51l-86 -234q-33 -88 -32 -133q0 -51 38 -73q2 0 29 -9q20 -4 21 -10q0 -10 -21 -10q-20 0 -71.5 3t-71.5 3q-25 0 -66 -3t-65 -3q-29 0 -29 12z M375 610q0 -12 26 -12h398q51 0 51 18q0 4 -109 302q-31 88 -100 262q-12 29 -23 28q-8 0 -18 -22q-27 -53 -106 -260q-119 -305 -119 -316zM438 1610q0 14 27 28q96 59 248 152q12 8 20 8q-2 0 31 -22q150 -104 147 -105q4 0 9.5 2t7.5 2q10 0 10 -8q0 -6 -41 -39t-51 -33 q-8 0 -96 56.5t-93 56.5q-10 0 -141 -74l-61 -35q-16 0 -17 11z" />
<glyph unicode="&#xe3;" d="M-41 6q0 6 25.5 12.5t38.5 14.5q49 37 92 143q74 195 229 582q113 268 250 635q10 29 33 86q12 27 22 26q10 0 27 -37q2 -2 96 -249q127 -346 385 -1035q23 -61 51 -110q23 -41 66 -56q57 -18 57 -16q0 -10 -14 -10q-33 0 -98.5 4t-98.5 4q-27 0 -82 -3t-82 -3 q-37 0 -36 6q0 6 26 12q18 2 37 6q45 14 45 72q0 43 -24 111l-84 229q-25 68 -31 74q-16 18 -76 18h-410q-47 0 -60 -8t-30 -51l-86 -234q-33 -88 -32 -133q0 -51 38 -73q2 0 29 -9q20 -4 21 -10q0 -10 -21 -10q-20 0 -71.5 3t-71.5 3q-25 0 -66 -3t-65 -3q-29 0 -29 12z M375 610q0 -12 26 -12h398q51 0 51 18q0 4 -109 302q-31 88 -100 262q-12 29 -23 28q-8 0 -18 -22q-27 -53 -106 -260q-119 -305 -119 -316zM419 1599q0 29 75 93.5t114 64.5q57 0 126.5 -38t86.5 -38q57 0 86 37q12 18 24 39l5 -4q0 -35 -45.5 -93t-81.5 -58 q-55 0 -124 36.5t-100 36.5q-57 0 -104 -37q-55 -43 -57 -43z" />
<glyph unicode="&#xe4;" d="M-41 6q0 6 25.5 12.5t38.5 14.5q49 37 92 143q74 195 229 582q113 268 250 635q10 29 33 86q12 27 22 26q10 0 27 -37q2 -2 96 -249q127 -346 385 -1035q23 -61 51 -110q23 -41 66 -56q57 -18 57 -16q0 -10 -14 -10q-33 0 -98.5 4t-98.5 4q-27 0 -82 -3t-82 -3 q-37 0 -36 6q0 6 26 12q18 2 37 6q45 14 45 72q0 43 -24 111l-84 229q-25 68 -31 74q-16 18 -76 18h-410q-47 0 -60 -8t-30 -51l-86 -234q-33 -88 -32 -133q0 -51 38 -73q2 0 29 -9q20 -4 21 -10q0 -10 -21 -10q-20 0 -71.5 3t-71.5 3q-25 0 -66 -3t-65 -3q-29 0 -29 12z M375 610q0 -12 26 -12h398q51 0 51 18q0 4 -109 302q-31 88 -100 262q-12 29 -23 28q-8 0 -18 -22q-27 -53 -106 -260q-119 -305 -119 -316zM403 1669q0 82 82 82t82 -76q0 -88 -84 -88q-80 0 -80 82zM757 1669q0 82 82 82t82 -76q0 -88 -84 -88q-80 0 -80 82z" />
<glyph unicode="&#xe5;" d="M-41 6q0 6 25.5 12.5t38.5 14.5q49 37 92 143q74 195 229 582q113 268 250 635q10 29 33 86q12 27 22 26q10 0 27 -37q2 -2 96 -249q127 -346 385 -1035q23 -61 51 -110q23 -41 66 -56q57 -18 57 -16q0 -10 -14 -10q-33 0 -98.5 4t-98.5 4q-27 0 -82 -3t-82 -3 q-37 0 -36 6q0 6 26 12q18 2 37 6q45 14 45 72q0 43 -24 111l-84 229q-25 68 -31 74q-16 18 -76 18h-410q-47 0 -60 -8t-30 -51l-86 -234q-33 -88 -32 -133q0 -51 38 -73q2 0 29 -9q20 -4 21 -10q0 -10 -21 -10q-20 0 -71.5 3t-71.5 3q-25 0 -66 -3t-65 -3q-29 0 -29 12z M375 610q0 -12 26 -12h398q51 0 51 18q0 4 -109 302q-31 88 -100 262q-12 29 -23 28q-8 0 -18 -22q-27 -53 -106 -260q-119 -305 -119 -316zM469 1702q0 66 57 106q51 35 121 35q68 0 123 -31q66 -39 66 -102q0 -68 -62 -108q-53 -35 -125 -35q-61 0 -116 35q-63 41 -64 100 zM543 1706q0 -43 31.5 -75t74.5 -32q49 0 81 31t32 80q0 45 -33 73.5t-80 28.5t-76.5 -29.5t-29.5 -76.5z" />
<glyph unicode="&#xe6;" horiz-adv-x="1675" d="M-106 6q2 4 4 6q18 0 67 21q61 41 131 143q127 195 385 582q162 233 389 579q-14 88 -122 88q-14 0 -15 9q0 10 17 10q29 0 88 -5t88 -5q80 0 240.5 5t240.5 5q18 0 54 2t55 2q4 0 4 -10v-17q-2 -10 -2 -16q0 -18 2 -56.5t2 -56.5q0 -12 -9 -12q-8 0 -16 14 q-16 33 -33 43q-8 4 -51 16.5t-131 12.5h-221q-37 0 -43 -2q-14 -8 -14 -37v-483q0 -31 7 -36t38 -5h215q102 0 127 22q18 16 28 54q8 29 15 28h4q6 -14 6 -35q0 -16 -3 -47.5t-3 -48.5q0 -23 2 -67.5t2 -67.5q0 -31 -8 -31q-10 0 -11 11q0 45 -34 73q-23 18 -99 19h-256 q-31 0 -30 -37v-471q0 -61 28 -88q43 -39 201 -39q100 0 162 22q51 18 75 54q8 12 19 28h4q8 0 8 -8q0 -23 -22.5 -87t-37 -78.5t-50.5 -14.5q-70 0 -208.5 3t-207.5 3q-37 0 -109.5 -3t-109.5 -3q-51 0 -51 10q0 8 34 12q23 2 45 4q47 14 62 50q25 57 26 452h-405 q-41 0 -56.5 -10t-39.5 -49l-148 -234q-74 -117 -73 -159q0 -20 24 -47q4 -4 23.5 -9.5t19.5 -9.5q0 -8 -22 -8q-20 0 -61.5 2t-61.5 2q-25 0 -76 -2t-76 -2q-27 0 -26 10zM471 606q0 -8 25 -8h376v627q-401 -602 -401 -619z" />
<glyph unicode="&#xe7;" horiz-adv-x="1413" d="M82 731q0 150 53 293q164 442 651 442q172 0 322 -30q6 -2 92 -25q66 -16 86 -16q6 0 12.5 5t10.5 5q6 0 6 -23q0 -14 -3 -41.5t-3 -42.5q0 -20 3 -59t3 -59q0 -31 -8 -31q-6 0 -23 41q0 2 -16 33q-12 25 -47 55q-143 127 -478 127q-252 0 -389 -188q-121 -166 -121 -431 q0 -309 177 -526q190 -233 493 -233q176 0 303 92q59 43 78 86q23 51 25 51q8 0 8 -25q0 -27 -12 -81q-16 -78 -19 -84q-4 -23 -6 -27t-18 -10q-137 -51 -334 -60q-18 -33 -62 -102q203 0 203 -113q0 -92 -164 -172q-68 -33 -237 -86q-29 -8 -29 12q0 8 37 23 q279 104 278 201q0 90 -141 90q-23 0 -22 16l83 129h-30q-358 -2 -560 200t-202 564z" />
<glyph unicode="&#xe8;" horiz-adv-x="1110" d="M133 4q0 8 33 12q20 2 41 4q47 12 61 50q27 70 27 514v694q0 147 -125 147q-18 0 -18 9q0 10 20 10q29 0 88 -5t88 -5q80 0 241 5t240 5q18 0 52 2t53 2q8 0 8 -18v-17q-2 -10 -2 -14q0 -18 2 -53.5t2 -53.5q0 -12 -8 -12t-16 14q-18 33 -33 43q-8 4 -52 16.5t-116 12.5 h-248q-29 0 -37 -5t-8 -34v-483q0 -27 5 -34t30 -7h233q94 0 119 22q18 16 27 39q14 43 16 43q10 0 10 -39q0 -16 -3 -45.5t-3 -46.5q0 -25 2 -73t2 -72q0 -20 -8 -21q-6 0 -8 17q-2 10 -6 24.5t-19 32.5q-23 29 -102 29h-264q-31 0 -31 -37v-479q0 -53 29 -80 q41 -39 200 -39q182 0 236 74q6 10 20 30h4q8 0 9 -8q0 -20 -22.5 -87t-37 -80t-51.5 -13q-70 0 -208 3t-208 3q-37 0 -112.5 -3t-112.5 -3q-39 0 -39 10zM330 1665q0 10 57.5 66.5t67.5 56.5q18 0 151.5 -63.5t159.5 -82.5q15 -10 15 -16q0 -10 -11 -10q-2 0 -28 8 q-66 20 -201 41q-113 16 -133 16q-10 0 -33.5 -13t-34.5 -13q-10 0 -10 10z" />
<glyph unicode="&#xe9;" horiz-adv-x="1110" d="M133 4q0 8 33 12q20 2 41 4q47 12 61 50q27 70 27 514v694q0 147 -125 147q-18 0 -18 9q0 10 20 10q29 0 88 -5t88 -5q80 0 241 5t240 5q18 0 52 2t53 2q8 0 8 -18v-17q-2 -10 -2 -14q0 -18 2 -53.5t2 -53.5q0 -12 -8 -12t-16 14q-18 33 -33 43q-8 4 -52 16.5t-116 12.5 h-248q-29 0 -37 -5t-8 -34v-483q0 -27 5 -34t30 -7h233q94 0 119 22q18 16 27 39q14 43 16 43q10 0 10 -39q0 -16 -3 -45.5t-3 -46.5q0 -25 2 -73t2 -72q0 -20 -8 -21q-6 0 -8 17q-2 10 -6 24.5t-19 32.5q-23 29 -102 29h-264q-31 0 -31 -37v-479q0 -53 29 -80 q41 -39 200 -39q182 0 236 74q6 10 20 30h4q8 0 9 -8q0 -20 -22.5 -87t-37 -80t-51.5 -13q-70 0 -208 3t-208 3q-37 0 -112.5 -3t-112.5 -3q-39 0 -39 10zM385 1626q0 6 14 16q27 18 160 82t152 64q10 0 67.5 -56.5t57.5 -66.5t-11 -10q-10 0 -33.5 13t-33.5 13 q-20 0 -133 -16q-135 -20 -201 -41q-27 -8 -29 -8q-10 0 -10 10z" />
<glyph unicode="&#xea;" horiz-adv-x="1110" d="M133 4q0 8 33 12q20 2 41 4q47 12 61 50q27 70 27 514v694q0 147 -125 147q-18 0 -18 9q0 10 20 10q29 0 88 -5t88 -5q80 0 241 5t240 5q18 0 52 2t53 2q8 0 8 -18v-17q-2 -10 -2 -14q0 -18 2 -53.5t2 -53.5q0 -12 -8 -12t-16 14q-18 33 -33 43q-8 4 -52 16.5t-116 12.5 h-248q-29 0 -37 -5t-8 -34v-483q0 -27 5 -34t30 -7h233q94 0 119 22q18 16 27 39q14 43 16 43q10 0 10 -39q0 -16 -3 -45.5t-3 -46.5q0 -25 2 -73t2 -72q0 -20 -8 -21q-6 0 -8 17q-2 10 -6 24.5t-19 32.5q-23 29 -102 29h-264q-31 0 -31 -37v-479q0 -53 29 -80 q41 -39 200 -39q182 0 236 74q6 10 20 30h4q8 0 9 -8q0 -20 -22.5 -87t-37 -80t-51.5 -13q-70 0 -208 3t-208 3q-37 0 -112.5 -3t-112.5 -3q-39 0 -39 10zM333 1610q0 14 27 28q96 59 248 152q12 8 20 8q-2 0 31 -22q150 -104 147 -105q4 0 9.5 2t7.5 2q10 0 10 -8 q0 -6 -41 -39t-51 -33q-8 0 -96 56.5t-93 56.5q-10 0 -141 -74l-61 -35q-16 0 -17 11z" />
<glyph unicode="&#xeb;" horiz-adv-x="1110" d="M133 4q0 8 33 12q20 2 41 4q47 12 61 50q27 70 27 514v694q0 147 -125 147q-18 0 -18 9q0 10 20 10q29 0 88 -5t88 -5q80 0 241 5t240 5q18 0 52 2t53 2q8 0 8 -18v-17q-2 -10 -2 -14q0 -18 2 -53.5t2 -53.5q0 -12 -8 -12t-16 14q-18 33 -33 43q-8 4 -52 16.5t-116 12.5 h-248q-29 0 -37 -5t-8 -34v-483q0 -27 5 -34t30 -7h233q94 0 119 22q18 16 27 39q14 43 16 43q10 0 10 -39q0 -16 -3 -45.5t-3 -46.5q0 -25 2 -73t2 -72q0 -20 -8 -21q-6 0 -8 17q-2 10 -6 24.5t-19 32.5q-23 29 -102 29h-264q-31 0 -31 -37v-479q0 -53 29 -80 q41 -39 200 -39q182 0 236 74q6 10 20 30h4q8 0 9 -8q0 -20 -22.5 -87t-37 -80t-51.5 -13q-70 0 -208 3t-208 3q-37 0 -112.5 -3t-112.5 -3q-39 0 -39 10zM322 1669q0 82 82 82t82 -76q0 -88 -84 -88q-80 0 -80 82zM676 1669q0 82 82 82t82 -76q0 -88 -84 -88q-80 0 -80 82z " />
<glyph unicode="&#xec;" horiz-adv-x="741" d="M90 1665q0 10 57.5 66.5t67.5 56.5q18 0 151.5 -63.5t159.5 -82.5q15 -10 15 -16q0 -10 -11 -10q-2 0 -28 8q-66 20 -201 41q-113 16 -133 16q-10 0 -33.5 -13t-34.5 -13q-10 0 -10 10zM143 1434q0 8 35 8q27 0 78 -4t78 -4q31 0 93 7t93 7q39 0 39 -12q0 -6 -33 -15 q-41 -12 -51 -18q-49 -31 -49 -160v-956q0 -113 4 -140q12 -82 62 -116q18 -12 63 -17q37 -4 37 -12q0 -10 -17 -10q-31 0 -94 4t-96 4q-35 0 -102.5 -2t-100.5 -2q-27 0 -26 10q0 10 26 10q47 0 74 31q39 45 39 203v999q0 123 -51 152q-10 6 -60 16q-41 8 -41 17z" />
<glyph unicode="&#xed;" horiz-adv-x="741" d="M143 1434q0 8 35 8q27 0 78 -4t78 -4q31 0 93 7t93 7q39 0 39 -12q0 -6 -33 -15q-41 -12 -51 -18q-49 -31 -49 -160v-956q0 -113 4 -140q12 -82 62 -116q18 -12 63 -17q37 -4 37 -12q0 -10 -17 -10q-31 0 -94 4t-96 4q-35 0 -102.5 -2t-100.5 -2q-27 0 -26 10q0 10 26 10 q47 0 74 31q39 45 39 203v999q0 123 -51 152q-10 6 -60 16q-41 8 -41 17zM207 1626q0 6 14 16q27 18 160 82t152 64q10 0 67.5 -56.5t57.5 -66.5t-11 -10q-10 0 -33.5 13t-33.5 13q-20 0 -133 -16q-135 -20 -201 -41q-27 -8 -29 -8q-10 0 -10 10z" />
<glyph unicode="&#xee;" horiz-adv-x="741" d="M131 1610q0 14 27 28q96 59 248 152q12 8 20 8q-2 0 31 -22q150 -104 147 -105q4 0 9.5 2t7.5 2q10 0 10 -8q0 -6 -41 -39t-51 -33q-8 0 -96 56.5t-93 56.5q-10 0 -141 -74l-61 -35q-16 0 -17 11zM143 1434q0 8 35 8q27 0 78 -4t78 -4q31 0 93 7t93 7q39 0 39 -12 q0 -6 -33 -15q-41 -12 -51 -18q-49 -31 -49 -160v-956q0 -113 4 -140q12 -82 62 -116q18 -12 63 -17q37 -4 37 -12q0 -10 -17 -10q-31 0 -94 4t-96 4q-35 0 -102.5 -2t-100.5 -2q-27 0 -26 10q0 10 26 10q47 0 74 31q39 45 39 203v999q0 123 -51 152q-10 6 -60 16 q-41 8 -41 17z" />
<glyph unicode="&#xef;" horiz-adv-x="741" d="M119 1669q0 82 82 82t82 -76q0 -88 -84 -88q-80 0 -80 82zM143 1434q0 8 35 8q27 0 78 -4t78 -4q31 0 93 7t93 7q39 0 39 -12q0 -6 -33 -15q-41 -12 -51 -18q-49 -31 -49 -160v-956q0 -113 4 -140q12 -82 62 -116q18 -12 63 -17q37 -4 37 -12q0 -10 -17 -10q-31 0 -94 4 t-96 4q-35 0 -102.5 -2t-100.5 -2q-27 0 -26 10q0 10 26 10q47 0 74 31q39 45 39 203v999q0 123 -51 152q-10 6 -60 16q-41 8 -41 17zM473 1669q0 82 82 82t82 -76q0 -88 -84 -88q-80 0 -80 82z" />
<glyph unicode="&#xf0;" horiz-adv-x="1615" d="M78 672v86h225v499q0 158 -129 158q-16 0 -16 10q0 12 47 13q27 0 79 -2t78 -2q74 0 220.5 7t220.5 7q250 0 401 -84q160 -88 248 -262q82 -164 82 -354q0 -350 -193 -553q-199 -211 -548 -211q-70 0 -211.5 8t-210.5 8q-33 0 -98.5 -4t-98.5 -4q-31 0 -31 16q0 6 45 6 q59 0 87 51.5t28 249.5v357h-225zM434 469q0 -322 31 -350q6 -6 39 -23q115 -57 317 -57q578 0 578 651q0 190 -88 359q-92 176 -254 264q-141 78 -348 78q-238 0 -254 -17q-20 -23 -21 -74v-542h430v-86h-430v-203z" />
<glyph unicode="&#xf1;" horiz-adv-x="1740" d="M123 0q0 8 31 12q39 8 51 17q49 35 49 221v1081q0 125 16 125t78 -67q285 -313 492 -537l352 -383q59 -66 180 -197q23 -25 31 -24q10 0 10 53v14l-12 807q-4 223 -35 264q-25 31 -66 41q-29 6 -28 11q0 10 18 10q25 0 75 -7t75 -7t76 5t75 5q27 0 27 -8q0 -4 -29 -13 q-35 -10 -43 -16q-39 -23 -39 -272v-1106q0 -70 -12 -70q-16 0 -111 102l-811 879q-45 51 -135 150q-39 41 -61 40q-8 0 -8 -43v-843q0 -162 59 -207q25 -18 54 -23l30 -6q0 -18 -39 -18q-27 0 -81 5t-81 5t-78 -3t-77 -3q-33 0 -33 6zM610 1599q0 29 75 93.5t114 64.5 q57 0 126.5 -38t86.5 -38q57 0 86 37q12 18 24 39l5 -4q0 -35 -45.5 -93t-81.5 -58q-55 0 -124 36.5t-100 36.5q-57 0 -104 -37q-55 -43 -57 -43z" />
<glyph unicode="&#xf2;" horiz-adv-x="1576" d="M82 705q0 131 22 221q59 236 232 385q182 156 420 155q172 0 276 -36q213 -76 338 -264.5t125 -417.5q0 -338 -166 -549q-184 -231 -512 -232q-330 0 -532.5 204t-202.5 534zM233 782q0 -295 150 -510q170 -244 453 -243q246 0 385 159q131 152 131 402q0 313 -138 543 q-164 272 -456 272q-260 0 -400 -188q-125 -166 -125 -435zM506 1665q0 10 57.5 66.5t67.5 56.5q18 0 151.5 -63.5t159.5 -82.5q15 -10 15 -16q0 -10 -11 -10q-2 0 -28 8q-66 20 -201 41q-113 16 -133 16q-10 0 -33.5 -13t-34.5 -13q-10 0 -10 10z" />
<glyph unicode="&#xf3;" horiz-adv-x="1576" d="M82 705q0 131 22 221q59 236 232 385q182 156 420 155q172 0 276 -36q213 -76 338 -264.5t125 -417.5q0 -338 -166 -549q-184 -231 -512 -232q-330 0 -532.5 204t-202.5 534zM233 782q0 -295 150 -510q170 -244 453 -243q246 0 385 159q131 152 131 402q0 313 -138 543 q-164 272 -456 272q-260 0 -400 -188q-125 -166 -125 -435zM594 1626q0 6 14 16q27 18 160 82t152 64q10 0 67.5 -56.5t57.5 -66.5t-11 -10q-10 0 -33.5 13t-33.5 13q-20 0 -133 -16q-135 -20 -201 -41q-27 -8 -29 -8q-10 0 -10 10z" />
<glyph unicode="&#xf4;" horiz-adv-x="1576" d="M82 705q0 131 22 221q59 236 232 385q182 156 420 155q172 0 276 -36q213 -76 338 -264.5t125 -417.5q0 -338 -166 -549q-184 -231 -512 -232q-330 0 -532.5 204t-202.5 534zM233 782q0 -295 150 -510q170 -244 453 -243q246 0 385 159q131 152 131 402q0 313 -138 543 q-164 272 -456 272q-260 0 -400 -188q-125 -166 -125 -435zM526 1610q0 14 27 28q96 59 248 152q12 8 20 8q-2 0 31 -22q150 -104 147 -105q4 0 9.5 2t7.5 2q10 0 10 -8q0 -6 -41 -39t-51 -33q-8 0 -96 56.5t-93 56.5q-10 0 -141 -74l-61 -35q-16 0 -17 11z" />
<glyph unicode="&#xf5;" horiz-adv-x="1576" d="M82 705q0 131 22 221q59 236 232 385q182 156 420 155q172 0 276 -36q213 -76 338 -264.5t125 -417.5q0 -338 -166 -549q-184 -231 -512 -232q-330 0 -532.5 204t-202.5 534zM233 782q0 -295 150 -510q170 -244 453 -243q246 0 385 159q131 152 131 402q0 313 -138 543 q-164 272 -456 272q-260 0 -400 -188q-125 -166 -125 -435zM509 1599q0 29 75 93.5t114 64.5q57 0 126.5 -38t86.5 -38q57 0 86 37q12 18 24 39l5 -4q0 -35 -45.5 -93t-81.5 -58q-55 0 -124 36.5t-100 36.5q-57 0 -104 -37q-55 -43 -57 -43z" />
<glyph unicode="&#xf6;" horiz-adv-x="1576" d="M82 705q0 131 22 221q59 236 232 385q182 156 420 155q172 0 276 -36q213 -76 338 -264.5t125 -417.5q0 -338 -166 -549q-184 -231 -512 -232q-330 0 -532.5 204t-202.5 534zM233 782q0 -295 150 -510q170 -244 453 -243q246 0 385 159q131 152 131 402q0 313 -138 543 q-164 272 -456 272q-260 0 -400 -188q-125 -166 -125 -435zM510 1669q0 82 82 82t82 -76q0 -88 -84 -88q-80 0 -80 82zM864 1669q0 82 82 82t82 -76q0 -88 -84 -88q-80 0 -80 82z" />
<glyph unicode="&#xf7;" horiz-adv-x="1267" d="M0 842q0 4 10 4q39 4 39 20t-6 49t-6 52q0 25 7 55.5t28 75.5q25 59 39 59q2 0 2 -4q0 -10 -10.5 -51t-10.5 -64q0 -27 31 -104q35 -90 61 -90q18 0 42 32.5t40 32.5q23 0 35 -133q8 -86 16 -170q4 -23 13 -22q4 0 52 51t52 55q45 31 125 101q31 33 31 104 q0 41 -26.5 134t-26.5 142q0 125 24 125q6 0 14.5 -7t18.5 -7t54 76t79 76q2 0 2 -2q0 2 -41 -66t-41 -115q0 -33 49 -32q12 0 27.5 7t21.5 7t7 -51q0 -4 -2 -52q-2 -55 -68 -156.5t-66 -123.5q0 -16 15 -16h6q20 4 57 14q45 10 86 14q227 23 293 43q172 57 172 205 q0 68 -45 122t-110 54q-80 0 -80 -74q0 -35 26 -79h-6q-39 0 -39 94q0 35 33 56.5t70 21.5q74 0 124 -60.5t50 -136.5q0 -166 -178 -227q-68 -23 -316 -50q-178 -18 -178 -51q0 -12 70 -12q86 0 178 -51q39 -20 102 -68q80 -57 80 -76q0 -20 -30.5 -27t-30.5 -30 q0 -29 53 -53q43 -20 78 -21q-6 0 73 17q-8 -20 -62 -43t-81 -23q-14 0 -54 15.5t-46 15.5q-18 0 -35 -28.5t-31 -28.5q-49 0 -86 96q-66 174 -69 178q-51 96 -140 96q-41 0 -116 -75q-55 -55 -95 -111q-18 -27 -18 -92q0 -41 16 -103q0 -2 4 -6q12 16 27 35q25 29 59 29 q25 0 56.5 -17.5t31.5 -40.5q0 -10 -10 -10q-6 0 -26.5 22.5t-55.5 22.5q-25 0 -40 -24.5t-15 -49.5q0 -86 63.5 -166.5t147.5 -119.5v-21q-25 -10 -21 -10q-6 0 -63 43q-100 76 -145 166q-33 66 -64 211q-12 57 -20 86q-14 45 -33 80q-53 94 -148 164q-29 20 -59 41 q-41 31 -41 51z" />
<glyph unicode="&#xf8;" horiz-adv-x="1576" d="M82 705q0 133 22 221q61 238 232 385q180 156 420 155q268 0 442 -125l84 107q2 8 8 8q16 0 64 -47q0 -2 -2 -4l-90 -113q233 -212 233 -544q0 -338 -168 -549q-182 -231 -510 -232q-291 0 -479 152q-61 -80 -131 -160q-2 0 -64 49q-2 0 -2 2t133 168q-193 205 -192 527z M217 791q0 -272 148 -498l759 956q-154 156 -366 156q-258 0 -406 -182q-135 -168 -135 -432zM418 221q168 -193 418 -192q246 0 385 159q131 152 131 402q0 356 -174 596z" />
<glyph unicode="&#xf9;" horiz-adv-x="1644" d="M92 1427q0 14 27 15q31 0 90 -4t90 -4q35 0 102.5 5t100.5 5q16 0 16 -10q0 -4 -26 -11q-35 -8 -37 -10q-90 -39 -90 -401v-529q0 -186 59 -272q119 -170 383 -170q524 0 524 442v398q0 465 -49 499q-41 31 -119 37q-14 2 -14 4q0 20 35 21q31 0 94 -4t94 -4q29 0 84 2 t84 2q23 -1 23 -17q0 -6 -25 -6q-88 0 -111 -112q-8 -37 -8 -181v-587q0 -299 -157 -439q-150 -129 -455 -129q-582 0 -582 463v803q0 127 -20.5 147.5t-81.5 34.5q-31 8 -31 12zM571 1665q0 10 57.5 66.5t67.5 56.5q18 0 151.5 -63.5t159.5 -82.5q15 -10 15 -16 q0 -10 -11 -10q-2 0 -28 8q-66 20 -201 41q-113 16 -133 16q-10 0 -33.5 -13t-34.5 -13q-10 0 -10 10z" />
<glyph unicode="&#xfa;" horiz-adv-x="1644" d="M92 1427q0 14 27 15q31 0 90 -4t90 -4q35 0 102.5 5t100.5 5q16 0 16 -10q0 -4 -26 -11q-35 -8 -37 -10q-90 -39 -90 -401v-529q0 -186 59 -272q119 -170 383 -170q524 0 524 442v398q0 465 -49 499q-41 31 -119 37q-14 2 -14 4q0 20 35 21q31 0 94 -4t94 -4q29 0 84 2 t84 2q23 -1 23 -17q0 -6 -25 -6q-88 0 -111 -112q-8 -37 -8 -181v-587q0 -299 -157 -439q-150 -129 -455 -129q-582 0 -582 463v803q0 127 -20.5 147.5t-81.5 34.5q-31 8 -31 12zM602 1626q0 6 14 16q27 18 160 82t152 64q10 0 67.5 -56.5t57.5 -66.5t-11 -10 q-10 0 -33.5 13t-33.5 13q-20 0 -133 -16q-135 -20 -201 -41q-27 -8 -29 -8q-10 0 -10 10z" />
<glyph unicode="&#xfb;" horiz-adv-x="1644" d="M92 1427q0 14 27 15q31 0 90 -4t90 -4q35 0 102.5 5t100.5 5q16 0 16 -10q0 -4 -26 -11q-35 -8 -37 -10q-90 -39 -90 -401v-529q0 -186 59 -272q119 -170 383 -170q524 0 524 442v398q0 465 -49 499q-41 31 -119 37q-14 2 -14 4q0 20 35 21q31 0 94 -4t94 -4q29 0 84 2 t84 2q23 -1 23 -17q0 -6 -25 -6q-88 0 -111 -112q-8 -37 -8 -181v-587q0 -299 -157 -439q-150 -129 -455 -129q-582 0 -582 463v803q0 127 -20.5 147.5t-81.5 34.5q-31 8 -31 12zM577 1610q0 14 27 28q96 59 248 152q12 8 20 8q-2 0 31 -22q150 -104 147 -105q4 0 9.5 2 t7.5 2q10 0 10 -8q0 -6 -41 -39t-51 -33q-8 0 -96 56.5t-93 56.5q-10 0 -141 -74l-61 -35q-16 0 -17 11z" />
<glyph unicode="&#xfc;" horiz-adv-x="1644" d="M92 1427q0 14 27 15q31 0 90 -4t90 -4q35 0 102.5 5t100.5 5q16 0 16 -10q0 -4 -26 -11q-35 -8 -37 -10q-90 -39 -90 -401v-529q0 -186 59 -272q119 -170 383 -170q524 0 524 442v398q0 465 -49 499q-41 31 -119 37q-14 2 -14 4q0 20 35 21q31 0 94 -4t94 -4q29 0 84 2 t84 2q23 -1 23 -17q0 -6 -25 -6q-88 0 -111 -112q-8 -37 -8 -181v-587q0 -299 -157 -439q-150 -129 -455 -129q-582 0 -582 463v803q0 127 -20.5 147.5t-81.5 34.5q-31 8 -31 12zM576 1669q0 82 82 82t82 -76q0 -88 -84 -88q-80 0 -80 82zM930 1669q0 82 82 82t82 -76 q0 -88 -84 -88q-80 0 -80 82z" />
<glyph unicode="&#xfd;" horiz-adv-x="1318" d="M-82 1432q0 14 51 14q29 0 84.5 -6t83.5 -6q27 0 78 7t78 7q43 0 43 -8q0 -2 -33 -14.5t-33 -32.5q0 -51 43 -115l191 -283q51 -74 151 -221q10 -16 21 -16q10 0 22 16l154 215q258 360 258 395q0 39 -31 50q-2 8 17 8q14 0 42.5 -4t43.5 -4q27 0 81 7t80 7q58 0 58 -16 q0 -2 -12 -2q-31 0 -72 -17q-61 -25 -127 -110q-186 -242 -410 -560q-47 -68 -47 -118v-451q0 -80 29 -113q47 -55 119 -55q10 0 10 -6q0 -10 -41 -10q-31 0 -91.5 5t-90.5 5q-29 0 -84.5 -5t-81.5 -5q-43 0 -43 8t28 8q80 0 101 135q4 31 4 68v407q0 29 -37 82l-428 613 q-45 63 -94 88q-8 4 -88 22q-27 6 -27 11zM520 1626q0 6 14 16q27 18 160 82t152 64q10 0 67.5 -56.5t57.5 -66.5t-11 -10q-10 0 -33.5 13t-33.5 13q-20 0 -133 -16q-135 -20 -201 -41q-27 -8 -29 -8q-10 0 -10 10z" />
<glyph unicode="&#xfe;" horiz-adv-x="1175" d="M154 -2q0 6 30 12q51 10 78 47q33 45 33 228v989q0 104 -62 137q-8 4 -34.5 10t-26.5 11q0 10 14 10q29 0 88.5 -4t87.5 -4q27 0 80.5 7t79.5 7q35 0 35 -14q0 -4 -4 -7q-29 -4 -88 -30q-39 -29 -39 -174q0 -51 39 -52q27 0 81 3.5t81 3.5q131 0 217 -33 q117 -45 184.5 -137t67.5 -215q0 -188 -101 -318q-109 -141 -288 -141q-27 0 -74 8q-59 8 -60 20q0 6 7 7q16 0 47.5 -6.5t48.5 -6.5q104 0 180 76q70 74 84 178q6 39 6 88q0 416 -391 416q-55 0 -92 -4t-37 -231v-412q0 -375 33 -412q41 -47 112 -47q20 0 21 -10 q0 -12 -49 -12q-33 0 -100.5 7t-100.5 7q-27 0 -80 -5t-80 -5q-29 0 -28 8z" />
<glyph unicode="&#xff;" horiz-adv-x="1318" d="M-82 1432q0 14 51 14q29 0 84.5 -6t83.5 -6q27 0 78 7t78 7q43 0 43 -8q0 -2 -33 -14.5t-33 -32.5q0 -51 43 -115l191 -283q51 -74 151 -221q10 -16 21 -16q10 0 22 16l154 215q258 360 258 395q0 39 -31 50q-2 8 17 8q14 0 42.5 -4t43.5 -4q27 0 81 7t80 7q58 0 58 -16 q0 -2 -12 -2q-31 0 -72 -17q-61 -25 -127 -110q-186 -242 -410 -560q-47 -68 -47 -118v-451q0 -80 29 -113q47 -55 119 -55q10 0 10 -6q0 -10 -41 -10q-31 0 -91.5 5t-90.5 5q-29 0 -84.5 -5t-81.5 -5q-43 0 -43 8t28 8q80 0 101 135q4 31 4 68v407q0 29 -37 82l-428 613 q-45 63 -94 88q-8 4 -88 22q-27 6 -27 11zM434 1669q0 82 82 82t82 -76q0 -88 -84 -88q-80 0 -80 82zM788 1669q0 82 82 82t82 -76q0 -88 -84 -88q-80 0 -80 82z" />
<glyph unicode="&#x152;" horiz-adv-x="1875" d="M82 705q0 137 22 221q63 240 234 385q178 156 418 155q102 0 168 -10q25 -6 73 -16q37 -6 107 -6q80 0 240.5 5t240.5 5q18 0 54 2t55 2q4 0 4 -10v-17q-2 -10 -2 -16q0 -18 2 -56.5t2 -56.5q0 -12 -8 -12t-17 14q-16 33 -33 43q-8 4 -51 16.5t-127 12.5h-225 q-41 0 -49 -6t-8 -43v-473q0 -31 7 -36t38 -5h209q109 0 133 22q18 18 28 54q8 29 15 28h4q6 -14 6 -35q0 -16 -3 -47.5t-3 -48.5q0 -23 2 -67.5t2 -67.5q0 -31 -8 -31q-10 0 -10 11q0 45 -35 73q-23 18 -99 19h-256q-31 0 -30 -37v-471q0 -61 28 -88q43 -39 201 -39 q100 0 162 22q53 20 82 62q4 8 12 20h4q8 0 8 -8q0 -20 -23.5 -87t-36.5 -80t-50 -13q-70 0 -208 3t-208 3q-102 0 -125.5 -5t-66.5 -15q-66 -12 -144 -13q-334 0 -534.5 202t-200.5 536zM217 791q0 -129 45 -275q68 -217 205 -344q154 -143 369 -143q104 0 178 24 q37 37 37 559v701q-125 92 -293 92q-258 0 -406 -182q-135 -168 -135 -432z" />
<glyph unicode="&#x153;" horiz-adv-x="1875" d="M82 705q0 137 22 221q63 240 234 385q178 156 418 155q102 0 168 -10q25 -6 73 -16q37 -6 107 -6q80 0 240.5 5t240.5 5q18 0 54 2t55 2q4 0 4 -10v-17q-2 -10 -2 -16q0 -18 2 -56.5t2 -56.5q0 -12 -8 -12t-17 14q-16 33 -33 43q-8 4 -51 16.5t-127 12.5h-225 q-41 0 -49 -6t-8 -43v-473q0 -31 7 -36t38 -5h209q109 0 133 22q18 18 28 54q8 29 15 28h4q6 -14 6 -35q0 -16 -3 -47.5t-3 -48.5q0 -23 2 -67.5t2 -67.5q0 -31 -8 -31q-10 0 -10 11q0 45 -35 73q-23 18 -99 19h-256q-31 0 -30 -37v-471q0 -61 28 -88q43 -39 201 -39 q100 0 162 22q53 20 82 62q4 8 12 20h4q8 0 8 -8q0 -20 -23.5 -87t-36.5 -80t-50 -13q-70 0 -208 3t-208 3q-102 0 -125.5 -5t-66.5 -15q-66 -12 -144 -13q-334 0 -534.5 202t-200.5 536zM217 791q0 -129 45 -275q68 -217 205 -344q154 -143 369 -143q104 0 178 24 q37 37 37 559v701q-125 92 -293 92q-258 0 -406 -182q-135 -168 -135 -432z" />
<glyph unicode="&#x178;" horiz-adv-x="1318" d="M-82 1432q0 14 51 14q29 0 84.5 -6t83.5 -6q27 0 78 7t78 7q43 0 43 -8q0 -2 -33 -14.5t-33 -32.5q0 -51 43 -115l191 -283q51 -74 151 -221q10 -16 21 -16q10 0 22 16l154 215q258 360 258 395q0 39 -31 50q-2 8 17 8q14 0 42.5 -4t43.5 -4q27 0 81 7t80 7q58 0 58 -16 q0 -2 -12 -2q-31 0 -72 -17q-61 -25 -127 -110q-186 -242 -410 -560q-47 -68 -47 -118v-451q0 -80 29 -113q47 -55 119 -55q10 0 10 -6q0 -10 -41 -10q-31 0 -91.5 5t-90.5 5q-29 0 -84.5 -5t-81.5 -5q-43 0 -43 8t28 8q80 0 101 135q4 31 4 68v407q0 29 -37 82l-428 613 q-45 63 -94 88q-8 4 -88 22q-27 6 -27 11zM434 1669q0 82 82 82t82 -76q0 -88 -84 -88q-80 0 -80 82zM788 1669q0 82 82 82t82 -76q0 -88 -84 -88q-80 0 -80 82z" />
<glyph unicode="&#x2c6;" horiz-adv-x="0" d="M526 1610q0 14 27 28q96 59 248 152q12 8 20 8q-2 0 31 -22q150 -104 147 -105q4 0 9.5 2t7.5 2q10 0 10 -8q0 -6 -41 -39t-51 -33q-8 0 -96 56.5t-93 56.5q-10 0 -141 -74l-61 -35q-16 0 -17 11z" />
<glyph unicode="&#x2dc;" horiz-adv-x="0" d="M489 1599q0 29 75 93.5t114 64.5q57 0 126.5 -38t86.5 -38q57 0 86 37q12 18 24 39l5 -4q0 -35 -45.5 -93t-81.5 -58q-55 0 -124 36.5t-100 36.5q-57 0 -104 -37q-55 -43 -57 -43z" />
<glyph unicode="&#x2000;" horiz-adv-x="921" />
<glyph unicode="&#x2001;" horiz-adv-x="1843" />
<glyph unicode="&#x2002;" horiz-adv-x="921" />
<glyph unicode="&#x2003;" horiz-adv-x="1843" />
<glyph unicode="&#x2004;" horiz-adv-x="614" />
<glyph unicode="&#x2005;" horiz-adv-x="460" />
<glyph unicode="&#x2006;" horiz-adv-x="307" />
<glyph unicode="&#x2007;" horiz-adv-x="307" />
<glyph unicode="&#x2008;" horiz-adv-x="230" />
<glyph unicode="&#x2009;" horiz-adv-x="368" />
<glyph unicode="&#x200a;" horiz-adv-x="102" />
<glyph unicode="&#x2010;" horiz-adv-x="567" d="M61 666q0 14 27 26l346 172q49 25 64 25q8 0 8 -27q0 -49 -33 -65l-346 -176q-12 -6 -39 -7q-10 0 -18.5 19.5t-8.5 32.5z" />
<glyph unicode="&#x2011;" horiz-adv-x="567" d="M61 666q0 14 27 26l346 172q49 25 64 25q8 0 8 -27q0 -49 -33 -65l-346 -176q-12 -6 -39 -7q-10 0 -18.5 19.5t-8.5 32.5z" />
<glyph unicode="&#x2012;" horiz-adv-x="567" d="M61 666q0 14 27 26l346 172q49 25 64 25q8 0 8 -27q0 -49 -33 -65l-346 -176q-12 -6 -39 -7q-10 0 -18.5 19.5t-8.5 32.5z" />
<glyph unicode="&#x2013;" horiz-adv-x="956" d="M8 733v86h940v-86h-940z" />
<glyph unicode="&#x2014;" horiz-adv-x="1910" d="M8 733v86h1895v-86h-1895z" />
<glyph unicode="&#x2018;" horiz-adv-x="331" d="M82 1167q0 49 53 148q43 82 86 135q4 8 19 16q4 -2 4 -6q0 2 -30 -60.5t-30 -107.5q0 -53 33 -95t33 -46q0 -27 -45 -63.5t-66 -36.5q-14 0 -35.5 49t-21.5 67z" />
<glyph unicode="&#x2019;" horiz-adv-x="331" d="M82 1366q0 12 47 56t64 44q14 0 35.5 -49t21.5 -67q0 -49 -53 -148q-45 -84 -86 -135q-4 -8 -19 -16q-4 2 -4 6q0 -2 29.5 60.5t29.5 107.5q0 53 -32.5 95t-32.5 46z" />
<glyph unicode="&#x201a;" horiz-adv-x="1183" d="M102 670q0 317 109 534q133 262 387 262q244 0 377 -268q106 -211 106 -473q0 -334 -118 -532q-131 -225 -390 -226q-201 0 -336 204t-135 499zM244 854q0 -289 69 -508q102 -317 316 -317q150 0 229 159q70 142 70 359q0 301 -64 524q-96 334 -313 334q-150 0 -236 -191 q-72 -158 -71 -360z" />
<glyph unicode="&#x201c;" horiz-adv-x="577" d="M82 1184q0 49 53 147q43 82 86 135q4 8 19 17q4 -2 4 -6q0 2 -30 -60.5t-30 -107.5q0 -53 33 -95.5t33 -46.5q0 -25 -48 -62.5t-63 -37.5q-14 0 -35.5 49t-21.5 68zM328 1184q0 49 53 147q43 82 86 135q4 8 18 17q4 -2 4 -6q0 2 -29.5 -60.5t-29.5 -107.5q0 -53 33 -95.5 t33 -46.5q0 -25 -45 -62.5t-66 -37.5q-14 0 -35.5 49t-21.5 68z" />
<glyph unicode="&#x201d;" horiz-adv-x="577" d="M82 1366q0 14 45 57t66 43q14 0 35.5 -49t21.5 -67q0 -49 -53 -148q-43 -82 -86 -135q-4 -8 -19 -16q-4 2 -4 6q0 -2 29.5 60.5t29.5 107.5q0 53 -32.5 95t-32.5 46zM328 1366q0 23 45 61.5t65 38.5q14 0 36 -49t22 -67q0 -49 -54 -148q-43 -82 -86 -135q-4 -8 -18 -16 q-4 2 -4 6q0 -2 29.5 60.5t29.5 107.5q0 53 -32.5 95t-32.5 46z" />
<glyph unicode="&#x201e;" horiz-adv-x="577" d="M82 131q0 37 36 68.5t75 31.5q14 0 35.5 -49t21.5 -67q0 -49 -53 -148q-43 -82 -86 -135q-4 -8 -19 -16q-4 2 -4 6q0 -2 29.5 60.5t29.5 107.5q0 53 -32.5 95t-32.5 46zM328 131q0 37 35.5 68.5t74.5 31.5q14 0 36 -49t22 -67q0 -49 -54 -148q-43 -82 -86 -135 q-4 -8 -18 -16q-4 2 -4 6q0 -2 29.5 60.5t29.5 107.5q0 53 -32.5 95t-32.5 46z" />
<glyph unicode="&#x2022;" horiz-adv-x="618" d="M123 977q0 14 16 14t68 -37q61 -49 170 -120q39 -16 106 -54q13 -8 13 -16q0 -10 -50 -45q-12 -14 -55 -57q-18 -18 -43 -58q-8 -12 -22 -43q-10 -23 -15 -22q-23 0 -26 39q-12 98 -60 202q-20 37 -61 113t-41 84z" />
<glyph unicode="&#x2026;" horiz-adv-x="1431" d="M141 104q0 45 28 76t71 31q96 0 96 -98q0 -47 -26.5 -80t-71.5 -33q-43 0 -70 30.5t-27 73.5zM618 104q0 45 28 76t71 31q96 0 96 -98q0 -47 -26.5 -80t-71.5 -33q-43 0 -70 30.5t-27 73.5zM1096 104q0 45 27.5 76t70.5 31q96 0 96 -98q0 -47 -26.5 -80t-71.5 -33 q-43 0 -69.5 30.5t-26.5 73.5z" />
<glyph unicode="&#x202f;" horiz-adv-x="368" />
<glyph unicode="&#x2039;" horiz-adv-x="983" d="M41 113q0 25 19.5 48t37.5 23q12 0 31 -24q27 -37 51 -58q86 -74 269 -73q285 0 284 305q0 266 -225 379q-6 2 -68 20q-39 12 -39 29q0 16 15 20q25 8 49 15q92 33 160 106q78 86 77 184q0 127 -88 222.5t-219 95.5q-127 0 -235 -109q-6 -6 -16.5 -31.5t-20.5 -25.5 q-18 0 -19 25q0 55 82 120q106 82 273 82q154 0 263 -96t109 -217q0 -188 -184 -330q-31 -23 -31 -30q0 -10 29 -21q90 -35 162 -137q82 -115 82 -240q0 -182 -121 -303q-129 -125 -340 -125q-156 0 -281 60q-106 51 -106 86z" />
<glyph unicode="&#x203a;" horiz-adv-x="1060" d="M41 348q0 8 47 78l643 960q78 117 94 117t17 -24q-4 -137 -4 -254v-752q0 -53 26 -53h127l-24 -92h-103q-27 0 -26 -25v-530l-138 -27v551q0 31 -26 31h-613q-20 0 -20 20zM162 430q0 -10 22 -10h488q28 0 28 47v725q0 31 -8 31q-6 0 -14 -13l-492 -735q-25 -37 -24 -45z " />
<glyph unicode="&#x205f;" horiz-adv-x="460" />
<glyph unicode="&#x2122;" horiz-adv-x="1558" d="M20 1360q0 10 10.5 36.5t12.5 39t12 12.5l13 -4q25 -8 94 -8h377q18 0 57 2t57 2q13 -1 13 -19q0 4 -13 -65q-4 -20 -14 -21q-6 0 -10 8l-2 3q-12 27 -170 26h-60v-6q2 -86 0 -223q-2 -182 -2 -223q0 -137 15.5 -157t58.5 -20q20 0 20 -12q0 -16 -49 -16q-14 0 -43 2h-43 q-18 0 -53 -2t-53 -2q-29 0 -29 12t34 17.5t40 19.5q8 23 8 153v443q0 14 -12 14h-197q-20 0 -38 -16l-17 -17q-16 0 -17 21zM588 725q0 8 18 14q27 8 29 11q27 18 37 102q14 143 49 430l20 143q4 25 19 25q10 0 22 -20q27 -51 80 -154q25 -43 156 -301q14 -33 47 -94 q0 -2 4 -7q92 180 215 414q27 55 78 150q10 14 16 14q14 0 19 -22q4 -43 12 -127q14 -156 29 -267q12 -123 39 -266q12 -20 36.5 -26.5t24.5 -16.5q0 -16 -55 -16q-16 0 -47 3t-47 3h-39q-27 -2 -39 -2q-23 0 -23 14q0 8 19 12q29 8 32 11q25 12 25 75q0 6 -6 76l-29 324v8 l-211 -410q-12 -29 -41 -84q-10 -18 -22 -18t-23 18q-14 29 -41 84q-106 217 -207 400q0 2 -2 6v-2l-28 -336q-4 -47 -4 -84q0 -23 4 -37q8 -27 49 -33q27 -4 26 -16q0 -12 -28 -12q-16 0 -47 3t-47 3q-14 0 -43 -3t-43 -3q-33 0 -33 14z" />
<glyph unicode="&#x25fc;" horiz-adv-x="1443" d="M0 0v1444h1444v-1444h-1444z" />
</font>
</defs>
</svg>
